{"glyphs":{"0":{"ha":751,"x_min":51,"x_max":699,"o":"m 374 944 q 624 813 549 944 q 699 471 699 682 q 623 113 699 256 q 374 -31 547 -31 q 126 105 200 -31 q 51 454 51 240 q 126 806 51 668 q 374 944 200 944 m 374 67 q 494 172 465 67 q 524 461 524 278 q 494 740 524 632 q 374 847 464 847 q 256 740 285 847 q 226 461 226 633 q 255 172 226 278 q 374 67 283 67 z "},"1":{"ha":751,"x_min":49,"x_max":693,"o":"m 693 103 l 693 0 l 92 0 l 92 103 l 342 103 l 342 739 q 192 653 233 674 q 124 633 151 633 q 49 725 49 633 q 460 939 201 785 l 504 917 l 504 103 l 693 103 z "},"2":{"ha":751,"x_min":39,"x_max":681,"o":"m 336 944 q 574 876 488 944 q 661 678 661 808 q 628 532 661 601 q 519 379 596 463 q 299 176 442 296 q 249 131 274 156 l 681 132 l 671 0 l 49 0 l 39 101 q 332 371 182 213 q 447 526 407 457 q 486 676 486 596 q 440 780 486 743 q 322 817 394 817 q 101 638 165 817 q 63 675 74 650 q 47 747 51 700 q 97 854 54 810 q 204 922 140 899 q 336 944 268 944 z "},"3":{"ha":751,"x_min":40,"x_max":688,"o":"m 325 943 q 553 888 468 943 q 639 719 639 832 q 597 582 639 643 q 482 488 554 521 q 631 411 575 469 q 688 264 688 353 q 640 108 688 175 q 508 6 593 42 q 313 -31 424 -31 q 119 15 199 -31 q 40 153 40 60 q 75 225 40 208 q 310 97 138 97 q 460 139 408 97 q 513 264 513 181 q 458 385 513 346 q 310 424 404 424 q 240 419 274 424 l 240 507 q 408 554 343 510 q 474 686 474 599 q 427 783 474 750 q 296 815 381 815 q 176 781 225 815 q 107 678 128 746 q 65 708 78 688 q 53 760 53 728 q 93 861 53 819 q 196 923 133 903 q 325 943 258 943 z "},"4":{"ha":751,"x_min":14,"x_max":729,"o":"m 606 303 l 729 303 l 719 200 l 606 200 l 606 0 l 443 0 l 443 200 l 65 200 q 28 216 42 200 q 14 258 14 232 q 44 336 14 289 l 443 917 l 606 917 l 606 303 m 443 722 l 154 303 l 443 303 l 443 722 z "},"5":{"ha":751,"x_min":38,"x_max":679,"o":"m 621 776 l 231 776 l 214 553 q 342 560 276 560 q 679 278 679 560 q 633 119 679 189 q 506 9 588 49 q 325 -31 425 -31 q 119 15 200 -31 q 38 153 38 61 q 72 225 38 208 q 319 97 138 97 q 456 144 407 97 q 504 278 504 192 q 438 410 504 368 q 258 451 372 451 q 82 432 185 451 l 118 917 l 611 917 l 621 776 z "},"6":{"ha":751,"x_min":51,"x_max":688,"o":"m 444 944 q 578 913 519 944 q 638 821 638 881 q 628 788 638 801 q 601 761 619 774 q 456 818 546 818 q 285 734 342 818 q 224 513 229 650 q 303 594 246 565 q 431 624 361 624 q 621 535 554 624 q 688 313 688 447 q 649 137 688 215 q 540 14 611 58 q 375 -31 469 -31 q 51 426 51 -31 q 96 681 51 563 q 229 872 140 800 q 444 944 318 944 m 375 521 q 274 459 307 521 q 236 303 242 397 q 272 136 240 206 q 375 67 304 67 q 480 138 447 67 q 513 303 513 208 q 478 453 513 386 q 375 521 443 521 z "},"7":{"ha":751,"x_min":50,"x_max":725,"o":"m 715 917 l 725 815 l 342 -31 l 158 0 l 565 786 l 50 785 l 60 917 l 715 917 z "},"8":{"ha":751,"x_min":51,"x_max":700,"o":"m 663 726 q 614 595 663 653 q 488 496 565 538 q 642 376 583 440 q 700 226 700 313 q 611 33 700 96 q 375 -31 522 -31 q 142 34 232 -31 q 51 225 51 99 q 106 371 51 304 q 244 476 161 438 q 125 587 168 532 q 82 713 82 642 q 165 885 82 825 q 376 944 249 944 q 583 890 503 944 q 663 726 663 836 m 264 726 q 301 634 264 675 q 408 547 339 593 q 473 626 450 579 q 496 726 496 672 q 463 814 496 781 q 376 847 429 847 q 294 815 324 847 q 264 726 264 782 m 518 211 q 492 289 518 253 q 428 353 465 325 q 321 424 390 381 q 253 333 278 386 q 228 225 228 281 q 266 109 228 151 q 375 67 304 67 q 481 104 444 67 q 518 211 518 142 z "},"9":{"ha":751,"x_min":51,"x_max":688,"o":"m 364 944 q 688 488 688 944 q 643 233 688 351 q 510 42 599 114 q 294 -31 421 -31 q 160 1 219 -31 q 101 93 101 33 q 110 126 101 113 q 138 153 119 140 q 283 96 193 96 q 455 179 400 96 q 515 401 510 263 q 433 319 489 347 q 308 290 378 290 q 118 378 185 290 q 51 601 51 467 q 90 777 51 699 q 199 900 128 856 q 364 944 269 944 m 364 847 q 259 776 292 847 q 226 611 226 706 q 259 459 226 525 q 364 393 292 393 q 471 455 439 393 q 503 611 503 517 q 469 776 503 706 q 364 847 436 847 z "},"\u0000":{"ha":0,"x_min":0,"x_max":0,"o":""},"\r":{"ha":243,"x_min":0,"x_max":0,"o":""}," ":{"ha":243,"x_min":0,"x_max":0,"o":""},"A":{"ha":699,"x_min":0,"x_max":699,"o":"m 461 917 l 699 0 l 535 0 l 479 233 l 207 233 l 153 0 l 0 0 l 254 917 l 461 917 m 232 336 l 456 336 l 343 813 l 232 336 z "},"Á":{"ha":699,"x_min":0,"x_max":699,"o":"m 0 0 m 461 917 l 699 0 l 535 0 l 479 233 l 207 233 l 153 0 l 0 0 l 254 917 l 461 917 m 232 336 l 456 336 l 343 813 l 232 336 m 538 1163 q 567 1131 556 1150 q 578 1092 578 1113 q 536 1024 578 1042 q 424 1000 494 1006 l 258 988 l 243 1046 l 538 1163 z "},"Ă":{"ha":699,"x_min":0,"x_max":699,"o":"m 0 0 m 461 917 l 699 0 l 535 0 l 479 233 l 207 233 l 153 0 l 0 0 l 254 917 l 461 917 m 232 336 l 456 336 l 343 813 l 232 336 m 561 1143 q 503 1002 561 1053 q 351 951 446 951 q 200 1002 257 951 q 143 1143 143 1053 l 269 1143 q 288 1056 269 1088 q 351 1024 306 1024 q 415 1056 397 1024 q 433 1143 433 1088 l 561 1143 z "},"Â":{"ha":699,"x_min":0,"x_max":699,"o":"m 0 0 m 461 917 l 699 0 l 535 0 l 479 233 l 207 233 l 153 0 l 0 0 l 254 917 l 461 917 m 232 336 l 456 336 l 343 813 l 232 336 m 188 929 l 147 978 l 349 1161 l 354 1161 l 561 978 l 519 929 l 353 1031 l 188 929 z "},"Ä":{"ha":699,"x_min":0,"x_max":699,"o":"m 0 0 m 461 917 l 699 0 l 535 0 l 479 233 l 207 233 l 153 0 l 0 0 l 254 917 l 461 917 m 232 336 l 456 336 l 343 813 l 232 336 m 492 1161 q 566 1139 538 1161 q 594 1075 594 1117 q 565 1009 594 1032 q 488 986 535 986 q 414 1008 442 986 q 386 1072 386 1031 q 416 1138 386 1115 q 492 1161 446 1161 m 215 1161 q 290 1139 261 1161 q 318 1075 318 1117 q 288 1009 318 1032 q 211 986 258 986 q 138 1008 165 986 q 110 1072 110 1031 q 140 1138 110 1115 q 215 1161 169 1161 z "},"À":{"ha":699,"x_min":0,"x_max":699,"o":"m 0 0 m 461 917 l 699 0 l 535 0 l 479 233 l 207 233 l 153 0 l 0 0 l 254 917 l 461 917 m 232 336 l 456 336 l 343 813 l 232 336 m 278 1000 q 166 1024 207 1006 q 125 1092 125 1042 q 135 1131 125 1113 q 164 1163 146 1150 l 460 1046 l 444 988 l 278 1000 z "},"Ā":{"ha":699,"x_min":0,"x_max":699,"o":"m 0 0 m 461 917 l 699 0 l 535 0 l 479 233 l 207 233 l 153 0 l 0 0 l 254 917 l 461 917 m 232 336 l 456 336 l 343 813 l 232 336 m 532 1144 q 543 1092 543 1117 q 523 1047 543 1063 q 463 1031 503 1031 l 171 1031 q 161 1081 161 1053 q 180 1128 161 1111 q 232 1144 199 1144 l 532 1144 z "},"Ą":{"ha":699,"x_min":0,"x_max":744,"o":"m 729 -232 q 744 -267 744 -244 q 711 -324 744 -306 q 631 -342 678 -342 q 522 -304 561 -342 q 483 -199 483 -267 q 513 -90 483 -140 q 594 0 543 -39 l 535 0 l 479 233 l 207 233 l 153 0 l 0 0 l 254 917 l 461 917 l 694 15 l 697 14 l 696 13 l 699 0 l 679 0 q 611 -85 636 -37 q 586 -181 586 -132 q 603 -242 586 -222 q 664 -261 621 -261 q 729 -232 704 -261 m 232 336 l 456 336 l 343 813 l 232 336 z "},"Å":{"ha":699,"x_min":0,"x_max":699,"o":"m 0 0 m 461 917 l 699 0 l 535 0 l 479 233 l 207 233 l 153 0 l 0 0 l 254 917 l 461 917 m 232 336 l 456 336 l 343 813 l 232 336 m 350 975 q 251 1007 292 975 q 211 1092 211 1039 q 250 1174 211 1144 q 350 1204 289 1204 q 451 1174 411 1204 q 490 1092 490 1144 q 450 1007 490 1039 q 350 975 410 975 m 350 1022 q 394 1042 379 1022 q 410 1092 410 1061 q 394 1139 410 1121 q 350 1157 379 1157 q 307 1139 322 1157 q 292 1092 292 1121 q 306 1042 292 1061 q 350 1022 321 1022 z "},"Ǻ":{"ha":699,"x_min":0,"x_max":699,"o":"m 261 1103 l 246 1161 l 540 1278 q 569 1247 558 1265 q 581 1207 581 1228 q 539 1139 581 1157 q 426 1115 497 1121 l 261 1103 m 699 0 l 535 0 l 479 233 l 207 233 l 153 0 l 0 0 l 251 907 q 218 986 218 938 q 257 1069 218 1039 q 357 1099 296 1099 q 459 1069 419 1099 q 499 986 499 1039 q 464 906 499 938 l 699 0 m 357 1051 q 314 1033 329 1051 q 299 986 299 1015 q 313 936 299 956 q 357 917 328 917 q 401 936 386 917 q 417 986 417 956 q 401 1033 417 1015 q 357 1051 386 1051 m 232 336 l 456 336 l 343 813 l 232 336 z "},"Ã":{"ha":699,"x_min":0,"x_max":699,"o":"m 0 0 m 461 917 l 699 0 l 535 0 l 479 233 l 207 233 l 153 0 l 0 0 l 254 917 l 461 917 m 232 336 l 456 336 l 343 813 l 232 336 m 524 1139 q 551 1108 542 1128 q 561 1068 561 1089 q 538 1017 561 1035 q 476 1000 514 1000 q 358 1017 444 1000 q 251 1033 278 1033 q 178 1013 200 1033 q 150 1043 160 1024 q 140 1083 140 1063 q 164 1134 140 1117 q 225 1151 188 1151 q 344 1133 264 1151 q 391 1125 354 1132 q 450 1118 428 1118 q 524 1139 501 1118 z "},"Æ":{"ha":938,"x_min":-64,"x_max":896,"o":"m 876 917 l 876 814 l 594 814 l 594 522 l 835 522 l 835 419 l 594 419 l 594 103 l 896 103 l 886 0 l 431 0 l 431 233 l 188 233 l 90 0 l -64 0 l 354 917 l 876 917 m 431 814 l 231 336 l 431 336 l 431 814 z "},"Ǽ":{"ha":938,"x_min":-64,"x_max":896,"o":"m 0 0 m 876 917 l 876 814 l 594 814 l 594 522 l 835 522 l 835 419 l 594 419 l 594 103 l 896 103 l 886 0 l 431 0 l 431 233 l 188 233 l 90 0 l -64 0 l 354 917 l 876 917 m 431 814 l 231 336 l 431 336 l 431 814 m 650 1163 q 679 1131 668 1150 q 690 1092 690 1113 q 649 1024 690 1042 q 536 1000 607 1006 l 371 988 l 356 1046 l 650 1163 z "},"B":{"ha":750,"x_min":83,"x_max":713,"o":"m 646 706 q 611 595 646 647 q 522 513 576 543 q 663 429 614 494 q 713 268 713 364 q 661 112 713 175 q 524 17 610 49 q 339 -14 439 -14 q 83 7 222 -14 l 83 911 q 344 922 247 922 q 566 874 486 922 q 646 706 646 825 m 246 540 q 317 536 278 536 q 439 574 399 536 q 479 692 479 611 q 335 825 479 825 q 246 818 292 825 l 246 540 m 246 92 q 339 83 296 83 q 488 128 436 83 q 540 264 540 172 q 484 405 540 368 q 308 442 428 442 q 246 438 271 442 l 246 92 z "},"C":{"ha":711,"x_min":47,"x_max":676,"o":"m 396 847 q 256 737 290 847 q 222 461 222 626 q 258 197 222 296 q 410 97 294 97 q 533 138 482 97 q 607 249 585 178 q 649 219 636 239 q 661 167 661 199 q 623 60 661 104 q 524 -8 585 15 q 396 -31 464 -31 q 127 100 207 -31 q 47 454 47 231 q 133 810 47 676 q 408 944 218 944 q 603 896 531 944 q 676 742 676 847 q 647 660 676 692 q 568 629 618 629 q 496 651 519 629 q 507 721 507 682 q 396 847 507 847 z "},"Ć":{"ha":711,"x_min":47,"x_max":676,"o":"m 47 0 m 396 847 q 256 737 290 847 q 222 461 222 626 q 258 197 222 296 q 410 97 294 97 q 533 138 482 97 q 607 249 585 178 q 649 219 636 239 q 661 167 661 199 q 623 60 661 104 q 524 -8 585 15 q 396 -31 464 -31 q 127 100 207 -31 q 47 454 47 231 q 133 810 47 676 q 408 944 218 944 q 603 896 531 944 q 676 742 676 847 q 647 660 676 692 q 568 629 618 629 q 496 651 519 629 q 507 721 507 682 q 396 847 507 847 m 585 1163 q 614 1131 603 1150 q 625 1092 625 1113 q 583 1024 625 1042 q 471 1000 542 1006 l 306 988 l 290 1046 l 585 1163 z "},"Č":{"ha":711,"x_min":47,"x_max":676,"o":"m 47 0 m 396 847 q 256 737 290 847 q 222 461 222 626 q 258 197 222 296 q 410 97 294 97 q 533 138 482 97 q 607 249 585 178 q 649 219 636 239 q 661 167 661 199 q 623 60 661 104 q 524 -8 585 15 q 396 -31 464 -31 q 127 100 207 -31 q 47 454 47 231 q 133 810 47 676 q 408 944 218 944 q 603 896 531 944 q 676 742 676 847 q 647 660 676 692 q 568 629 618 629 q 496 651 519 629 q 507 721 507 682 q 396 847 507 847 m 560 1158 l 600 1110 l 399 954 l 394 954 l 188 1110 l 228 1158 l 394 1071 l 560 1158 z "},"Ç":{"ha":711,"x_min":47,"x_max":676,"o":"m 607 249 q 649 219 636 239 q 661 167 661 199 q 624 61 661 106 q 526 -6 586 17 q 399 -31 467 -29 l 376 -90 q 415 -89 389 -89 q 528 -120 486 -89 q 569 -214 569 -151 q 515 -313 569 -275 q 388 -351 461 -351 q 296 -333 336 -351 q 256 -274 256 -314 q 269 -239 256 -251 q 367 -278 304 -278 q 431 -263 406 -278 q 457 -218 457 -249 q 426 -168 457 -182 q 344 -154 396 -154 q 286 -158 313 -154 l 336 -26 q 113 122 179 -6 q 47 454 47 249 q 133 810 47 676 q 408 944 218 944 q 603 896 531 944 q 676 742 676 847 q 647 660 676 692 q 568 629 618 629 q 496 651 519 629 q 507 721 507 682 q 396 847 507 847 q 256 737 290 847 q 222 461 222 626 q 258 197 222 296 q 410 97 294 97 q 533 138 482 97 q 607 249 585 178 z "},"Ĉ":{"ha":711,"x_min":47,"x_max":676,"o":"m 47 0 m 396 847 q 256 737 290 847 q 222 461 222 626 q 258 197 222 296 q 410 97 294 97 q 533 138 482 97 q 607 249 585 178 q 649 219 636 239 q 661 167 661 199 q 623 60 661 104 q 524 -8 585 15 q 396 -31 464 -31 q 127 100 207 -31 q 47 454 47 231 q 133 810 47 676 q 408 944 218 944 q 603 896 531 944 q 676 742 676 847 q 647 660 676 692 q 568 629 618 629 q 496 651 519 629 q 507 721 507 682 q 396 847 507 847 m 238 929 l 197 978 l 399 1161 l 404 1161 l 611 978 l 569 929 l 403 1031 l 238 929 z "},"Ċ":{"ha":711,"x_min":47,"x_max":676,"o":"m 47 0 m 396 847 q 256 737 290 847 q 222 461 222 626 q 258 197 222 296 q 410 97 294 97 q 533 138 482 97 q 607 249 585 178 q 649 219 636 239 q 661 167 661 199 q 623 60 661 104 q 524 -8 585 15 q 396 -31 464 -31 q 127 100 207 -31 q 47 454 47 231 q 133 810 47 676 q 408 944 218 944 q 603 896 531 944 q 676 742 676 847 q 647 660 676 692 q 568 629 618 629 q 496 651 519 629 q 507 721 507 682 q 396 847 507 847 m 401 1181 q 476 1158 447 1181 q 504 1094 504 1136 q 474 1028 504 1051 q 397 1006 444 1006 q 324 1028 351 1006 q 296 1092 296 1050 q 326 1158 296 1135 q 401 1181 356 1181 z "},"D":{"ha":783,"x_min":83,"x_max":736,"o":"m 83 911 q 372 922 247 922 q 736 481 736 922 q 339 -14 736 -14 q 83 7 222 -14 l 83 911 m 339 83 q 486 132 436 83 q 551 260 536 181 q 567 461 567 340 q 524 724 567 622 q 363 825 481 825 q 246 818 311 825 l 246 92 q 339 83 296 83 z "},"Ǳ":{"ha":1367,"x_min":83,"x_max":1361,"o":"m 83 0 m 83 911 q 372 922 247 922 q 736 481 736 922 q 339 -14 736 -14 q 83 7 222 -14 l 83 911 m 339 83 q 486 132 436 83 q 551 260 536 181 q 567 461 567 340 q 524 724 567 622 q 363 825 481 825 q 246 818 311 825 l 246 92 q 339 83 296 83 m 1339 917 l 1349 815 l 963 103 l 1361 103 l 1351 0 l 799 0 l 789 101 l 1175 814 l 814 814 l 824 917 l 1339 917 z "},"Ǆ":{"ha":1367,"x_min":83,"x_max":1361,"o":"m 83 0 m 83 911 q 372 922 247 922 q 736 481 736 922 q 339 -14 736 -14 q 83 7 222 -14 l 83 911 m 339 83 q 486 132 436 83 q 551 260 536 181 q 567 461 567 340 q 524 724 567 622 q 363 825 481 825 q 246 818 311 825 l 246 92 q 339 83 296 83 m 1339 917 l 1349 815 l 963 103 l 1361 103 l 1351 0 l 799 0 l 789 101 l 1175 814 l 814 814 l 824 917 l 1339 917 m 1242 1160 l 1282 1111 l 1081 956 l 1076 956 l 869 1111 l 910 1160 l 1076 1072 l 1242 1160 z "},"Ð":{"ha":797,"x_min":-19,"x_max":750,"o":"m 386 922 q 750 481 750 922 q 353 -14 750 -14 q 97 7 236 -14 l 97 413 l -8 413 q -19 464 -19 431 q 54 524 -19 524 l 97 524 l 97 911 q 386 922 261 922 m 353 83 q 500 132 450 83 q 565 260 550 181 q 581 461 581 340 q 538 724 581 622 q 376 825 494 825 q 260 818 325 825 l 260 524 l 444 524 q 456 472 456 506 q 382 413 456 413 l 260 413 l 260 92 q 353 83 310 83 z "},"Ď":{"ha":783,"x_min":83,"x_max":736,"o":"m 83 0 m 83 911 q 372 922 247 922 q 736 481 736 922 q 339 -14 736 -14 q 83 7 222 -14 l 83 911 m 339 83 q 486 132 436 83 q 551 260 536 181 q 567 461 567 340 q 524 724 567 622 q 363 825 481 825 q 246 818 311 825 l 246 92 q 339 83 296 83 m 536 1158 l 576 1110 l 375 954 l 371 954 l 164 1110 l 204 1158 l 371 1071 l 536 1158 z "},"Đ":{"ha":797,"x_min":-19,"x_max":750,"o":"m 386 922 q 750 481 750 922 q 353 -14 750 -14 q 97 7 236 -14 l 97 413 l -8 413 q -19 464 -19 431 q 54 524 -19 524 l 97 524 l 97 911 q 386 922 261 922 m 353 83 q 500 132 450 83 q 565 260 550 181 q 581 461 581 340 q 538 724 581 622 q 376 825 494 825 q 260 818 325 825 l 260 524 l 444 524 q 456 472 456 506 q 382 413 456 413 l 260 413 l 260 92 q 353 83 310 83 z "},"Ḍ":{"ha":783,"x_min":83,"x_max":736,"o":"m 83 0 m 83 911 q 372 922 247 922 q 736 481 736 922 q 339 -14 736 -14 q 83 7 222 -14 l 83 911 m 339 83 q 486 132 436 83 q 551 260 536 181 q 567 461 567 340 q 524 724 567 622 q 363 825 481 825 q 246 818 311 825 l 246 92 q 339 83 296 83 m 371 -75 q 445 -97 417 -75 q 474 -161 474 -119 q 444 -227 474 -204 q 367 -250 414 -250 q 293 -228 321 -250 q 265 -164 265 -206 q 295 -98 265 -121 q 371 -75 325 -75 z "},"ǲ":{"ha":1311,"x_min":83,"x_max":1297,"o":"m 83 0 m 83 911 q 372 922 247 922 q 736 481 736 922 q 339 -14 736 -14 q 83 7 222 -14 l 83 911 m 339 83 q 486 132 436 83 q 551 260 536 181 q 567 461 567 340 q 524 724 567 622 q 363 825 481 825 q 246 818 311 825 l 246 92 q 339 83 296 83 m 1278 708 l 1288 626 l 963 93 l 1297 104 l 1288 0 l 807 0 l 797 85 l 1118 614 l 810 596 l 821 708 l 1278 708 z "},"ǅ":{"ha":1311,"x_min":83,"x_max":1297,"o":"m 83 0 m 83 911 q 372 922 247 922 q 736 481 736 922 q 339 -14 736 -14 q 83 7 222 -14 l 83 911 m 339 83 q 486 132 436 83 q 551 260 536 181 q 567 461 567 340 q 524 724 567 622 q 363 825 481 825 q 246 818 311 825 l 246 92 q 339 83 296 83 m 1278 708 l 1288 626 l 963 93 l 1297 104 l 1288 0 l 807 0 l 797 85 l 1118 614 l 810 596 l 821 708 l 1278 708 m 1207 978 l 1247 929 l 1046 774 l 1042 774 l 835 929 l 875 978 l 1042 890 l 1207 978 z "},"E":{"ha":608,"x_min":83,"x_max":568,"o":"m 549 917 l 549 814 l 246 814 l 246 522 l 507 522 l 507 419 l 246 419 l 246 103 l 568 103 l 558 0 l 83 0 l 83 917 l 549 917 z "},"É":{"ha":608,"x_min":83,"x_max":568,"o":"m 83 0 m 549 917 l 549 814 l 246 814 l 246 522 l 507 522 l 507 419 l 246 419 l 246 103 l 568 103 l 558 0 l 83 0 l 83 917 l 549 917 m 504 1163 q 533 1131 522 1150 q 544 1092 544 1113 q 503 1024 544 1042 q 390 1000 461 1006 l 225 988 l 210 1046 l 504 1163 z "},"Ĕ":{"ha":608,"x_min":83,"x_max":568,"o":"m 83 0 m 549 917 l 549 814 l 246 814 l 246 522 l 507 522 l 507 419 l 246 419 l 246 103 l 568 103 l 558 0 l 83 0 l 83 917 l 549 917 m 525 1143 q 467 1002 525 1053 q 315 951 410 951 q 164 1002 221 951 q 107 1143 107 1053 l 233 1143 q 251 1056 233 1088 q 315 1024 269 1024 q 379 1056 361 1024 q 397 1143 397 1088 l 525 1143 z "},"Ě":{"ha":608,"x_min":83,"x_max":568,"o":"m 83 0 m 549 917 l 549 814 l 246 814 l 246 522 l 507 522 l 507 419 l 246 419 l 246 103 l 568 103 l 558 0 l 83 0 l 83 917 l 549 917 m 479 1158 l 519 1110 l 318 954 l 314 954 l 107 1110 l 147 1158 l 314 1071 l 479 1158 z "},"Ê":{"ha":608,"x_min":83,"x_max":568,"o":"m 83 0 m 549 917 l 549 814 l 246 814 l 246 522 l 507 522 l 507 419 l 246 419 l 246 103 l 568 103 l 558 0 l 83 0 l 83 917 l 549 917 m 154 929 l 114 978 l 315 1161 l 321 1161 l 528 978 l 486 929 l 319 1031 l 154 929 z "},"Ë":{"ha":608,"x_min":76,"x_max":568,"o":"m 76 0 m 549 917 l 549 814 l 246 814 l 246 522 l 507 522 l 507 419 l 246 419 l 246 103 l 568 103 l 558 0 l 83 0 l 83 917 l 549 917 m 458 1161 q 533 1139 504 1161 q 561 1075 561 1117 q 531 1009 561 1032 q 454 986 501 986 q 381 1008 408 986 q 353 1072 353 1031 q 383 1138 353 1115 q 458 1161 413 1161 m 182 1161 q 256 1139 228 1161 q 285 1075 285 1117 q 255 1009 285 1032 q 178 986 225 986 q 104 1008 132 986 q 76 1072 76 1031 q 106 1138 76 1115 q 182 1161 136 1161 z "},"Ė":{"ha":608,"x_min":83,"x_max":568,"o":"m 83 0 m 326 1161 q 401 1139 372 1161 q 429 1075 429 1117 q 399 1009 429 1032 q 322 986 369 986 q 249 1008 276 986 q 221 1072 221 1031 q 251 1138 221 1115 q 326 1161 281 1161 m 549 917 l 549 814 l 246 814 l 246 522 l 507 522 l 507 419 l 246 419 l 246 103 l 568 103 l 558 0 l 83 0 l 83 917 l 549 917 z "},"Ẹ":{"ha":608,"x_min":83,"x_max":568,"o":"m 83 0 m 549 917 l 549 814 l 246 814 l 246 522 l 507 522 l 507 419 l 246 419 l 246 103 l 568 103 l 558 0 l 83 0 l 83 917 l 549 917 m 286 -75 q 360 -97 332 -75 q 389 -161 389 -119 q 359 -227 389 -204 q 282 -250 329 -250 q 208 -228 236 -250 q 181 -164 181 -206 q 210 -98 181 -121 q 286 -75 240 -75 z "},"È":{"ha":608,"x_min":83,"x_max":568,"o":"m 83 0 m 549 917 l 549 814 l 246 814 l 246 522 l 507 522 l 507 419 l 246 419 l 246 103 l 568 103 l 558 0 l 83 0 l 83 917 l 549 917 m 240 1000 q 128 1024 169 1006 q 88 1092 88 1042 q 98 1131 88 1113 q 126 1163 108 1150 l 422 1046 l 407 988 l 240 1000 z "},"Ē":{"ha":608,"x_min":83,"x_max":568,"o":"m 83 0 m 510 1081 q 521 1028 521 1053 q 501 983 521 999 q 440 967 481 967 l 149 967 q 139 1017 139 989 q 158 1064 139 1047 q 210 1081 176 1081 l 510 1081 m 549 917 l 549 814 l 246 814 l 246 522 l 507 522 l 507 419 l 246 419 l 246 103 l 568 103 l 558 0 l 83 0 l 83 917 l 549 917 z "},"Ę":{"ha":608,"x_min":83,"x_max":608,"o":"m 593 -232 q 608 -267 608 -244 q 575 -324 608 -306 q 494 -342 542 -342 q 386 -304 425 -342 q 347 -199 347 -267 q 377 -90 347 -140 q 458 0 407 -39 l 83 0 l 83 917 l 549 917 l 549 814 l 246 814 l 246 522 l 507 522 l 507 419 l 246 419 l 246 103 l 568 103 l 560 15 l 561 14 l 560 13 l 558 0 l 543 0 q 475 -85 500 -37 q 450 -181 450 -132 q 467 -242 450 -222 q 528 -261 485 -261 q 593 -232 568 -261 z "},"Ẽ":{"ha":608,"x_min":83,"x_max":568,"o":"m 83 0 m 549 917 l 549 814 l 246 814 l 246 522 l 507 522 l 507 419 l 246 419 l 246 103 l 568 103 l 558 0 l 83 0 l 83 917 l 549 917 m 488 1139 q 515 1108 506 1128 q 525 1068 525 1089 q 501 1017 525 1035 q 440 1000 478 1000 q 322 1017 408 1000 q 215 1033 242 1033 q 142 1013 164 1033 q 114 1043 124 1024 q 104 1083 104 1063 q 128 1134 104 1117 q 189 1151 151 1151 q 308 1133 228 1151 q 355 1125 318 1132 q 414 1118 392 1118 q 488 1139 465 1118 z "},"F":{"ha":579,"x_min":83,"x_max":549,"o":"m 549 917 l 549 814 l 246 814 l 246 503 l 507 503 l 507 400 l 246 400 l 246 0 l 83 0 l 83 917 l 549 917 z "},"G":{"ha":758,"x_min":47,"x_max":700,"o":"m 411 847 q 261 737 300 847 q 222 461 222 626 q 261 185 222 292 q 418 78 300 78 q 538 96 483 78 l 532 421 l 683 440 l 683 26 q 556 -15 633 0 q 414 -31 478 -31 q 132 98 217 -31 q 47 454 47 226 q 137 812 47 679 q 424 944 226 944 q 624 896 547 944 q 700 742 700 847 q 671 660 700 692 q 592 629 642 629 q 519 651 546 629 q 531 721 531 682 q 500 814 531 781 q 411 847 469 847 z "},"Ğ":{"ha":758,"x_min":47,"x_max":700,"o":"m 47 0 m 411 847 q 261 737 300 847 q 222 461 222 626 q 261 185 222 292 q 418 78 300 78 q 538 96 483 78 l 532 421 l 683 440 l 683 26 q 556 -15 633 0 q 414 -31 478 -31 q 132 98 217 -31 q 47 454 47 226 q 137 812 47 679 q 424 944 226 944 q 624 896 547 944 q 700 742 700 847 q 671 660 700 692 q 592 629 642 629 q 519 651 546 629 q 531 721 531 682 q 500 814 531 781 q 411 847 469 847 m 621 1143 q 563 1002 621 1053 q 411 951 506 951 q 260 1002 317 951 q 203 1143 203 1053 l 329 1143 q 347 1056 329 1088 q 411 1024 365 1024 q 475 1056 457 1024 q 493 1143 493 1088 l 621 1143 z "},"Ĝ":{"ha":758,"x_min":47,"x_max":700,"o":"m 47 0 m 411 847 q 261 737 300 847 q 222 461 222 626 q 261 185 222 292 q 418 78 300 78 q 538 96 483 78 l 532 421 l 683 440 l 683 26 q 556 -15 633 0 q 414 -31 478 -31 q 132 98 217 -31 q 47 454 47 226 q 137 812 47 679 q 424 944 226 944 q 624 896 547 944 q 700 742 700 847 q 671 660 700 692 q 592 629 642 629 q 519 651 546 629 q 531 721 531 682 q 500 814 531 781 q 411 847 469 847 m 244 929 l 204 978 l 406 1161 l 411 1161 l 618 978 l 576 929 l 410 1031 l 244 929 z "},"Ģ":{"ha":758,"x_min":47,"x_max":700,"o":"m 47 0 m 411 847 q 261 737 300 847 q 222 461 222 626 q 261 185 222 292 q 418 78 300 78 q 538 96 483 78 l 532 421 l 683 440 l 683 26 q 556 -15 633 0 q 414 -31 478 -31 q 132 98 217 -31 q 47 454 47 226 q 137 812 47 679 q 424 944 226 944 q 624 896 547 944 q 700 742 700 847 q 671 660 700 692 q 592 629 642 629 q 519 651 546 629 q 531 721 531 682 q 500 814 531 781 q 411 847 469 847 m 442 -69 q 515 -97 490 -69 q 539 -172 539 -124 q 520 -247 539 -210 q 469 -306 501 -283 q 399 -329 436 -329 q 351 -321 376 -329 q 397 -176 397 -254 q 391 -128 397 -149 q 371 -86 385 -108 q 442 -69 401 -69 z "},"Ġ":{"ha":758,"x_min":47,"x_max":700,"o":"m 47 0 m 411 847 q 261 737 300 847 q 222 461 222 626 q 261 185 222 292 q 418 78 300 78 q 538 96 483 78 l 532 421 l 683 440 l 683 26 q 556 -15 633 0 q 414 -31 478 -31 q 132 98 217 -31 q 47 454 47 226 q 137 812 47 679 q 424 944 226 944 q 624 896 547 944 q 700 742 700 847 q 671 660 700 692 q 592 629 642 629 q 519 651 546 629 q 531 721 531 682 q 500 814 531 781 q 411 847 469 847 m 408 1181 q 483 1158 454 1181 q 511 1094 511 1136 q 481 1028 511 1051 q 404 1006 451 1006 q 331 1028 358 1006 q 303 1092 303 1050 q 333 1158 303 1135 q 408 1181 363 1181 z "},"H":{"ha":803,"x_min":83,"x_max":719,"o":"m 719 917 l 719 0 l 557 0 l 557 413 l 246 413 l 246 0 l 83 0 l 83 917 l 246 917 l 246 515 l 557 515 l 557 917 l 719 917 z "},"Ħ":{"ha":817,"x_min":-6,"x_max":825,"o":"m 813 722 q 825 674 825 694 q 749 621 825 621 l 726 621 l 726 0 l 564 0 l 564 413 l 253 413 l 253 0 l 90 0 l 90 621 l 6 621 q -6 668 -6 646 q 61 722 -6 722 l 90 722 l 90 917 l 253 917 l 253 722 l 564 722 l 564 917 l 726 917 l 726 722 l 813 722 m 564 515 l 564 621 l 253 621 l 253 515 l 564 515 z "},"Ĥ":{"ha":803,"x_min":83,"x_max":719,"o":"m 83 0 m 719 917 l 719 0 l 557 0 l 557 413 l 246 413 l 246 0 l 83 0 l 83 917 l 246 917 l 246 515 l 557 515 l 557 917 l 719 917 m 239 929 l 199 978 l 400 1161 l 406 1161 l 613 978 l 571 929 l 404 1031 l 239 929 z "},"Ḥ":{"ha":803,"x_min":83,"x_max":719,"o":"m 83 0 m 719 917 l 719 0 l 557 0 l 557 413 l 246 413 l 246 0 l 83 0 l 83 917 l 246 917 l 246 515 l 557 515 l 557 917 l 719 917 m 417 -75 q 491 -97 463 -75 q 519 -161 519 -119 q 490 -227 519 -204 q 413 -250 460 -250 q 339 -228 367 -250 q 311 -164 311 -206 q 341 -98 311 -121 q 417 -75 371 -75 z "},"I":{"ha":329,"x_min":83,"x_max":246,"o":"m 246 917 l 246 0 l 83 0 l 83 917 l 246 917 z "},"Ĳ":{"ha":658,"x_min":83,"x_max":575,"o":"m 83 0 m 246 917 l 246 0 l 83 0 l 83 917 l 246 917 m 575 132 q 534 -124 575 -25 q 379 -222 493 -222 q 308 -206 339 -222 q 276 -157 276 -189 q 385 -92 357 -157 q 413 82 413 -26 l 413 917 l 575 917 l 575 132 z "},"Í":{"ha":329,"x_min":58,"x_max":393,"o":"m 58 0 m 246 917 l 246 0 l 83 0 l 83 917 l 246 917 m 353 1163 q 382 1131 371 1150 q 393 1092 393 1113 q 351 1024 393 1042 q 239 1000 310 1006 l 74 988 l 58 1046 l 353 1163 z "},"Ĭ":{"ha":329,"x_min":-44,"x_max":374,"o":"m 0 0 m 246 917 l 246 0 l 83 0 l 83 917 l 246 917 m 374 1143 q 316 1002 374 1053 q 164 951 258 951 q 13 1002 69 951 q -44 1143 -44 1053 l 82 1143 q 100 1056 82 1088 q 164 1024 118 1024 q 228 1056 210 1024 q 246 1143 246 1088 l 374 1143 z "},"Î":{"ha":329,"x_min":-40,"x_max":374,"o":"m 0 0 m 246 917 l 246 0 l 83 0 l 83 917 l 246 917 m 0 929 l -40 978 l 161 1161 l 167 1161 l 374 978 l 332 929 l 165 1031 l 0 929 z "},"Ï":{"ha":329,"x_min":-78,"x_max":407,"o":"m 0 0 m 246 917 l 246 0 l 83 0 l 83 917 l 246 917 m 304 1161 q 378 1139 350 1161 q 407 1075 407 1117 q 377 1009 407 1032 q 300 986 347 986 q 226 1008 254 986 q 199 1072 199 1031 q 228 1138 199 1115 q 304 1161 258 1161 m 28 1161 q 102 1139 74 1161 q 131 1075 131 1117 q 101 1009 131 1032 q 24 986 71 986 q -50 1008 -22 986 q -78 1072 -78 1031 q -48 1138 -78 1115 q 28 1161 -18 1161 z "},"İ":{"ha":329,"x_min":58,"x_max":267,"o":"m 58 0 m 246 917 l 246 0 l 83 0 l 83 917 l 246 917 m 164 1181 q 238 1158 210 1181 q 267 1094 267 1136 q 237 1028 267 1051 q 160 1006 207 1006 q 86 1028 114 1006 q 58 1092 58 1050 q 88 1158 58 1135 q 164 1181 118 1181 z "},"Ị":{"ha":329,"x_min":56,"x_max":264,"o":"m 56 0 m 246 917 l 246 0 l 83 0 l 83 917 l 246 917 m 161 -75 q 235 -97 207 -75 q 264 -161 264 -119 q 234 -227 264 -204 q 157 -250 204 -250 q 83 -228 111 -250 q 56 -164 56 -206 q 85 -98 56 -121 q 161 -75 115 -75 z "},"Ì":{"ha":329,"x_min":-64,"x_max":271,"o":"m 0 0 m 246 917 l 246 0 l 83 0 l 83 917 l 246 917 m 89 1000 q -23 1024 18 1006 q -64 1092 -64 1042 q -53 1131 -64 1113 q -25 1163 -43 1150 l 271 1046 l 256 988 l 89 1000 z "},"Ī":{"ha":329,"x_min":-26,"x_max":356,"o":"m 0 0 m 246 917 l 246 0 l 83 0 l 83 917 l 246 917 m 344 1144 q 356 1092 356 1117 q 335 1047 356 1063 q 275 1031 315 1031 l -17 1031 q -26 1081 -26 1053 q -8 1128 -26 1111 q 44 1144 11 1144 l 344 1144 z "},"Į":{"ha":329,"x_min":43,"x_max":304,"o":"m 289 -232 q 304 -267 304 -244 q 271 -324 304 -306 q 190 -342 238 -342 q 82 -304 121 -342 q 43 -199 43 -267 q 73 -90 43 -140 q 154 0 103 -39 l 83 0 l 83 917 l 246 917 l 246 22 l 257 14 l 246 6 l 246 0 l 239 0 q 171 -85 196 -37 q 146 -181 146 -132 q 163 -242 146 -222 q 224 -261 181 -261 q 289 -232 264 -261 z "},"Ĩ":{"ha":329,"x_min":-47,"x_max":374,"o":"m 0 0 m 246 917 l 246 0 l 83 0 l 83 917 l 246 917 m 336 1139 q 364 1108 354 1128 q 374 1068 374 1089 q 350 1017 374 1035 q 289 1000 326 1000 q 171 1017 257 1000 q 64 1033 90 1033 q -10 1013 13 1033 q -37 1043 -28 1024 q -47 1083 -47 1063 q -24 1134 -47 1117 q 38 1151 0 1151 q 157 1133 76 1151 q 203 1125 167 1132 q 263 1118 240 1118 q 336 1139 314 1118 z "},"J":{"ha":329,"x_min":-53,"x_max":246,"o":"m 246 132 q 205 -124 246 -25 q 50 -222 164 -222 q -22 -206 10 -222 q -53 -157 -53 -189 q 56 -92 28 -157 q 83 82 83 -26 l 83 917 l 246 917 l 246 132 z "},"Ĵ":{"ha":329,"x_min":-53,"x_max":374,"o":"m 0 0 m 246 132 q 205 -124 246 -25 q 50 -222 164 -222 q -22 -206 10 -222 q -53 -157 -53 -189 q 56 -92 28 -157 q 83 82 83 -26 l 83 917 l 246 917 l 246 132 m 0 929 l -40 978 l 161 1161 l 167 1161 l 374 978 l 332 929 l 165 1031 l 0 929 z "},"K":{"ha":688,"x_min":83,"x_max":717,"o":"m 246 0 l 83 0 l 83 917 l 246 917 l 246 0 m 529 917 l 697 917 l 431 490 l 717 0 l 539 0 l 275 464 l 529 917 z "},"Ķ":{"ha":688,"x_min":83,"x_max":717,"o":"m 83 0 m 246 0 l 83 0 l 83 917 l 246 917 l 246 0 m 529 917 l 697 917 l 431 490 l 717 0 l 539 0 l 275 464 l 529 917 m 392 -69 q 465 -97 440 -69 q 489 -172 489 -124 q 470 -247 489 -210 q 419 -306 451 -283 q 349 -329 386 -329 q 301 -321 326 -329 q 347 -176 347 -254 q 341 -128 347 -149 q 321 -86 335 -108 q 392 -69 351 -69 z "},"L":{"ha":556,"x_min":83,"x_max":549,"o":"m 83 917 l 246 917 l 246 103 l 549 103 l 539 0 l 83 0 l 83 917 z "},"Ǉ":{"ha":885,"x_min":83,"x_max":801,"o":"m 83 0 m 83 917 l 246 917 l 246 103 l 549 103 l 539 0 l 83 0 l 83 917 m 801 132 q 760 -124 801 -25 q 606 -222 719 -222 q 534 -206 565 -222 q 503 -157 503 -189 q 611 -92 583 -157 q 639 82 639 -26 l 639 917 l 801 917 l 801 132 z "},"Ĺ":{"ha":556,"x_min":60,"x_max":549,"o":"m 60 0 m 83 917 l 246 917 l 246 103 l 549 103 l 539 0 l 83 0 l 83 917 m 354 1163 q 383 1131 372 1150 q 394 1092 394 1113 q 353 1024 394 1042 q 240 1000 311 1006 l 75 988 l 60 1046 l 354 1163 z "},"Ľ":{"ha":556,"x_min":83,"x_max":549,"o":"m 83 0 m 83 917 l 246 917 l 246 103 l 549 103 l 539 0 l 83 0 l 83 917 m 339 983 q 403 1000 367 1000 q 497 892 497 1000 q 479 821 497 856 q 431 764 461 786 q 367 742 401 742 q 321 750 342 742 q 365 889 365 817 q 339 983 365 939 z "},"Ļ":{"ha":556,"x_min":83,"x_max":549,"o":"m 83 0 m 83 917 l 246 917 l 246 103 l 549 103 l 539 0 l 83 0 l 83 917 m 313 -69 q 385 -97 361 -69 q 410 -172 410 -124 q 391 -247 410 -210 q 340 -306 372 -283 q 269 -329 307 -329 q 222 -321 247 -329 q 268 -176 268 -254 q 262 -128 268 -149 q 242 -86 256 -108 q 313 -69 272 -69 z "},"Ŀ":{"ha":556,"x_min":83,"x_max":549,"o":"m 83 917 l 246 917 l 246 103 l 549 103 l 539 0 l 83 0 l 83 917 m 426 564 q 483 542 460 564 q 507 485 507 521 q 482 425 507 447 q 422 403 457 403 q 365 424 389 403 q 342 482 342 446 q 367 542 342 519 q 426 564 392 564 z "},"ǈ":{"ha":556,"x_min":-50,"x_max":549,"o":"m 161 1006 q 88 1028 115 1006 q 60 1092 60 1050 q 90 1158 60 1135 q 165 1181 119 1181 q 240 1158 211 1181 q 268 1094 268 1136 q 238 1028 268 1051 q 161 1006 208 1006 m 539 0 l 201 0 q 47 -97 153 -97 q -21 -82 8 -97 q -50 -36 -50 -67 q 83 117 64 -36 l 83 917 l 246 917 l 246 103 l 549 103 l 539 0 z "},"Ł":{"ha":611,"x_min":-21,"x_max":604,"o":"m 15 325 q -21 393 -21 358 q 19 450 -21 433 l 139 497 l 139 917 l 301 917 l 301 561 l 474 631 q 510 563 510 597 q 469 506 510 522 l 301 439 l 301 103 l 604 103 l 594 0 l 139 0 l 139 374 l 15 325 z "},"M":{"ha":1013,"x_min":83,"x_max":929,"o":"m 929 917 l 929 0 l 767 0 l 767 765 l 544 0 l 436 0 l 214 768 l 214 0 l 83 0 l 83 917 l 328 917 l 513 257 l 696 917 l 929 917 z "},"N":{"ha":789,"x_min":83,"x_max":706,"o":"m 582 0 l 214 628 l 214 0 l 83 0 l 83 917 l 207 917 l 575 289 l 575 917 l 706 917 l 706 0 l 582 0 z "},"Ǌ":{"ha":1118,"x_min":83,"x_max":1035,"o":"m 83 0 m 582 0 l 214 628 l 214 0 l 83 0 l 83 917 l 207 917 l 575 289 l 575 917 l 706 917 l 706 0 l 582 0 m 1035 132 q 994 -124 1035 -25 q 839 -222 953 -222 q 767 -206 799 -222 q 736 -157 736 -189 q 844 -92 817 -157 q 872 82 872 -26 l 872 917 l 1035 917 l 1035 132 z "},"Ń":{"ha":789,"x_min":83,"x_max":706,"o":"m 83 0 m 582 0 l 214 628 l 214 0 l 83 0 l 83 917 l 207 917 l 575 289 l 575 917 l 706 917 l 706 0 l 582 0 m 582 1163 q 611 1131 600 1150 q 622 1092 622 1113 q 581 1024 622 1042 q 468 1000 539 1006 l 303 988 l 288 1046 l 582 1163 z "},"Ň":{"ha":789,"x_min":83,"x_max":706,"o":"m 83 0 m 582 0 l 214 628 l 214 0 l 83 0 l 83 917 l 207 917 l 575 289 l 575 917 l 706 917 l 706 0 l 582 0 m 557 1158 l 597 1110 l 396 954 l 392 954 l 185 1110 l 225 1158 l 392 1071 l 557 1158 z "},"Ņ":{"ha":789,"x_min":83,"x_max":706,"o":"m 83 0 m 582 0 l 214 628 l 214 0 l 83 0 l 83 917 l 207 917 l 575 289 l 575 917 l 706 917 l 706 0 l 582 0 m 393 -69 q 466 -97 442 -69 q 490 -172 490 -124 q 472 -247 490 -210 q 420 -306 453 -283 q 350 -329 388 -329 q 303 -321 328 -329 q 349 -176 349 -254 q 342 -128 349 -149 q 322 -86 336 -108 q 393 -69 353 -69 z "},"Ṅ":{"ha":789,"x_min":83,"x_max":706,"o":"m 83 0 m 582 0 l 214 628 l 214 0 l 83 0 l 83 917 l 207 917 l 575 289 l 575 917 l 706 917 l 706 0 l 582 0 m 396 1181 q 470 1158 442 1181 q 499 1094 499 1136 q 469 1028 499 1051 q 392 1006 439 1006 q 318 1028 346 1006 q 290 1092 290 1050 q 320 1158 290 1135 q 396 1181 350 1181 z "},"Ŋ":{"ha":789,"x_min":83,"x_max":706,"o":"m 706 917 l 706 54 q 673 -146 706 -69 q 549 -222 640 -222 q 492 -210 517 -222 q 468 -172 468 -197 q 585 0 579 -171 l 582 0 l 214 615 l 214 0 l 83 0 l 83 917 l 207 917 l 575 301 l 575 917 l 706 917 z "},"ǋ":{"ha":789,"x_min":83,"x_max":706,"o":"m 392 1006 q 318 1028 346 1006 q 290 1092 290 1050 q 320 1158 290 1135 q 396 1181 350 1181 q 470 1158 442 1181 q 499 1094 499 1136 q 469 1028 499 1051 q 392 1006 439 1006 m 706 917 l 706 0 l 582 0 l 471 189 q 278 -97 460 -97 q 210 -82 239 -97 q 181 -36 181 -67 q 288 26 258 -36 q 318 190 318 89 l 318 450 l 214 628 l 214 0 l 83 0 l 83 917 l 207 917 l 318 728 l 318 889 l 472 889 l 472 464 l 575 289 l 575 917 l 706 917 z "},"Ñ":{"ha":789,"x_min":83,"x_max":706,"o":"m 83 0 m 582 0 l 214 628 l 214 0 l 83 0 l 83 917 l 207 917 l 575 289 l 575 917 l 706 917 l 706 0 l 582 0 m 565 1139 q 593 1108 583 1128 q 603 1068 603 1089 q 579 1017 603 1035 q 518 1000 556 1000 q 400 1017 486 1000 q 293 1033 319 1033 q 219 1013 242 1033 q 192 1043 201 1024 q 182 1083 182 1063 q 206 1134 182 1117 q 267 1151 229 1151 q 386 1133 306 1151 q 433 1125 396 1132 q 492 1118 469 1118 q 565 1139 543 1118 z "},"O":{"ha":807,"x_min":47,"x_max":760,"o":"m 404 944 q 760 471 760 944 q 404 -31 760 -31 q 128 99 210 -31 q 47 454 47 228 q 131 810 47 676 q 404 944 215 944 m 404 67 q 550 177 515 67 q 585 461 585 288 q 549 737 585 626 q 404 847 513 847 q 258 737 294 847 q 222 461 222 626 q 257 177 222 288 q 404 67 292 67 z "},"Ó":{"ha":807,"x_min":47,"x_max":760,"o":"m 47 0 m 404 944 q 760 471 760 944 q 404 -31 760 -31 q 128 99 210 -31 q 47 454 47 228 q 131 810 47 676 q 404 944 215 944 m 404 67 q 550 177 515 67 q 585 461 585 288 q 549 737 585 626 q 404 847 513 847 q 258 737 294 847 q 222 461 222 626 q 257 177 222 288 q 404 67 292 67 m 593 1163 q 622 1131 611 1150 q 633 1092 633 1113 q 592 1024 633 1042 q 479 1000 550 1006 l 314 988 l 299 1046 l 593 1163 z "},"Ŏ":{"ha":807,"x_min":47,"x_max":760,"o":"m 47 0 m 404 944 q 760 471 760 944 q 404 -31 760 -31 q 128 99 210 -31 q 47 454 47 228 q 131 810 47 676 q 404 944 215 944 m 404 67 q 550 177 515 67 q 585 461 585 288 q 549 737 585 626 q 404 847 513 847 q 258 737 294 847 q 222 461 222 626 q 257 177 222 288 q 404 67 292 67 m 614 1143 q 556 1002 614 1053 q 404 951 499 951 q 253 1002 310 951 q 196 1143 196 1053 l 322 1143 q 340 1056 322 1088 q 404 1024 358 1024 q 468 1056 450 1024 q 486 1143 486 1088 l 614 1143 z "},"Ô":{"ha":807,"x_min":47,"x_max":760,"o":"m 47 0 m 404 944 q 760 471 760 944 q 404 -31 760 -31 q 128 99 210 -31 q 47 454 47 228 q 131 810 47 676 q 404 944 215 944 m 404 67 q 550 177 515 67 q 585 461 585 288 q 549 737 585 626 q 404 847 513 847 q 258 737 294 847 q 222 461 222 626 q 257 177 222 288 q 404 67 292 67 m 240 929 l 200 978 l 401 1161 l 407 1161 l 614 978 l 572 929 l 406 1031 l 240 929 z "},"Ö":{"ha":807,"x_min":47,"x_max":760,"o":"m 47 0 m 404 944 q 760 471 760 944 q 404 -31 760 -31 q 128 99 210 -31 q 47 454 47 228 q 131 810 47 676 q 404 944 215 944 m 404 67 q 550 177 515 67 q 585 461 585 288 q 549 737 585 626 q 404 847 513 847 q 258 737 294 847 q 222 461 222 626 q 257 177 222 288 q 404 67 292 67 m 544 1161 q 619 1139 590 1161 q 647 1075 647 1117 q 617 1009 647 1032 q 540 986 588 986 q 467 1008 494 986 q 439 1072 439 1031 q 469 1138 439 1115 q 544 1161 499 1161 m 268 1161 q 342 1139 314 1161 q 371 1075 371 1117 q 341 1009 371 1032 q 264 986 311 986 q 190 1008 218 986 q 163 1072 163 1031 q 192 1138 163 1115 q 268 1161 222 1161 z "},"Ọ":{"ha":807,"x_min":47,"x_max":760,"o":"m 47 0 m 404 944 q 760 471 760 944 q 404 -31 760 -31 q 128 99 210 -31 q 47 454 47 228 q 131 810 47 676 q 404 944 215 944 m 404 67 q 550 177 515 67 q 585 461 585 288 q 549 737 585 626 q 404 847 513 847 q 258 737 294 847 q 222 461 222 626 q 257 177 222 288 q 404 67 292 67 m 404 -75 q 478 -97 450 -75 q 507 -161 507 -119 q 477 -227 507 -204 q 400 -250 447 -250 q 326 -228 354 -250 q 299 -164 299 -206 q 328 -98 299 -121 q 404 -75 358 -75 z "},"Ò":{"ha":807,"x_min":47,"x_max":760,"o":"m 47 0 m 404 944 q 760 471 760 944 q 404 -31 760 -31 q 128 99 210 -31 q 47 454 47 228 q 131 810 47 676 q 404 944 215 944 m 404 67 q 550 177 515 67 q 585 461 585 288 q 549 737 585 626 q 404 847 513 847 q 258 737 294 847 q 222 461 222 626 q 257 177 222 288 q 404 67 292 67 m 329 1000 q 217 1024 258 1006 q 176 1092 176 1042 q 187 1131 176 1113 q 215 1163 197 1150 l 511 1046 l 496 988 l 329 1000 z "},"Ő":{"ha":807,"x_min":47,"x_max":760,"o":"m 47 0 m 404 944 q 760 471 760 944 q 404 -31 760 -31 q 128 99 210 -31 q 47 454 47 228 q 131 810 47 676 q 404 944 215 944 m 404 67 q 550 177 515 67 q 585 461 585 288 q 549 737 585 626 q 404 847 513 847 q 258 737 294 847 q 222 461 222 626 q 257 177 222 288 q 404 67 292 67 m 436 1179 q 474 1153 460 1169 q 488 1115 488 1136 q 453 1062 488 1083 q 351 1014 418 1040 l 247 976 l 221 1031 l 436 1179 m 696 1179 q 733 1153 719 1169 q 747 1115 747 1136 q 713 1062 747 1083 q 613 1014 678 1040 l 507 976 l 481 1031 l 696 1179 z "},"Ō":{"ha":807,"x_min":47,"x_max":760,"o":"m 47 0 m 404 944 q 760 471 760 944 q 404 -31 760 -31 q 128 99 210 -31 q 47 454 47 228 q 131 810 47 676 q 404 944 215 944 m 404 67 q 550 177 515 67 q 585 461 585 288 q 549 737 585 626 q 404 847 513 847 q 258 737 294 847 q 222 461 222 626 q 257 177 222 288 q 404 67 292 67 m 585 1144 q 596 1092 596 1117 q 576 1047 596 1063 q 515 1031 556 1031 l 224 1031 q 214 1081 214 1053 q 233 1128 214 1111 q 285 1144 251 1144 l 585 1144 z "},"Ǫ":{"ha":807,"x_min":47,"x_max":760,"o":"m 760 471 q 560 0 760 93 q 479 -89 510 -37 q 449 -194 449 -140 q 466 -256 449 -236 q 526 -275 483 -275 q 592 -246 567 -275 q 607 -281 607 -258 q 574 -337 607 -319 q 493 -356 540 -356 q 385 -318 424 -356 q 346 -212 346 -281 q 371 -113 346 -160 q 439 -29 396 -67 q 404 -31 428 -31 q 128 99 210 -31 q 47 454 47 228 q 131 810 47 676 q 404 944 215 944 q 760 471 760 944 m 404 67 q 550 177 515 67 q 585 461 585 288 q 549 737 585 626 q 404 847 513 847 q 258 737 294 847 q 222 461 222 626 q 257 177 222 288 q 404 67 292 67 z "},"Ø":{"ha":807,"x_min":19,"x_max":799,"o":"m 799 932 q 778 883 799 913 l 701 776 q 760 471 760 661 q 404 -31 760 -31 q 178 43 263 -31 l 94 -74 q 47 -54 74 -69 q 19 -15 19 -39 q 40 33 19 4 l 110 131 q 47 454 47 246 q 131 810 47 676 q 404 944 215 944 q 635 865 549 944 l 724 990 q 772 971 744 986 q 799 932 799 956 m 222 461 q 229 299 222 367 l 546 742 q 404 847 501 847 q 258 737 294 847 q 222 461 222 626 m 585 461 q 578 604 585 543 l 264 164 q 404 67 308 67 q 550 177 515 67 q 585 461 585 288 z "},"Ǿ":{"ha":807,"x_min":19,"x_max":799,"o":"m 19 0 m 799 932 q 778 883 799 913 l 701 776 q 760 471 760 661 q 404 -31 760 -31 q 178 43 263 -31 l 94 -74 q 47 -54 74 -69 q 19 -15 19 -39 q 40 33 19 4 l 110 131 q 47 454 47 246 q 131 810 47 676 q 404 944 215 944 q 635 865 549 944 l 724 990 q 772 971 744 986 q 799 932 799 956 m 222 461 q 229 299 222 367 l 546 742 q 404 847 501 847 q 258 737 294 847 q 222 461 222 626 m 585 461 q 578 604 585 543 l 264 164 q 404 67 308 67 q 550 177 515 67 q 585 461 585 288 m 593 1163 q 622 1131 611 1150 q 633 1092 633 1113 q 592 1024 633 1042 q 479 1000 550 1006 l 314 988 l 299 1046 l 593 1163 z "},"Õ":{"ha":807,"x_min":47,"x_max":760,"o":"m 47 0 m 404 944 q 760 471 760 944 q 404 -31 760 -31 q 128 99 210 -31 q 47 454 47 228 q 131 810 47 676 q 404 944 215 944 m 404 67 q 550 177 515 67 q 585 461 585 288 q 549 737 585 626 q 404 847 513 847 q 258 737 294 847 q 222 461 222 626 q 257 177 222 288 q 404 67 292 67 m 576 1139 q 604 1108 594 1128 q 614 1068 614 1089 q 590 1017 614 1035 q 529 1000 567 1000 q 411 1017 497 1000 q 304 1033 331 1033 q 231 1013 253 1033 q 203 1043 213 1024 q 193 1083 193 1063 q 217 1134 193 1117 q 278 1151 240 1151 q 397 1133 317 1151 q 444 1125 407 1132 q 503 1118 481 1118 q 576 1139 554 1118 z "},"Œ":{"ha":1053,"x_min":47,"x_max":1011,"o":"m 1001 0 l 558 0 q 404 -31 490 -31 q 128 99 210 -31 q 47 454 47 228 q 131 810 47 676 q 404 944 215 944 q 554 917 490 944 l 992 917 l 992 814 l 717 814 l 717 522 l 950 522 l 950 419 l 717 419 l 717 103 l 1011 103 l 1001 0 m 404 67 q 554 135 486 67 l 554 778 q 404 847 485 847 q 258 737 294 847 q 222 461 222 626 q 257 177 222 288 q 404 67 292 67 z "},"P":{"ha":688,"x_min":83,"x_max":674,"o":"m 674 658 q 603 463 674 538 q 413 389 532 389 q 335 403 368 389 q 301 453 301 418 q 457 501 407 453 q 507 653 507 550 q 465 783 507 740 q 335 825 422 825 q 246 818 292 825 l 246 0 l 83 0 l 83 911 q 344 922 247 922 q 588 860 503 922 q 674 658 674 799 z "},"Þ":{"ha":688,"x_min":83,"x_max":674,"o":"m 246 744 q 344 747 313 747 q 588 685 503 747 q 674 483 674 624 q 603 288 674 363 q 413 214 532 214 q 335 228 368 214 q 301 278 301 243 q 457 326 407 278 q 507 478 507 375 q 465 608 507 565 q 335 650 422 650 q 246 643 292 650 l 246 0 l 83 0 l 83 917 l 246 917 l 246 744 z "},"Q":{"ha":807,"x_min":47,"x_max":781,"o":"m 404 944 q 760 471 760 944 q 404 -31 760 -31 q 639 -62 546 -62 q 700 -56 674 -62 q 749 -32 726 -50 q 781 -112 781 -76 q 751 -178 781 -157 q 671 -199 721 -199 q 578 -187 625 -199 q 471 -154 532 -175 q 377 -126 415 -136 q 304 -117 339 -117 q 228 -128 253 -117 q 213 -105 218 -118 q 207 -79 207 -92 q 297 -18 207 -18 q 105 138 163 15 q 47 454 47 261 q 131 810 47 676 q 404 944 215 944 m 404 847 q 258 737 294 847 q 222 461 222 626 q 257 177 222 288 q 404 67 292 67 q 550 177 515 67 q 585 461 585 288 q 549 737 585 626 q 404 847 513 847 z "},"R":{"ha":738,"x_min":83,"x_max":736,"o":"m 674 665 q 626 504 674 571 q 494 414 578 438 l 736 0 l 558 0 l 311 439 q 303 467 303 454 q 457 513 407 467 q 507 660 507 560 q 465 784 507 743 q 335 825 422 825 q 246 818 292 825 l 246 0 l 83 0 l 83 911 q 344 922 247 922 q 674 665 674 922 z "},"Ŕ":{"ha":738,"x_min":83,"x_max":736,"o":"m 83 0 m 674 665 q 626 504 674 571 q 494 414 578 438 l 736 0 l 558 0 l 311 439 q 303 467 303 454 q 457 513 407 467 q 507 660 507 560 q 465 784 507 743 q 335 825 422 825 q 246 818 292 825 l 246 0 l 83 0 l 83 911 q 344 922 247 922 q 674 665 674 922 m 533 1163 q 563 1131 551 1150 q 574 1092 574 1113 q 532 1024 574 1042 q 419 1000 490 1006 l 254 988 l 239 1046 l 533 1163 z "},"Ř":{"ha":738,"x_min":83,"x_max":736,"o":"m 83 0 m 674 665 q 626 504 674 571 q 494 414 578 438 l 736 0 l 558 0 l 311 439 q 303 467 303 454 q 457 513 407 467 q 507 660 507 560 q 465 784 507 743 q 335 825 422 825 q 246 818 292 825 l 246 0 l 83 0 l 83 911 q 344 922 247 922 q 674 665 674 922 m 508 1158 l 549 1110 l 347 954 l 343 954 l 136 1110 l 176 1158 l 343 1071 l 508 1158 z "},"Ŗ":{"ha":738,"x_min":83,"x_max":736,"o":"m 83 0 m 674 665 q 626 504 674 571 q 494 414 578 438 l 736 0 l 558 0 l 311 439 q 303 467 303 454 q 457 513 407 467 q 507 660 507 560 q 465 784 507 743 q 335 825 422 825 q 246 818 292 825 l 246 0 l 83 0 l 83 911 q 344 922 247 922 q 674 665 674 922 m 403 -69 q 476 -97 451 -69 q 500 -172 500 -124 q 481 -247 500 -210 q 430 -306 463 -283 q 360 -329 397 -329 q 313 -321 338 -329 q 358 -176 358 -254 q 352 -128 358 -149 q 332 -86 346 -108 q 403 -69 363 -69 z "},"Ṛ":{"ha":738,"x_min":83,"x_max":736,"o":"m 83 0 m 674 665 q 626 504 674 571 q 494 414 578 438 l 736 0 l 558 0 l 311 439 q 303 467 303 454 q 457 513 407 467 q 507 660 507 560 q 465 784 507 743 q 335 825 422 825 q 246 818 292 825 l 246 0 l 83 0 l 83 911 q 344 922 247 922 q 674 665 674 922 m 403 -75 q 477 -97 449 -75 q 506 -161 506 -119 q 476 -227 506 -204 q 399 -250 446 -250 q 325 -228 353 -250 q 297 -164 297 -206 q 327 -98 297 -121 q 403 -75 357 -75 z "},"S":{"ha":656,"x_min":28,"x_max":614,"o":"m 339 944 q 531 899 458 944 q 604 751 604 853 q 575 670 604 701 q 496 639 546 639 q 424 661 447 639 q 435 731 435 692 q 326 853 435 853 q 244 827 274 853 q 214 751 214 801 q 238 668 214 706 q 297 601 261 631 q 393 531 332 572 q 509 444 465 482 q 583 352 553 406 q 614 229 614 299 q 529 38 614 106 q 310 -31 444 -31 q 108 19 188 -31 q 28 172 28 68 q 57 253 28 222 q 135 285 86 285 q 207 263 183 285 q 197 193 197 235 q 322 61 197 61 q 422 95 383 61 q 461 188 461 129 q 438 271 461 233 q 378 338 414 308 q 282 408 343 367 q 166 495 210 457 q 92 587 122 533 q 61 710 61 640 q 140 883 61 821 q 339 944 218 944 z "},"Ś":{"ha":656,"x_min":28,"x_max":614,"o":"m 28 0 m 339 944 q 531 899 458 944 q 604 751 604 853 q 575 670 604 701 q 496 639 546 639 q 424 661 447 639 q 435 731 435 692 q 326 853 435 853 q 244 827 274 853 q 214 751 214 801 q 238 668 214 706 q 297 601 261 631 q 393 531 332 572 q 509 444 465 482 q 583 352 553 406 q 614 229 614 299 q 529 38 614 106 q 310 -31 444 -31 q 108 19 188 -31 q 28 172 28 68 q 57 253 28 222 q 135 285 86 285 q 207 263 183 285 q 197 193 197 235 q 322 61 197 61 q 422 95 383 61 q 461 188 461 129 q 438 271 461 233 q 378 338 414 308 q 282 408 343 367 q 166 495 210 457 q 92 587 122 533 q 61 710 61 640 q 140 883 61 821 q 339 944 218 944 m 515 1161 q 544 1130 533 1149 q 556 1090 556 1111 q 514 1022 556 1040 q 401 999 472 1004 l 236 986 l 221 1044 l 515 1161 z "},"Š":{"ha":656,"x_min":28,"x_max":614,"o":"m 28 0 m 339 944 q 531 899 458 944 q 604 751 604 853 q 575 670 604 701 q 496 639 546 639 q 424 661 447 639 q 435 731 435 692 q 326 853 435 853 q 244 827 274 853 q 214 751 214 801 q 238 668 214 706 q 297 601 261 631 q 393 531 332 572 q 509 444 465 482 q 583 352 553 406 q 614 229 614 299 q 529 38 614 106 q 310 -31 444 -31 q 108 19 188 -31 q 28 172 28 68 q 57 253 28 222 q 135 285 86 285 q 207 263 183 285 q 197 193 197 235 q 322 61 197 61 q 422 95 383 61 q 461 188 461 129 q 438 271 461 233 q 378 338 414 308 q 282 408 343 367 q 166 495 210 457 q 92 587 122 533 q 61 710 61 640 q 140 883 61 821 q 339 944 218 944 m 490 1157 l 531 1108 l 329 953 l 325 953 l 118 1108 l 158 1157 l 325 1069 l 490 1157 z "},"Ş":{"ha":656,"x_min":28,"x_max":614,"o":"m 614 229 q 530 38 614 106 q 313 -31 446 -29 l 290 -90 q 329 -89 303 -89 q 442 -120 400 -89 q 483 -214 483 -151 q 429 -313 483 -275 q 301 -351 375 -351 q 210 -333 250 -351 q 169 -274 169 -314 q 183 -239 169 -251 q 281 -278 218 -278 q 345 -263 319 -278 q 371 -218 371 -249 q 340 -168 371 -182 q 258 -154 310 -154 q 200 -158 228 -154 l 249 -28 q 88 33 149 -17 q 28 172 28 82 q 57 253 28 222 q 135 285 86 285 q 207 263 183 285 q 197 193 197 235 q 322 61 197 61 q 422 95 383 61 q 461 188 461 129 q 438 271 461 233 q 378 338 414 308 q 282 408 343 367 q 166 495 210 457 q 92 587 122 533 q 61 710 61 640 q 140 883 61 821 q 339 944 218 944 q 531 899 458 944 q 604 751 604 853 q 575 670 604 701 q 496 639 546 639 q 424 661 447 639 q 435 731 435 692 q 326 853 435 853 q 244 827 274 853 q 214 751 214 801 q 238 668 214 706 q 297 601 261 631 q 393 531 332 572 q 509 444 465 482 q 583 352 553 406 q 614 229 614 299 z "},"Ŝ":{"ha":656,"x_min":28,"x_max":614,"o":"m 28 0 m 339 944 q 531 899 458 944 q 604 751 604 853 q 575 670 604 701 q 496 639 546 639 q 424 661 447 639 q 435 731 435 692 q 326 853 435 853 q 244 827 274 853 q 214 751 214 801 q 238 668 214 706 q 297 601 261 631 q 393 531 332 572 q 509 444 465 482 q 583 352 553 406 q 614 229 614 299 q 529 38 614 106 q 310 -31 444 -31 q 108 19 188 -31 q 28 172 28 68 q 57 253 28 222 q 135 285 86 285 q 207 263 183 285 q 197 193 197 235 q 322 61 197 61 q 422 95 383 61 q 461 188 461 129 q 438 271 461 233 q 378 338 414 308 q 282 408 343 367 q 166 495 210 457 q 92 587 122 533 q 61 710 61 640 q 140 883 61 821 q 339 944 218 944 m 165 929 l 125 978 l 326 1161 l 332 1161 l 539 978 l 497 929 l 331 1031 l 165 929 z "},"Ș":{"ha":656,"x_min":28,"x_max":614,"o":"m 28 0 m 339 944 q 531 899 458 944 q 604 751 604 853 q 575 670 604 701 q 496 639 546 639 q 424 661 447 639 q 435 731 435 692 q 326 853 435 853 q 244 827 274 853 q 214 751 214 801 q 238 668 214 706 q 297 601 261 631 q 393 531 332 572 q 509 444 465 482 q 583 352 553 406 q 614 229 614 299 q 529 38 614 106 q 310 -31 444 -31 q 108 19 188 -31 q 28 172 28 68 q 57 253 28 222 q 135 285 86 285 q 207 263 183 285 q 197 193 197 235 q 322 61 197 61 q 422 95 383 61 q 461 188 461 129 q 438 271 461 233 q 378 338 414 308 q 282 408 343 367 q 166 495 210 457 q 92 587 122 533 q 61 710 61 640 q 140 883 61 821 q 339 944 218 944 m 324 -69 q 397 -97 372 -69 q 421 -172 421 -124 q 402 -247 421 -210 q 351 -306 383 -283 q 281 -329 318 -329 q 233 -321 258 -329 q 279 -176 279 -254 q 273 -128 279 -149 q 253 -86 267 -108 q 324 -69 283 -69 z "},"Ṣ":{"ha":656,"x_min":28,"x_max":614,"o":"m 28 0 m 339 944 q 531 899 458 944 q 604 751 604 853 q 575 670 604 701 q 496 639 546 639 q 424 661 447 639 q 435 731 435 692 q 326 853 435 853 q 244 827 274 853 q 214 751 214 801 q 238 668 214 706 q 297 601 261 631 q 393 531 332 572 q 509 444 465 482 q 583 352 553 406 q 614 229 614 299 q 529 38 614 106 q 310 -31 444 -31 q 108 19 188 -31 q 28 172 28 68 q 57 253 28 222 q 135 285 86 285 q 207 263 183 285 q 197 193 197 235 q 322 61 197 61 q 422 95 383 61 q 461 188 461 129 q 438 271 461 233 q 378 338 414 308 q 282 408 343 367 q 166 495 210 457 q 92 587 122 533 q 61 710 61 640 q 140 883 61 821 q 339 944 218 944 m 324 -75 q 398 -97 369 -75 q 426 -161 426 -119 q 397 -227 426 -204 q 319 -250 367 -250 q 246 -228 274 -250 q 218 -164 218 -206 q 248 -98 218 -121 q 324 -75 278 -75 z "},"ẞ":{"ha":897,"x_min":65,"x_max":886,"o":"m 67 461 q 99 725 65 619 q 215 888 132 831 q 443 944 299 944 q 621 899 540 944 q 743 771 701 854 q 611 715 657 744 q 565 626 565 685 q 594 563 565 590 q 689 489 624 535 q 790 414 751 447 q 858 332 829 381 q 886 221 886 283 q 811 33 886 97 q 607 -31 736 -31 q 415 20 490 -31 q 339 172 339 71 q 368 253 339 222 q 446 285 397 285 q 518 263 494 285 q 507 193 507 232 q 619 61 507 61 q 711 94 679 61 q 743 188 743 126 q 724 263 743 231 q 675 318 704 296 q 596 374 646 340 q 506 438 540 410 q 447 509 471 467 q 424 608 424 551 q 467 712 424 672 q 582 771 510 751 q 431 847 522 847 q 299 794 343 847 q 241 658 254 740 q 229 461 228 576 l 232 0 l 69 0 l 67 461 z "},"Ə":{"ha":774,"x_min":47,"x_max":726,"o":"m 369 949 q 726 481 726 949 q 634 108 726 247 q 338 -31 542 -31 q 127 38 207 -31 q 47 231 47 107 q 154 447 47 385 q 446 510 261 510 q 543 506 472 510 q 499 738 539 650 q 353 825 460 825 q 217 778 278 825 q 121 657 157 732 q 82 736 82 678 q 124 848 82 800 q 233 922 167 896 q 369 949 300 949 m 365 69 q 501 170 463 69 q 543 415 540 271 q 465 419 503 419 q 300 378 358 419 q 242 240 242 336 q 274 119 242 168 q 365 69 306 69 z "},"T":{"ha":557,"x_min":-21,"x_max":583,"o":"m 583 917 l 574 814 l 360 814 l 360 0 l 197 0 l 197 814 l -21 814 l -21 917 l 583 917 z "},"Ŧ":{"ha":557,"x_min":-21,"x_max":583,"o":"m 360 814 l 360 526 l 561 526 q 574 478 574 499 q 497 426 574 426 l 360 426 l 360 0 l 197 0 l 197 426 l 14 426 q 3 474 3 451 q 19 513 3 499 q 69 526 36 526 l 197 526 l 197 814 l -21 814 l -21 917 l 583 917 l 574 814 l 360 814 z "},"Ť":{"ha":557,"x_min":-21,"x_max":583,"o":"m 0 0 m 583 917 l 574 814 l 360 814 l 360 0 l 197 0 l 197 814 l -21 814 l -21 917 l 583 917 m 443 1158 l 483 1110 l 282 954 l 278 954 l 71 1110 l 111 1158 l 278 1071 l 443 1158 z "},"Ţ":{"ha":557,"x_min":-21,"x_max":583,"o":"m 281 0 l 246 -90 q 285 -89 258 -89 q 397 -120 356 -89 q 439 -214 439 -151 q 385 -313 439 -275 q 257 -351 331 -351 q 165 -333 206 -351 q 125 -274 125 -314 q 139 -239 125 -251 q 236 -278 174 -278 q 301 -263 275 -278 q 326 -218 326 -249 q 296 -168 326 -182 q 214 -154 265 -154 q 156 -158 182 -154 l 215 0 l 197 0 l 197 814 l -21 814 l -21 917 l 583 917 l 574 814 l 360 814 l 360 0 l 281 0 z "},"Ț":{"ha":557,"x_min":-21,"x_max":583,"o":"m 0 0 m 583 917 l 574 814 l 360 814 l 360 0 l 197 0 l 197 814 l -21 814 l -21 917 l 583 917 m 279 -69 q 352 -97 328 -69 q 376 -172 376 -124 q 358 -247 376 -210 q 306 -306 339 -283 q 236 -329 274 -329 q 189 -321 214 -329 q 235 -176 235 -254 q 228 -128 235 -149 q 208 -86 222 -108 q 279 -69 239 -69 z "},"Ṭ":{"ha":557,"x_min":-21,"x_max":583,"o":"m 0 0 m 583 917 l 574 814 l 360 814 l 360 0 l 197 0 l 197 814 l -21 814 l -21 917 l 583 917 m 279 -75 q 353 -97 325 -75 q 382 -161 382 -119 q 352 -227 382 -204 q 275 -250 322 -250 q 201 -228 229 -250 q 174 -164 174 -206 q 203 -98 174 -121 q 279 -75 233 -75 z "},"U":{"ha":760,"x_min":76,"x_max":683,"o":"m 683 381 q 659 152 683 240 q 569 17 635 64 q 381 -31 504 -31 q 195 9 261 -31 q 103 128 129 49 q 76 335 76 207 l 76 917 l 239 917 l 239 350 q 248 201 239 258 q 290 105 257 143 q 392 67 324 67 q 493 108 460 67 q 535 210 526 149 q 543 365 543 271 l 543 917 l 683 917 l 683 381 z "},"Ú":{"ha":760,"x_min":76,"x_max":683,"o":"m 76 0 m 683 381 q 659 152 683 240 q 569 17 635 64 q 381 -31 504 -31 q 195 9 261 -31 q 103 128 129 49 q 76 335 76 207 l 76 917 l 239 917 l 239 350 q 248 201 239 258 q 290 105 257 143 q 392 67 324 67 q 493 108 460 67 q 535 210 526 149 q 543 365 543 271 l 543 917 l 683 917 l 683 381 m 581 1163 q 610 1131 599 1150 q 621 1092 621 1113 q 579 1024 621 1042 q 467 1000 538 1006 l 301 988 l 286 1046 l 581 1163 z "},"Ŭ":{"ha":760,"x_min":76,"x_max":683,"o":"m 76 0 m 683 381 q 659 152 683 240 q 569 17 635 64 q 381 -31 504 -31 q 195 9 261 -31 q 103 128 129 49 q 76 335 76 207 l 76 917 l 239 917 l 239 350 q 248 201 239 258 q 290 105 257 143 q 392 67 324 67 q 493 108 460 67 q 535 210 526 149 q 543 365 543 271 l 543 917 l 683 917 l 683 381 m 601 1143 q 544 1002 601 1053 q 392 951 486 951 q 240 1002 297 951 q 183 1143 183 1053 l 310 1143 q 328 1056 310 1088 q 392 1024 346 1024 q 456 1056 438 1024 q 474 1143 474 1088 l 601 1143 z "},"Û":{"ha":760,"x_min":76,"x_max":683,"o":"m 76 0 m 683 381 q 659 152 683 240 q 569 17 635 64 q 381 -31 504 -31 q 195 9 261 -31 q 103 128 129 49 q 76 335 76 207 l 76 917 l 239 917 l 239 350 q 248 201 239 258 q 290 105 257 143 q 392 67 324 67 q 493 108 460 67 q 535 210 526 149 q 543 365 543 271 l 543 917 l 683 917 l 683 381 m 229 929 l 189 978 l 390 1161 l 396 1161 l 603 978 l 561 929 l 394 1031 l 229 929 z "},"Ü":{"ha":760,"x_min":76,"x_max":683,"o":"m 76 0 m 683 381 q 659 152 683 240 q 569 17 635 64 q 381 -31 504 -31 q 195 9 261 -31 q 103 128 129 49 q 76 335 76 207 l 76 917 l 239 917 l 239 350 q 248 201 239 258 q 290 105 257 143 q 392 67 324 67 q 493 108 460 67 q 535 210 526 149 q 543 365 543 271 l 543 917 l 683 917 l 683 381 m 533 1161 q 608 1139 579 1161 q 636 1075 636 1117 q 606 1009 636 1032 q 529 986 576 986 q 456 1008 483 986 q 428 1072 428 1031 q 458 1138 428 1115 q 533 1161 488 1161 m 257 1161 q 331 1139 303 1161 q 360 1075 360 1117 q 330 1009 360 1032 q 253 986 300 986 q 179 1008 207 986 q 151 1072 151 1031 q 181 1138 151 1115 q 257 1161 211 1161 z "},"Ụ":{"ha":760,"x_min":76,"x_max":683,"o":"m 76 0 m 683 381 q 659 152 683 240 q 569 17 635 64 q 381 -31 504 -31 q 195 9 261 -31 q 103 128 129 49 q 76 335 76 207 l 76 917 l 239 917 l 239 350 q 248 201 239 258 q 290 105 257 143 q 392 67 324 67 q 493 108 460 67 q 535 210 526 149 q 543 365 543 271 l 543 917 l 683 917 l 683 381 m 399 -75 q 473 -97 444 -75 q 501 -161 501 -119 q 472 -227 501 -204 q 394 -250 442 -250 q 321 -228 349 -250 q 293 -164 293 -206 q 323 -98 293 -121 q 399 -75 353 -75 z "},"Ù":{"ha":760,"x_min":76,"x_max":683,"o":"m 76 0 m 683 381 q 659 152 683 240 q 569 17 635 64 q 381 -31 504 -31 q 195 9 261 -31 q 103 128 129 49 q 76 335 76 207 l 76 917 l 239 917 l 239 350 q 248 201 239 258 q 290 105 257 143 q 392 67 324 67 q 493 108 460 67 q 535 210 526 149 q 543 365 543 271 l 543 917 l 683 917 l 683 381 m 317 1000 q 205 1024 246 1006 q 164 1092 164 1042 q 174 1131 164 1113 q 203 1163 185 1150 l 499 1046 l 483 988 l 317 1000 z "},"Ű":{"ha":760,"x_min":76,"x_max":735,"o":"m 76 0 m 683 381 q 659 152 683 240 q 569 17 635 64 q 381 -31 504 -31 q 195 9 261 -31 q 103 128 129 49 q 76 335 76 207 l 76 917 l 239 917 l 239 350 q 248 201 239 258 q 290 105 257 143 q 392 67 324 67 q 493 108 460 67 q 535 210 526 149 q 543 365 543 271 l 543 917 l 683 917 l 683 381 m 424 1179 q 461 1153 447 1169 q 475 1115 475 1136 q 440 1062 475 1083 q 339 1014 406 1040 l 235 976 l 208 1031 l 424 1179 m 683 1179 q 721 1153 707 1169 q 735 1115 735 1136 q 700 1062 735 1083 q 600 1014 665 1040 l 494 976 l 468 1031 l 683 1179 z "},"Ū":{"ha":760,"x_min":76,"x_max":683,"o":"m 76 0 m 683 381 q 659 152 683 240 q 569 17 635 64 q 381 -31 504 -31 q 195 9 261 -31 q 103 128 129 49 q 76 335 76 207 l 76 917 l 239 917 l 239 350 q 248 201 239 258 q 290 105 257 143 q 392 67 324 67 q 493 108 460 67 q 535 210 526 149 q 543 365 543 271 l 543 917 l 683 917 l 683 381 m 574 1144 q 585 1092 585 1117 q 565 1047 585 1063 q 504 1031 544 1031 l 213 1031 q 203 1081 203 1053 q 222 1128 203 1111 q 274 1144 240 1144 l 574 1144 z "},"Ų":{"ha":760,"x_min":76,"x_max":683,"o":"m 683 381 q 658 147 683 236 q 565 14 633 58 q 485 -75 515 -24 q 454 -181 454 -126 q 472 -242 454 -222 q 532 -261 489 -261 q 597 -232 572 -261 q 613 -267 613 -244 q 579 -324 613 -306 q 499 -342 546 -342 q 390 -304 429 -342 q 351 -199 351 -267 q 431 -28 351 -107 q 381 -31 397 -31 q 195 9 261 -31 q 103 128 129 49 q 76 335 76 207 l 76 917 l 239 917 l 239 350 q 248 201 239 258 q 290 105 257 143 q 392 67 324 67 q 493 108 460 67 q 535 210 526 149 q 543 365 543 271 l 543 917 l 683 917 l 683 381 z "},"Ů":{"ha":760,"x_min":76,"x_max":683,"o":"m 76 0 m 683 381 q 659 152 683 240 q 569 17 635 64 q 381 -31 504 -31 q 195 9 261 -31 q 103 128 129 49 q 76 335 76 207 l 76 917 l 239 917 l 239 350 q 248 201 239 258 q 290 105 257 143 q 392 67 324 67 q 493 108 460 67 q 535 210 526 149 q 543 365 543 271 l 543 917 l 683 917 l 683 381 m 392 975 q 293 1007 333 975 q 253 1092 253 1039 q 292 1174 253 1144 q 392 1204 331 1204 q 492 1174 453 1204 q 532 1092 532 1144 q 492 1007 532 1039 q 392 975 451 975 m 392 1022 q 436 1042 421 1022 q 451 1092 451 1061 q 436 1139 451 1121 q 392 1157 421 1157 q 349 1139 364 1157 q 333 1092 333 1121 q 348 1042 333 1061 q 392 1022 363 1022 z "},"Ũ":{"ha":760,"x_min":76,"x_max":683,"o":"m 76 0 m 683 381 q 659 152 683 240 q 569 17 635 64 q 381 -31 504 -31 q 195 9 261 -31 q 103 128 129 49 q 76 335 76 207 l 76 917 l 239 917 l 239 350 q 248 201 239 258 q 290 105 257 143 q 392 67 324 67 q 493 108 460 67 q 535 210 526 149 q 543 365 543 271 l 543 917 l 683 917 l 683 381 m 564 1139 q 592 1108 582 1128 q 601 1068 601 1089 q 578 1017 601 1035 q 517 1000 554 1000 q 399 1017 485 1000 q 292 1033 318 1033 q 218 1013 240 1033 q 190 1043 200 1024 q 181 1083 181 1063 q 204 1134 181 1117 q 265 1151 228 1151 q 385 1133 304 1151 q 431 1125 394 1132 q 490 1118 468 1118 q 564 1139 542 1118 z "},"V":{"ha":665,"x_min":-7,"x_max":672,"o":"m 672 917 l 428 0 l 219 0 l -7 917 l 157 917 l 339 104 l 519 917 l 672 917 z "},"W":{"ha":1104,"x_min":-7,"x_max":1111,"o":"m 1111 917 l 886 0 l 678 0 l 543 658 l 408 0 l 200 0 l -7 917 l 157 917 l 319 104 l 481 917 l 635 917 l 797 104 l 958 917 l 1111 917 z "},"Ẃ":{"ha":1104,"x_min":-7,"x_max":1111,"o":"m 0 0 m 1111 917 l 886 0 l 678 0 l 543 658 l 408 0 l 200 0 l -7 917 l 157 917 l 319 104 l 481 917 l 635 917 l 797 104 l 958 917 l 1111 917 m 746 1163 q 775 1131 764 1150 q 786 1092 786 1113 q 744 1024 786 1042 q 632 1000 703 1006 l 467 988 l 451 1046 l 746 1163 z "},"Ŵ":{"ha":1104,"x_min":-7,"x_max":1111,"o":"m 0 0 m 1111 917 l 886 0 l 678 0 l 543 658 l 408 0 l 200 0 l -7 917 l 157 917 l 319 104 l 481 917 l 635 917 l 797 104 l 958 917 l 1111 917 m 392 929 l 351 978 l 553 1161 l 558 1161 l 765 978 l 724 929 l 557 1031 l 392 929 z "},"Ẅ":{"ha":1104,"x_min":-7,"x_max":1111,"o":"m 0 0 m 1111 917 l 886 0 l 678 0 l 543 658 l 408 0 l 200 0 l -7 917 l 157 917 l 319 104 l 481 917 l 635 917 l 797 104 l 958 917 l 1111 917 m 696 1161 q 770 1139 742 1161 q 799 1075 799 1117 q 769 1009 799 1032 q 692 986 739 986 q 618 1008 646 986 q 590 1072 590 1031 q 620 1138 590 1115 q 696 1161 650 1161 m 419 1161 q 494 1139 465 1161 q 522 1075 522 1117 q 492 1009 522 1032 q 415 986 463 986 q 342 1008 369 986 q 314 1072 314 1031 q 344 1138 314 1115 q 419 1161 374 1161 z "},"Ẁ":{"ha":1104,"x_min":-7,"x_max":1111,"o":"m 0 0 m 1111 917 l 886 0 l 678 0 l 543 658 l 408 0 l 200 0 l -7 917 l 157 917 l 319 104 l 481 917 l 635 917 l 797 104 l 958 917 l 1111 917 m 482 1000 q 370 1024 411 1006 q 329 1092 329 1042 q 340 1131 329 1113 q 368 1163 350 1150 l 664 1046 l 649 988 l 482 1000 z "},"X":{"ha":717,"x_min":1,"x_max":715,"o":"m 706 917 l 444 472 l 715 0 l 538 0 l 346 344 l 168 0 l 1 0 l 276 468 l 21 917 l 199 917 l 375 597 l 539 917 l 706 917 z "},"Y":{"ha":700,"x_min":1,"x_max":697,"o":"m 431 424 l 431 0 l 268 0 l 268 407 l 1 917 l 179 917 l 360 540 l 531 917 l 697 917 l 431 424 z "},"Ý":{"ha":700,"x_min":1,"x_max":697,"o":"m 1 0 m 431 424 l 431 0 l 268 0 l 268 407 l 1 917 l 179 917 l 360 540 l 531 917 l 697 917 l 431 424 m 547 1163 q 576 1131 565 1150 q 588 1092 588 1113 q 546 1024 588 1042 q 433 1000 504 1006 l 268 988 l 253 1046 l 547 1163 z "},"Ŷ":{"ha":700,"x_min":1,"x_max":697,"o":"m 1 0 m 431 424 l 431 0 l 268 0 l 268 407 l 1 917 l 179 917 l 360 540 l 531 917 l 697 917 l 431 424 m 193 929 l 153 978 l 354 1161 l 360 1161 l 567 978 l 525 929 l 358 1031 l 193 929 z "},"Ÿ":{"ha":700,"x_min":1,"x_max":697,"o":"m 1 0 m 431 424 l 431 0 l 268 0 l 268 407 l 1 917 l 179 917 l 360 540 l 531 917 l 697 917 l 431 424 m 497 1161 q 572 1139 543 1161 q 600 1075 600 1117 q 570 1009 600 1032 q 493 986 540 986 q 419 1008 447 986 q 392 1072 392 1031 q 422 1138 392 1115 q 497 1161 451 1161 m 221 1161 q 295 1139 267 1161 q 324 1075 324 1117 q 294 1009 324 1032 q 217 986 264 986 q 143 1008 171 986 q 115 1072 115 1031 q 145 1138 115 1115 q 221 1161 175 1161 z "},"Ỳ":{"ha":700,"x_min":1,"x_max":697,"o":"m 1 0 m 431 424 l 431 0 l 268 0 l 268 407 l 1 917 l 179 917 l 360 540 l 531 917 l 697 917 l 431 424 m 283 1000 q 172 1024 213 1006 q 131 1092 131 1042 q 141 1131 131 1113 q 169 1163 151 1150 l 465 1046 l 450 988 l 283 1000 z "},"Ỹ":{"ha":700,"x_min":1,"x_max":697,"o":"m 1 0 m 431 424 l 431 0 l 268 0 l 268 407 l 1 917 l 179 917 l 360 540 l 531 917 l 697 917 l 431 424 m 531 1139 q 558 1108 549 1128 q 568 1068 568 1089 q 544 1017 568 1035 q 483 1000 521 1000 q 365 1017 451 1000 q 258 1033 285 1033 q 185 1013 207 1033 q 157 1043 167 1024 q 147 1083 147 1063 q 171 1134 147 1117 q 232 1151 194 1151 q 351 1133 271 1151 q 398 1125 361 1132 q 457 1118 435 1118 q 531 1139 508 1118 z "},"Z":{"ha":583,"x_min":6,"x_max":578,"o":"m 556 917 l 565 815 l 179 103 l 578 103 l 568 0 l 15 0 l 6 101 l 392 814 l 31 814 l 40 917 l 556 917 z "},"Ź":{"ha":583,"x_min":6,"x_max":578,"o":"m 6 0 m 556 917 l 565 815 l 179 103 l 578 103 l 568 0 l 15 0 l 6 101 l 392 814 l 31 814 l 40 917 l 556 917 m 483 1164 q 513 1133 501 1151 q 524 1093 524 1114 q 482 1025 524 1043 q 369 1001 440 1007 l 204 989 l 189 1047 l 483 1164 z "},"Ž":{"ha":583,"x_min":6,"x_max":578,"o":"m 6 0 m 556 917 l 565 815 l 179 103 l 578 103 l 568 0 l 15 0 l 6 101 l 392 814 l 31 814 l 40 917 l 556 917 m 458 1160 l 499 1111 l 297 956 l 293 956 l 86 1111 l 126 1160 l 293 1072 l 458 1160 z "},"Ż":{"ha":583,"x_min":6,"x_max":578,"o":"m 6 0 m 556 917 l 565 815 l 179 103 l 578 103 l 568 0 l 15 0 l 6 101 l 392 814 l 31 814 l 40 917 l 556 917 m 294 1181 q 369 1158 340 1181 q 397 1094 397 1136 q 367 1028 397 1051 q 290 1006 338 1006 q 217 1028 244 1006 q 189 1092 189 1050 q 219 1158 189 1135 q 294 1181 249 1181 z "},"Ẓ":{"ha":583,"x_min":6,"x_max":578,"o":"m 6 0 m 556 917 l 565 815 l 179 103 l 578 103 l 568 0 l 15 0 l 6 101 l 392 814 l 31 814 l 40 917 l 556 917 m 274 -75 q 348 -97 319 -75 q 376 -161 376 -119 q 347 -227 376 -204 q 269 -250 317 -250 q 196 -228 224 -250 q 168 -164 168 -206 q 198 -98 168 -121 q 274 -75 228 -75 z "},"a":{"ha":694,"x_min":51,"x_max":649,"o":"m 468 64 q 391 -8 442 15 q 276 -31 340 -31 q 116 28 181 -31 q 51 179 51 86 q 453 404 51 404 l 453 525 q 432 628 453 594 q 353 663 411 663 q 272 637 304 663 q 240 565 240 611 q 251 503 240 536 q 196 488 232 488 q 117 513 146 488 q 88 585 88 538 q 163 694 88 651 q 363 736 238 736 q 507 709 454 736 q 583 626 560 682 q 606 475 606 569 l 606 114 q 649 22 606 46 q 616 -10 638 1 q 567 -21 594 -21 q 500 2 526 -21 q 468 64 474 25 m 331 63 q 422 109 392 63 q 453 225 453 156 l 453 335 q 218 185 218 335 q 248 96 218 129 q 331 63 278 63 z "},"á":{"ha":694,"x_min":51,"x_max":649,"o":"m 51 0 m 468 64 q 391 -8 442 15 q 276 -31 340 -31 q 116 28 181 -31 q 51 179 51 86 q 453 404 51 404 l 453 525 q 432 628 453 594 q 353 663 411 663 q 272 637 304 663 q 240 565 240 611 q 251 503 240 536 q 196 488 232 488 q 117 513 146 488 q 88 585 88 538 q 163 694 88 651 q 363 736 238 736 q 507 709 454 736 q 583 626 560 682 q 606 475 606 569 l 606 114 q 649 22 606 46 q 616 -10 638 1 q 567 -21 594 -21 q 500 2 526 -21 q 468 64 474 25 m 331 63 q 422 109 392 63 q 453 225 453 156 l 453 335 q 218 185 218 335 q 248 96 218 129 q 331 63 278 63 m 469 1054 q 516 1025 497 1047 q 535 975 535 1003 q 501 911 535 938 q 417 863 468 885 l 265 794 l 231 843 l 469 1054 z "},"ă":{"ha":694,"x_min":51,"x_max":649,"o":"m 51 0 m 468 64 q 391 -8 442 15 q 276 -31 340 -31 q 116 28 181 -31 q 51 179 51 86 q 453 404 51 404 l 453 525 q 432 628 453 594 q 353 663 411 663 q 272 637 304 663 q 240 565 240 611 q 251 503 240 536 q 196 488 232 488 q 117 513 146 488 q 88 585 88 538 q 163 694 88 651 q 363 736 238 736 q 507 709 454 736 q 583 626 560 682 q 606 475 606 569 l 606 114 q 649 22 606 46 q 616 -10 638 1 q 567 -21 594 -21 q 500 2 526 -21 q 468 64 474 25 m 331 63 q 422 109 392 63 q 453 225 453 156 l 453 335 q 218 185 218 335 q 248 96 218 129 q 331 63 278 63 m 554 1014 q 497 873 554 924 q 344 822 439 822 q 194 873 251 822 q 136 1014 136 924 l 263 1014 q 281 926 263 958 q 344 894 299 894 q 408 926 390 894 q 426 1014 426 958 l 554 1014 z "},"â":{"ha":694,"x_min":51,"x_max":649,"o":"m 51 0 m 468 64 q 391 -8 442 15 q 276 -31 340 -31 q 116 28 181 -31 q 51 179 51 86 q 453 404 51 404 l 453 525 q 432 628 453 594 q 353 663 411 663 q 272 637 304 663 q 240 565 240 611 q 251 503 240 536 q 196 488 232 488 q 117 513 146 488 q 88 585 88 538 q 163 694 88 651 q 363 736 238 736 q 507 709 454 736 q 583 626 560 682 q 606 475 606 569 l 606 114 q 649 22 606 46 q 616 -10 638 1 q 567 -21 594 -21 q 500 2 526 -21 q 468 64 474 25 m 331 63 q 422 109 392 63 q 453 225 453 156 l 453 335 q 218 185 218 335 q 248 96 218 129 q 331 63 278 63 m 179 799 l 139 847 l 340 1031 l 346 1031 l 553 847 l 511 799 l 344 900 l 179 799 z "},"ä":{"ha":694,"x_min":51,"x_max":649,"o":"m 51 0 m 468 64 q 391 -8 442 15 q 276 -31 340 -31 q 116 28 181 -31 q 51 179 51 86 q 453 404 51 404 l 453 525 q 432 628 453 594 q 353 663 411 663 q 272 637 304 663 q 240 565 240 611 q 251 503 240 536 q 196 488 232 488 q 117 513 146 488 q 88 585 88 538 q 163 694 88 651 q 363 736 238 736 q 507 709 454 736 q 583 626 560 682 q 606 475 606 569 l 606 114 q 649 22 606 46 q 616 -10 638 1 q 567 -21 594 -21 q 500 2 526 -21 q 468 64 474 25 m 331 63 q 422 109 392 63 q 453 225 453 156 l 453 335 q 218 185 218 335 q 248 96 218 129 q 331 63 278 63 m 485 1000 q 559 978 531 1000 q 588 914 588 956 q 558 848 588 871 q 481 825 528 825 q 407 847 435 825 q 379 911 379 869 q 409 977 379 954 q 485 1000 439 1000 m 208 1000 q 283 978 254 1000 q 311 914 311 956 q 281 848 311 871 q 204 825 251 825 q 131 847 158 825 q 103 911 103 869 q 133 977 103 954 q 208 1000 163 1000 z "},"à":{"ha":694,"x_min":51,"x_max":649,"o":"m 51 0 m 468 64 q 391 -8 442 15 q 276 -31 340 -31 q 116 28 181 -31 q 51 179 51 86 q 453 404 51 404 l 453 525 q 432 628 453 594 q 353 663 411 663 q 272 637 304 663 q 240 565 240 611 q 251 503 240 536 q 196 488 232 488 q 117 513 146 488 q 88 585 88 538 q 163 694 88 651 q 363 736 238 736 q 507 709 454 736 q 583 626 560 682 q 606 475 606 569 l 606 114 q 649 22 606 46 q 616 -10 638 1 q 567 -21 594 -21 q 500 2 526 -21 q 468 64 474 25 m 331 63 q 422 109 392 63 q 453 225 453 156 l 453 335 q 218 185 218 335 q 248 96 218 129 q 331 63 278 63 m 272 863 q 189 911 222 885 q 156 975 156 938 q 174 1025 156 1003 q 221 1054 193 1047 l 460 843 l 425 794 l 272 863 z "},"ā":{"ha":694,"x_min":51,"x_max":649,"o":"m 51 0 m 468 64 q 391 -8 442 15 q 276 -31 340 -31 q 116 28 181 -31 q 51 179 51 86 q 453 404 51 404 l 453 525 q 432 628 453 594 q 353 663 411 663 q 272 637 304 663 q 240 565 240 611 q 251 503 240 536 q 196 488 232 488 q 117 513 146 488 q 88 585 88 538 q 163 694 88 651 q 363 736 238 736 q 507 709 454 736 q 583 626 560 682 q 606 475 606 569 l 606 114 q 649 22 606 46 q 616 -10 638 1 q 567 -21 594 -21 q 500 2 526 -21 q 468 64 474 25 m 331 63 q 422 109 392 63 q 453 225 453 156 l 453 335 q 218 185 218 335 q 248 96 218 129 q 331 63 278 63 m 525 964 q 536 911 536 936 q 516 866 536 882 q 456 850 496 850 l 164 850 q 154 900 154 872 q 173 947 154 931 q 225 964 192 964 l 525 964 z "},"ą":{"ha":694,"x_min":51,"x_max":683,"o":"m 668 -232 q 683 -267 683 -244 q 650 -324 683 -306 q 569 -342 617 -342 q 461 -304 500 -342 q 422 -199 422 -267 q 449 -98 422 -146 q 519 -11 475 -50 q 468 64 474 11 q 391 -8 442 15 q 276 -31 340 -31 q 116 28 181 -31 q 51 179 51 86 q 453 404 51 404 l 453 525 q 432 628 453 594 q 353 663 411 663 q 272 637 304 663 q 240 565 240 611 q 251 503 240 536 q 196 488 232 488 q 117 513 146 488 q 88 585 88 538 q 163 694 88 651 q 363 736 238 736 q 507 709 454 736 q 583 626 560 682 q 606 475 606 569 l 606 114 q 649 22 606 46 q 601 -15 635 -7 q 546 -94 567 -50 q 525 -181 525 -137 q 542 -242 525 -222 q 603 -261 560 -261 q 668 -232 643 -261 m 453 335 q 218 185 218 335 q 248 96 218 129 q 331 63 278 63 q 422 109 392 63 q 453 225 453 156 l 453 335 z "},"å":{"ha":694,"x_min":51,"x_max":649,"o":"m 51 0 m 468 64 q 391 -8 442 15 q 276 -31 340 -31 q 116 28 181 -31 q 51 179 51 86 q 453 404 51 404 l 453 525 q 432 628 453 594 q 353 663 411 663 q 272 637 304 663 q 240 565 240 611 q 251 503 240 536 q 196 488 232 488 q 117 513 146 488 q 88 585 88 538 q 163 694 88 651 q 363 736 238 736 q 507 709 454 736 q 583 626 560 682 q 606 475 606 569 l 606 114 q 649 22 606 46 q 616 -10 638 1 q 567 -21 594 -21 q 500 2 526 -21 q 468 64 474 25 m 331 63 q 422 109 392 63 q 453 225 453 156 l 453 335 q 218 185 218 335 q 248 96 218 129 q 331 63 278 63 m 344 782 q 238 819 281 782 q 194 917 194 856 q 237 1013 194 978 q 344 1047 279 1047 q 452 1013 410 1047 q 494 917 494 978 q 451 819 494 856 q 344 782 408 782 m 344 829 q 397 853 379 829 q 414 917 414 878 q 397 977 414 954 q 344 1000 379 1000 q 292 977 310 1000 q 275 917 275 954 q 292 853 275 878 q 344 829 310 829 z "},"ǻ":{"ha":694,"x_min":51,"x_max":649,"o":"m 539 1258 q 568 1227 557 1246 q 579 1188 579 1208 q 538 1119 579 1138 q 425 1096 496 1101 l 260 1083 l 244 1142 l 539 1258 m 353 779 q 246 816 289 779 q 203 914 203 853 q 245 1010 203 975 q 353 1044 288 1044 q 460 1010 418 1044 q 503 914 503 975 q 460 816 503 853 q 353 779 417 779 m 353 826 q 405 851 388 826 q 422 914 422 875 q 405 974 422 951 q 353 997 388 997 q 301 974 318 997 q 283 914 283 951 q 301 851 283 875 q 353 826 318 826 m 468 64 q 391 -8 442 15 q 276 -31 340 -31 q 116 28 181 -31 q 51 179 51 86 q 453 404 51 404 l 453 525 q 432 628 453 594 q 353 663 411 663 q 272 637 304 663 q 240 565 240 611 q 251 503 240 536 q 196 488 232 488 q 117 513 146 488 q 88 585 88 538 q 163 694 88 651 q 363 736 238 736 q 507 709 454 736 q 583 626 560 682 q 606 475 606 569 l 606 114 q 649 22 606 46 q 616 -10 638 1 q 567 -21 594 -21 q 500 2 526 -21 q 468 64 474 25 m 331 63 q 422 109 392 63 q 453 225 453 156 l 453 335 q 218 185 218 335 q 248 96 218 129 q 331 63 278 63 z "},"ã":{"ha":694,"x_min":51,"x_max":649,"o":"m 51 0 m 468 64 q 391 -8 442 15 q 276 -31 340 -31 q 116 28 181 -31 q 51 179 51 86 q 453 404 51 404 l 453 525 q 432 628 453 594 q 353 663 411 663 q 272 637 304 663 q 240 565 240 611 q 251 503 240 536 q 196 488 232 488 q 117 513 146 488 q 88 585 88 538 q 163 694 88 651 q 363 736 238 736 q 507 709 454 736 q 583 626 560 682 q 606 475 606 569 l 606 114 q 649 22 606 46 q 616 -10 638 1 q 567 -21 594 -21 q 500 2 526 -21 q 468 64 474 25 m 331 63 q 422 109 392 63 q 453 225 453 156 l 453 335 q 218 185 218 335 q 248 96 218 129 q 331 63 278 63 m 518 968 q 544 938 535 957 q 554 897 554 918 q 531 847 554 864 q 469 829 507 829 q 353 846 439 829 q 244 863 272 863 q 171 842 193 863 q 143 872 153 853 q 133 913 133 892 q 158 963 133 946 q 219 981 182 981 q 336 964 253 981 q 443 947 417 947 q 518 968 494 947 z "},"æ":{"ha":1036,"x_min":51,"x_max":994,"o":"m 939 196 q 971 136 971 181 q 938 48 971 86 q 851 -10 904 10 q 744 -31 799 -31 q 503 92 581 -31 q 427 0 479 31 q 304 -31 375 -31 q 122 24 193 -31 q 51 179 51 78 q 164 353 51 307 q 453 399 276 399 l 453 525 q 432 628 453 594 q 353 663 411 663 q 272 637 304 663 q 240 565 240 611 q 251 503 240 536 q 196 488 232 488 q 117 513 146 488 q 88 585 88 538 q 163 694 88 651 q 363 736 238 736 q 484 719 436 736 q 561 664 532 701 q 767 736 640 736 q 932 683 869 736 q 994 532 994 629 q 911 366 994 413 q 682 319 828 319 q 606 322 642 319 q 642 143 610 210 q 758 76 675 76 q 866 108 819 76 q 939 196 913 139 m 744 657 q 639 578 669 657 q 606 392 608 500 l 668 389 q 798 419 753 389 q 843 524 843 450 q 818 619 843 581 q 744 657 793 657 m 453 329 q 282 299 346 329 q 218 185 218 268 q 248 96 218 129 q 331 63 278 63 q 422 109 392 63 q 453 225 453 156 l 453 329 z "},"ǽ":{"ha":1036,"x_min":51,"x_max":994,"o":"m 51 0 m 939 196 q 971 136 971 181 q 938 48 971 86 q 851 -10 904 10 q 744 -31 799 -31 q 503 92 581 -31 q 427 0 479 31 q 304 -31 375 -31 q 122 24 193 -31 q 51 179 51 78 q 164 353 51 307 q 453 399 276 399 l 453 525 q 432 628 453 594 q 353 663 411 663 q 272 637 304 663 q 240 565 240 611 q 251 503 240 536 q 196 488 232 488 q 117 513 146 488 q 88 585 88 538 q 163 694 88 651 q 363 736 238 736 q 484 719 436 736 q 561 664 532 701 q 767 736 640 736 q 932 683 869 736 q 994 532 994 629 q 911 366 994 413 q 682 319 828 319 q 606 322 642 319 q 642 143 610 210 q 758 76 675 76 q 866 108 819 76 q 939 196 913 139 m 744 657 q 639 578 669 657 q 606 392 608 500 l 668 389 q 798 419 753 389 q 843 524 843 450 q 818 619 843 581 q 744 657 793 657 m 453 329 q 282 299 346 329 q 218 185 218 268 q 248 96 218 129 q 331 63 278 63 q 422 109 392 63 q 453 225 453 156 l 453 329 m 638 1054 q 684 1025 665 1047 q 703 975 703 1003 q 669 911 703 938 q 585 863 636 885 l 433 794 l 399 843 l 638 1054 z "},"b":{"ha":728,"x_min":97,"x_max":683,"o":"m 250 832 q 236 610 250 681 q 315 702 263 668 q 432 736 368 736 q 624 631 564 736 q 683 364 683 525 q 607 78 683 186 q 372 -31 531 -31 q 228 -13 304 -31 q 97 35 153 4 l 97 972 l 250 989 l 250 832 m 250 94 q 379 53 311 53 q 490 139 464 53 q 517 357 517 225 q 491 552 517 475 q 386 629 465 629 q 278 553 306 629 q 250 361 250 478 l 250 94 z "},"c":{"ha":619,"x_min":44,"x_max":582,"o":"m 344 654 q 206 351 206 654 q 237 152 206 228 q 358 76 268 76 q 463 109 419 76 q 522 201 507 142 q 556 176 546 190 q 567 136 567 161 q 534 48 567 86 q 450 -10 501 10 q 344 -31 399 -31 q 118 69 192 -31 q 44 336 44 168 q 124 626 44 515 q 365 736 204 736 q 521 697 460 736 q 582 578 582 658 q 553 506 582 531 q 474 481 524 481 q 442 485 458 481 q 417 496 426 489 q 428 558 428 529 q 344 654 428 654 z "},"ć":{"ha":619,"x_min":44,"x_max":582,"o":"m 44 0 m 344 654 q 206 351 206 654 q 237 152 206 228 q 358 76 268 76 q 463 109 419 76 q 522 201 507 142 q 556 176 546 190 q 567 136 567 161 q 534 48 567 86 q 450 -10 501 10 q 344 -31 399 -31 q 118 69 192 -31 q 44 336 44 168 q 124 626 44 515 q 365 736 204 736 q 521 697 460 736 q 582 578 582 658 q 553 506 582 531 q 474 481 524 481 q 442 485 458 481 q 417 496 426 489 q 428 558 428 529 q 344 654 428 654 m 472 1054 q 519 1025 500 1047 q 538 975 538 1003 q 504 911 538 938 q 419 863 471 885 l 268 794 l 233 843 l 472 1054 z "},"č":{"ha":619,"x_min":44,"x_max":582,"o":"m 44 0 m 344 654 q 206 351 206 654 q 237 152 206 228 q 358 76 268 76 q 463 109 419 76 q 522 201 507 142 q 556 176 546 190 q 567 136 567 161 q 534 48 567 86 q 450 -10 501 10 q 344 -31 399 -31 q 118 69 192 -31 q 44 336 44 168 q 124 626 44 515 q 365 736 204 736 q 521 697 460 736 q 582 578 582 658 q 553 506 582 531 q 474 481 524 481 q 442 485 458 481 q 417 496 426 489 q 428 558 428 529 q 344 654 428 654 m 513 1031 l 554 982 l 353 799 l 347 799 l 140 982 l 181 1031 l 347 929 l 513 1031 z "},"ç":{"ha":619,"x_min":44,"x_max":582,"o":"m 522 201 q 556 176 546 190 q 567 136 567 161 q 534 48 567 86 q 450 -10 501 10 q 344 -31 399 -31 l 333 -31 l 311 -90 q 350 -89 324 -89 q 463 -120 421 -89 q 504 -214 504 -151 q 450 -313 504 -275 q 322 -351 396 -351 q 231 -333 271 -351 q 190 -274 190 -314 q 204 -239 190 -251 q 301 -278 239 -278 q 366 -263 340 -278 q 392 -218 392 -249 q 361 -168 392 -182 q 279 -154 331 -154 q 221 -158 247 -154 l 271 -24 q 100 95 156 0 q 44 336 44 190 q 124 626 44 515 q 365 736 204 736 q 521 697 460 736 q 582 578 582 658 q 553 506 582 531 q 474 481 524 481 q 442 485 458 481 q 417 496 426 489 q 428 558 428 529 q 344 654 428 654 q 206 351 206 654 q 237 152 206 228 q 358 76 268 76 q 463 109 419 76 q 522 201 507 142 z "},"ĉ":{"ha":619,"x_min":44,"x_max":582,"o":"m 44 0 m 344 654 q 206 351 206 654 q 237 152 206 228 q 358 76 268 76 q 463 109 419 76 q 522 201 507 142 q 556 176 546 190 q 567 136 567 161 q 534 48 567 86 q 450 -10 501 10 q 344 -31 399 -31 q 118 69 192 -31 q 44 336 44 168 q 124 626 44 515 q 365 736 204 736 q 521 697 460 736 q 582 578 582 658 q 553 506 582 531 q 474 481 524 481 q 442 485 458 481 q 417 496 426 489 q 428 558 428 529 q 344 654 428 654 m 182 799 l 142 847 l 343 1031 l 349 1031 l 556 847 l 514 799 l 347 900 l 182 799 z "},"ċ":{"ha":619,"x_min":44,"x_max":582,"o":"m 44 0 m 344 654 q 206 351 206 654 q 237 152 206 228 q 358 76 268 76 q 463 109 419 76 q 522 201 507 142 q 556 176 546 190 q 567 136 567 161 q 534 48 567 86 q 450 -10 501 10 q 344 -31 399 -31 q 118 69 192 -31 q 44 336 44 168 q 124 626 44 515 q 365 736 204 736 q 521 697 460 736 q 582 578 582 658 q 553 506 582 531 q 474 481 524 481 q 442 485 458 481 q 417 496 426 489 q 428 558 428 529 q 344 654 428 654 m 347 1000 q 422 978 393 1000 q 450 914 450 956 q 420 848 450 871 q 343 825 390 825 q 269 847 297 825 q 242 911 242 869 q 272 977 242 954 q 347 1000 301 1000 z "},"d":{"ha":732,"x_min":44,"x_max":672,"o":"m 629 114 q 672 22 629 46 q 640 -10 661 1 q 590 -21 618 -21 q 524 2 550 -21 q 492 64 497 25 q 420 -6 469 18 q 314 -31 371 -31 q 108 78 172 -31 q 44 356 44 186 q 120 633 44 531 q 356 736 196 736 q 476 718 422 736 l 476 972 l 629 989 l 629 114 m 476 610 q 349 653 413 653 q 238 572 264 653 q 211 363 211 492 q 242 151 211 239 q 354 63 272 63 q 446 109 415 63 q 476 225 476 156 l 476 610 z "},"ð":{"ha":739,"x_min":44,"x_max":689,"o":"m 328 1000 q 543 899 460 1000 l 664 942 q 681 919 674 933 q 689 892 689 904 q 678 867 689 878 q 640 847 667 857 l 589 828 q 650 648 631 750 q 669 438 669 546 q 597 102 669 232 q 357 -28 525 -28 q 189 16 260 -28 q 81 138 118 60 q 44 315 44 215 q 125 583 44 482 q 358 685 206 685 q 475 667 421 685 q 453 779 468 733 l 324 732 q 308 755 315 740 q 300 782 300 769 q 340 825 297 810 l 411 851 q 296 900 367 900 q 256 894 276 900 q 221 879 235 889 q 207 924 207 894 q 240 980 207 960 q 328 1000 274 1000 m 357 56 q 494 418 494 56 q 492 506 494 476 q 488 560 490 535 q 358 601 428 601 q 246 519 272 601 q 219 325 219 436 q 251 137 219 218 q 357 56 282 56 z "},"ď":{"ha":732,"x_min":44,"x_max":893,"o":"m 44 0 m 629 114 q 672 22 629 46 q 640 -10 661 1 q 590 -21 618 -21 q 524 2 550 -21 q 492 64 497 25 q 420 -6 469 18 q 314 -31 371 -31 q 108 78 172 -31 q 44 356 44 186 q 120 633 44 531 q 356 736 196 736 q 476 718 422 736 l 476 972 l 629 989 l 629 114 m 476 610 q 349 653 413 653 q 238 572 264 653 q 211 363 211 492 q 242 151 211 239 q 354 63 272 63 q 446 109 415 63 q 476 225 476 156 l 476 610 m 735 983 q 799 1000 763 1000 q 893 892 893 1000 q 875 821 893 856 q 827 764 857 786 q 763 742 797 742 q 717 750 738 742 q 761 889 761 817 q 735 983 761 939 z "},"đ":{"ha":842,"x_min":44,"x_max":782,"o":"m 769 878 q 782 829 782 850 q 706 778 782 778 l 629 778 l 629 114 q 672 22 629 46 q 640 -10 661 1 q 590 -21 618 -21 q 524 2 550 -21 q 492 64 497 25 q 420 -6 469 18 q 314 -31 371 -31 q 108 78 172 -31 q 44 356 44 186 q 120 633 44 531 q 356 736 196 736 q 476 718 422 736 l 476 778 l 293 778 q 282 825 282 803 q 299 864 282 850 q 349 878 315 878 l 476 878 l 476 972 l 629 989 l 629 878 l 769 878 m 476 610 q 349 653 413 653 q 238 572 264 653 q 211 363 211 492 q 242 151 211 239 q 354 63 272 63 q 446 109 415 63 q 476 225 476 156 l 476 610 z "},"ḍ":{"ha":732,"x_min":44,"x_max":672,"o":"m 44 0 m 629 114 q 672 22 629 46 q 640 -10 661 1 q 590 -21 618 -21 q 524 2 550 -21 q 492 64 497 25 q 420 -6 469 18 q 314 -31 371 -31 q 108 78 172 -31 q 44 356 44 186 q 120 633 44 531 q 356 736 196 736 q 476 718 422 736 l 476 972 l 629 989 l 629 114 m 476 610 q 349 653 413 653 q 238 572 264 653 q 211 363 211 492 q 242 151 211 239 q 354 63 272 63 q 446 109 415 63 q 476 225 476 156 l 476 610 m 382 -75 q 456 -97 428 -75 q 485 -161 485 -119 q 455 -227 485 -204 q 378 -250 425 -250 q 304 -228 332 -250 q 276 -164 276 -206 q 306 -98 276 -121 q 382 -75 336 -75 z "},"ǳ":{"ha":1260,"x_min":44,"x_max":1246,"o":"m 44 0 m 629 114 q 672 22 629 46 q 640 -10 661 1 q 590 -21 618 -21 q 524 2 550 -21 q 492 64 497 25 q 420 -6 469 18 q 314 -31 371 -31 q 108 78 172 -31 q 44 356 44 186 q 120 633 44 531 q 356 736 196 736 q 476 718 422 736 l 476 972 l 629 989 l 629 114 m 476 610 q 349 653 413 653 q 238 572 264 653 q 211 363 211 492 q 242 151 211 239 q 354 63 272 63 q 446 109 415 63 q 476 225 476 156 l 476 610 m 1226 708 l 1236 626 l 911 93 l 1246 104 l 1236 0 l 756 0 l 746 85 l 1067 614 l 758 596 l 769 708 l 1226 708 z "},"ǆ":{"ha":1260,"x_min":44,"x_max":1246,"o":"m 44 0 m 629 114 q 672 22 629 46 q 640 -10 661 1 q 590 -21 618 -21 q 524 2 550 -21 q 492 64 497 25 q 420 -6 469 18 q 314 -31 371 -31 q 108 78 172 -31 q 44 356 44 186 q 120 633 44 531 q 356 736 196 736 q 476 718 422 736 l 476 972 l 629 989 l 629 114 m 476 610 q 349 653 413 653 q 238 572 264 653 q 211 363 211 492 q 242 151 211 239 q 354 63 272 63 q 446 109 415 63 q 476 225 476 156 l 476 610 m 1226 708 l 1236 626 l 911 93 l 1246 104 l 1236 0 l 756 0 l 746 85 l 1067 614 l 758 596 l 769 708 l 1226 708 m 1157 1031 l 1199 982 l 997 799 l 992 799 l 785 982 l 825 1031 l 992 929 l 1157 1031 z "},"e":{"ha":636,"x_min":44,"x_max":594,"o":"m 539 196 q 571 136 571 181 q 538 48 571 86 q 451 -10 504 10 q 344 -31 399 -31 q 118 69 192 -31 q 44 336 44 168 q 124 626 44 515 q 367 736 204 736 q 532 683 469 736 q 594 532 594 629 q 510 363 594 411 q 282 314 426 314 q 206 317 242 314 q 242 142 210 207 q 358 76 275 76 q 466 108 419 76 q 539 196 513 139 m 344 657 q 239 578 269 657 q 206 386 208 500 q 267 383 247 383 q 442 524 442 383 q 417 619 442 581 q 344 657 393 657 z "},"é":{"ha":636,"x_min":44,"x_max":594,"o":"m 44 0 m 539 196 q 571 136 571 181 q 538 48 571 86 q 451 -10 504 10 q 344 -31 399 -31 q 118 69 192 -31 q 44 336 44 168 q 124 626 44 515 q 367 736 204 736 q 532 683 469 736 q 594 532 594 629 q 510 363 594 411 q 282 314 426 314 q 206 317 242 314 q 242 142 210 207 q 358 76 275 76 q 466 108 419 76 q 539 196 513 139 m 344 657 q 239 578 269 657 q 206 386 208 500 q 267 383 247 383 q 442 524 442 383 q 417 619 442 581 q 344 657 393 657 m 468 1054 q 515 1025 496 1047 q 533 975 533 1003 q 500 911 533 938 q 415 863 467 885 l 264 794 l 229 843 l 468 1054 z "},"ĕ":{"ha":636,"x_min":44,"x_max":594,"o":"m 44 0 m 539 196 q 571 136 571 181 q 538 48 571 86 q 451 -10 504 10 q 344 -31 399 -31 q 118 69 192 -31 q 44 336 44 168 q 124 626 44 515 q 367 736 204 736 q 532 683 469 736 q 594 532 594 629 q 510 363 594 411 q 282 314 426 314 q 206 317 242 314 q 242 142 210 207 q 358 76 275 76 q 466 108 419 76 q 539 196 513 139 m 344 657 q 239 578 269 657 q 206 386 208 500 q 267 383 247 383 q 442 524 442 383 q 417 619 442 581 q 344 657 393 657 m 553 1014 q 495 873 553 924 q 343 822 438 822 q 192 873 250 822 q 135 1014 135 924 l 261 1014 q 279 926 261 958 q 343 894 297 894 q 407 926 389 894 q 425 1014 425 958 l 553 1014 z "},"ě":{"ha":636,"x_min":44,"x_max":594,"o":"m 44 0 m 539 196 q 571 136 571 181 q 538 48 571 86 q 451 -10 504 10 q 344 -31 399 -31 q 118 69 192 -31 q 44 336 44 168 q 124 626 44 515 q 367 736 204 736 q 532 683 469 736 q 594 532 594 629 q 510 363 594 411 q 282 314 426 314 q 206 317 242 314 q 242 142 210 207 q 358 76 275 76 q 466 108 419 76 q 539 196 513 139 m 344 657 q 239 578 269 657 q 206 386 208 500 q 267 383 247 383 q 442 524 442 383 q 417 619 442 581 q 344 657 393 657 m 508 1031 l 550 982 l 349 799 l 343 799 l 136 982 l 176 1031 l 343 929 l 508 1031 z "},"ê":{"ha":636,"x_min":44,"x_max":594,"o":"m 44 0 m 539 196 q 571 136 571 181 q 538 48 571 86 q 451 -10 504 10 q 344 -31 399 -31 q 118 69 192 -31 q 44 336 44 168 q 124 626 44 515 q 367 736 204 736 q 532 683 469 736 q 594 532 594 629 q 510 363 594 411 q 282 314 426 314 q 206 317 242 314 q 242 142 210 207 q 358 76 275 76 q 466 108 419 76 q 539 196 513 139 m 344 657 q 239 578 269 657 q 206 386 208 500 q 267 383 247 383 q 442 524 442 383 q 417 619 442 581 q 344 657 393 657 m 178 799 l 138 847 l 339 1031 l 344 1031 l 551 847 l 510 799 l 343 900 l 178 799 z "},"ë":{"ha":636,"x_min":44,"x_max":594,"o":"m 44 0 m 539 196 q 571 136 571 181 q 538 48 571 86 q 451 -10 504 10 q 344 -31 399 -31 q 118 69 192 -31 q 44 336 44 168 q 124 626 44 515 q 367 736 204 736 q 532 683 469 736 q 594 532 594 629 q 510 363 594 411 q 282 314 426 314 q 206 317 242 314 q 242 142 210 207 q 358 76 275 76 q 466 108 419 76 q 539 196 513 139 m 344 657 q 239 578 269 657 q 206 386 208 500 q 267 383 247 383 q 442 524 442 383 q 417 619 442 581 q 344 657 393 657 m 483 1000 q 558 978 529 1000 q 586 914 586 956 q 556 848 586 871 q 479 825 526 825 q 406 847 433 825 q 378 911 378 869 q 408 977 378 954 q 483 1000 438 1000 m 207 1000 q 281 978 253 1000 q 310 914 310 956 q 280 848 310 871 q 203 825 250 825 q 129 847 157 825 q 101 911 101 869 q 131 977 101 954 q 207 1000 161 1000 z "},"ė":{"ha":636,"x_min":44,"x_max":594,"o":"m 44 0 m 539 196 q 571 136 571 181 q 538 48 571 86 q 451 -10 504 10 q 344 -31 399 -31 q 118 69 192 -31 q 44 336 44 168 q 124 626 44 515 q 367 736 204 736 q 532 683 469 736 q 594 532 594 629 q 510 363 594 411 q 282 314 426 314 q 206 317 242 314 q 242 142 210 207 q 358 76 275 76 q 466 108 419 76 q 539 196 513 139 m 344 657 q 239 578 269 657 q 206 386 208 500 q 267 383 247 383 q 442 524 442 383 q 417 619 442 581 q 344 657 393 657 m 343 1000 q 417 978 389 1000 q 446 914 446 956 q 416 848 446 871 q 339 825 386 825 q 265 847 293 825 q 238 911 238 869 q 267 977 238 954 q 343 1000 297 1000 z "},"ẹ":{"ha":636,"x_min":44,"x_max":594,"o":"m 44 0 m 539 196 q 571 136 571 181 q 538 48 571 86 q 451 -10 504 10 q 344 -31 399 -31 q 118 69 192 -31 q 44 336 44 168 q 124 626 44 515 q 367 736 204 736 q 532 683 469 736 q 594 532 594 629 q 510 363 594 411 q 282 314 426 314 q 206 317 242 314 q 242 142 210 207 q 358 76 275 76 q 466 108 419 76 q 539 196 513 139 m 344 657 q 239 578 269 657 q 206 386 208 500 q 267 383 247 383 q 442 524 442 383 q 417 619 442 581 q 344 657 393 657 m 340 -75 q 415 -97 386 -75 q 443 -161 443 -119 q 413 -227 443 -204 q 336 -250 383 -250 q 263 -228 290 -250 q 235 -164 235 -206 q 265 -98 235 -121 q 340 -75 294 -75 z "},"è":{"ha":636,"x_min":44,"x_max":594,"o":"m 44 0 m 539 196 q 571 136 571 181 q 538 48 571 86 q 451 -10 504 10 q 344 -31 399 -31 q 118 69 192 -31 q 44 336 44 168 q 124 626 44 515 q 367 736 204 736 q 532 683 469 736 q 594 532 594 629 q 510 363 594 411 q 282 314 426 314 q 206 317 242 314 q 242 142 210 207 q 358 76 275 76 q 466 108 419 76 q 539 196 513 139 m 344 657 q 239 578 269 657 q 206 386 208 500 q 267 383 247 383 q 442 524 442 383 q 417 619 442 581 q 344 657 393 657 m 271 863 q 188 911 221 885 q 154 975 154 938 q 173 1025 154 1003 q 219 1054 192 1047 l 458 843 l 424 794 l 271 863 z "},"ē":{"ha":636,"x_min":44,"x_max":594,"o":"m 44 0 m 539 196 q 571 136 571 181 q 538 48 571 86 q 451 -10 504 10 q 344 -31 399 -31 q 118 69 192 -31 q 44 336 44 168 q 124 626 44 515 q 367 736 204 736 q 532 683 469 736 q 594 532 594 629 q 510 363 594 411 q 282 314 426 314 q 206 317 242 314 q 242 142 210 207 q 358 76 275 76 q 466 108 419 76 q 539 196 513 139 m 344 657 q 239 578 269 657 q 206 386 208 500 q 267 383 247 383 q 442 524 442 383 q 417 619 442 581 q 344 657 393 657 m 524 964 q 535 911 535 936 q 515 866 535 882 q 454 850 494 850 l 163 850 q 153 900 153 872 q 172 947 153 931 q 224 964 190 964 l 524 964 z "},"ę":{"ha":636,"x_min":44,"x_max":594,"o":"m 571 136 q 499 14 571 63 q 418 -75 449 -24 q 388 -181 388 -126 q 405 -242 388 -222 q 465 -261 422 -261 q 531 -232 506 -261 q 546 -267 546 -244 q 513 -324 546 -306 q 432 -342 479 -342 q 324 -304 363 -342 q 285 -199 285 -267 q 361 -31 285 -107 l 344 -31 q 118 69 192 -31 q 44 336 44 168 q 124 626 44 515 q 367 736 204 736 q 532 683 469 736 q 594 532 594 629 q 510 363 594 411 q 282 314 426 314 q 206 317 242 314 q 242 142 210 207 q 358 76 275 76 q 466 108 419 76 q 539 196 513 139 q 571 136 571 181 m 344 657 q 239 578 269 657 q 206 386 208 500 q 267 383 247 383 q 442 524 442 383 q 417 619 442 581 q 344 657 393 657 z "},"ẽ":{"ha":636,"x_min":44,"x_max":594,"o":"m 44 0 m 539 196 q 571 136 571 181 q 538 48 571 86 q 451 -10 504 10 q 344 -31 399 -31 q 118 69 192 -31 q 44 336 44 168 q 124 626 44 515 q 367 736 204 736 q 532 683 469 736 q 594 532 594 629 q 510 363 594 411 q 282 314 426 314 q 206 317 242 314 q 242 142 210 207 q 358 76 275 76 q 466 108 419 76 q 539 196 513 139 m 344 657 q 239 578 269 657 q 206 386 208 500 q 267 383 247 383 q 442 524 442 383 q 417 619 442 581 q 344 657 393 657 m 517 968 q 543 938 533 957 q 553 897 553 918 q 529 847 553 864 q 468 829 506 829 q 351 846 438 829 q 243 863 271 863 q 169 842 192 863 q 142 872 151 853 q 132 913 132 892 q 156 963 132 946 q 218 981 181 981 q 335 964 251 981 q 442 947 415 947 q 517 968 493 947 z "},"ə":{"ha":636,"x_min":42,"x_max":592,"o":"m 292 736 q 518 637 444 736 q 592 369 592 538 q 512 80 592 190 q 269 -31 432 -31 q 104 23 167 -31 q 42 174 42 76 q 126 343 42 294 q 354 392 210 392 q 431 389 394 392 q 394 564 426 499 q 278 629 361 629 q 170 598 217 629 q 97 510 124 567 q 65 569 65 525 q 99 658 65 619 q 185 716 132 696 q 292 736 238 736 m 292 49 q 397 127 367 49 q 431 318 428 206 q 369 322 397 322 q 193 182 193 322 q 218 87 193 125 q 292 49 243 49 z "},"f":{"ha":435,"x_min":7,"x_max":571,"o":"m 106 -17 l 106 646 l 7 646 l 7 708 l 106 708 l 110 783 q 357 1000 122 1000 q 508 973 444 1000 q 571 882 571 946 q 542 810 571 835 q 463 785 513 785 q 407 800 426 785 q 418 863 418 833 q 401 919 418 899 q 349 939 383 939 q 276 898 294 939 q 257 783 257 857 l 257 708 l 408 708 l 408 646 l 258 646 l 258 0 l 106 -17 z "},"g":{"ha":721,"x_min":50,"x_max":629,"o":"m 343 -196 q 438 -152 407 -196 q 475 -47 468 -108 q 482 107 482 14 l 482 144 q 410 86 456 106 q 313 67 364 67 q 113 158 176 67 q 50 404 50 250 q 126 649 50 561 q 353 736 203 736 q 493 710 422 736 l 629 725 l 629 140 q 605 -85 629 6 q 515 -226 581 -175 q 331 -278 449 -278 q 162 -239 232 -278 q 92 -119 92 -200 q 121 -47 92 -72 q 200 -22 150 -22 q 256 -37 236 -22 q 246 -100 246 -67 q 343 -196 246 -196 m 476 608 q 347 653 411 653 q 242 585 271 653 q 214 411 214 517 q 242 229 214 299 q 353 160 271 160 q 446 206 415 160 q 476 322 476 251 l 476 608 z "},"ğ":{"ha":721,"x_min":50,"x_max":629,"o":"m 50 0 m 343 -196 q 438 -152 407 -196 q 475 -47 468 -108 q 482 107 482 14 l 482 144 q 410 86 456 106 q 313 67 364 67 q 113 158 176 67 q 50 404 50 250 q 126 649 50 561 q 353 736 203 736 q 493 710 422 736 l 629 725 l 629 140 q 605 -85 629 6 q 515 -226 581 -175 q 331 -278 449 -278 q 162 -239 232 -278 q 92 -119 92 -200 q 121 -47 92 -72 q 200 -22 150 -22 q 256 -37 236 -22 q 246 -100 246 -67 q 343 -196 246 -196 m 476 608 q 347 653 411 653 q 242 585 271 653 q 214 411 214 517 q 242 229 214 299 q 353 160 271 160 q 446 206 415 160 q 476 322 476 251 l 476 608 m 563 1014 q 505 873 563 924 q 353 822 447 822 q 202 873 260 822 q 144 1014 144 924 l 271 1014 q 289 926 271 958 q 353 894 307 894 q 417 926 399 894 q 435 1014 435 958 l 563 1014 z "},"ĝ":{"ha":721,"x_min":50,"x_max":629,"o":"m 50 0 m 343 -196 q 438 -152 407 -196 q 475 -47 468 -108 q 482 107 482 14 l 482 144 q 410 86 456 106 q 313 67 364 67 q 113 158 176 67 q 50 404 50 250 q 126 649 50 561 q 353 736 203 736 q 493 710 422 736 l 629 725 l 629 140 q 605 -85 629 6 q 515 -226 581 -175 q 331 -278 449 -278 q 162 -239 232 -278 q 92 -119 92 -200 q 121 -47 92 -72 q 200 -22 150 -22 q 256 -37 236 -22 q 246 -100 246 -67 q 343 -196 246 -196 m 476 608 q 347 653 411 653 q 242 585 271 653 q 214 411 214 517 q 242 229 214 299 q 353 160 271 160 q 446 206 415 160 q 476 322 476 251 l 476 608 m 188 799 l 147 847 l 349 1031 l 354 1031 l 561 847 l 519 799 l 353 900 l 188 799 z "},"ģ":{"ha":721,"x_min":50,"x_max":629,"o":"m 50 0 m 343 -196 q 438 -152 407 -196 q 475 -47 468 -108 q 482 107 482 14 l 482 144 q 410 86 456 106 q 313 67 364 67 q 113 158 176 67 q 50 404 50 250 q 126 649 50 561 q 353 736 203 736 q 493 710 422 736 l 629 725 l 629 140 q 605 -85 629 6 q 515 -226 581 -175 q 331 -278 449 -278 q 162 -239 232 -278 q 92 -119 92 -200 q 121 -47 92 -72 q 200 -22 150 -22 q 256 -37 236 -22 q 246 -100 246 -67 q 343 -196 246 -196 m 476 608 q 347 653 411 653 q 242 585 271 653 q 214 411 214 517 q 242 229 214 299 q 353 160 271 160 q 446 206 415 160 q 476 322 476 251 l 476 608 m 360 822 q 287 849 311 822 q 263 925 263 876 q 281 999 263 963 q 333 1059 300 1036 q 403 1082 365 1082 q 450 1074 425 1082 q 404 929 404 1007 q 410 881 404 901 q 431 839 417 861 q 360 822 400 822 z "},"ġ":{"ha":721,"x_min":50,"x_max":629,"o":"m 50 0 m 343 -196 q 438 -152 407 -196 q 475 -47 468 -108 q 482 107 482 14 l 482 144 q 410 86 456 106 q 313 67 364 67 q 113 158 176 67 q 50 404 50 250 q 126 649 50 561 q 353 736 203 736 q 493 710 422 736 l 629 725 l 629 140 q 605 -85 629 6 q 515 -226 581 -175 q 331 -278 449 -278 q 162 -239 232 -278 q 92 -119 92 -200 q 121 -47 92 -72 q 200 -22 150 -22 q 256 -37 236 -22 q 246 -100 246 -67 q 343 -196 246 -196 m 476 608 q 347 653 411 653 q 242 585 271 653 q 214 411 214 517 q 242 229 214 299 q 353 160 271 160 q 446 206 415 160 q 476 322 476 251 l 476 608 m 353 1000 q 427 978 399 1000 q 456 914 456 956 q 426 848 456 871 q 349 825 396 825 q 275 847 303 825 q 247 911 247 869 q 277 977 247 954 q 353 1000 307 1000 z "},"h":{"ha":739,"x_min":97,"x_max":693,"o":"m 250 832 q 236 610 250 681 q 318 704 265 672 q 442 736 371 736 q 604 672 558 736 q 650 475 650 607 l 650 114 q 693 22 650 46 q 657 -10 682 1 q 604 -21 632 -21 q 524 10 550 -21 q 497 96 497 40 l 497 456 q 478 586 497 543 q 392 629 458 629 q 278 554 307 629 q 250 361 250 479 l 250 0 l 97 0 l 97 972 l 250 989 l 250 832 z "},"ħ":{"ha":739,"x_min":8,"x_max":693,"o":"m 650 114 q 693 22 650 46 q 657 -10 682 1 q 604 -21 632 -21 q 524 10 550 -21 q 497 96 497 40 l 497 456 q 478 586 497 543 q 392 629 458 629 q 278 554 307 629 q 250 361 250 479 l 250 0 l 97 0 l 97 788 l 18 788 q 8 835 8 810 q 25 874 8 860 q 75 888 42 888 l 97 888 l 97 972 l 250 989 l 250 888 l 513 888 q 525 839 525 860 q 449 788 525 788 l 250 788 q 236 610 247 668 q 318 704 265 672 q 442 736 371 736 q 604 672 558 736 q 650 475 650 607 l 650 114 z "},"ĥ":{"ha":739,"x_min":-26,"x_max":693,"o":"m 0 0 m 250 832 q 236 610 250 681 q 318 704 265 672 q 442 736 371 736 q 604 672 558 736 q 650 475 650 607 l 650 114 q 693 22 650 46 q 657 -10 682 1 q 604 -21 632 -21 q 524 10 550 -21 q 497 96 497 40 l 497 456 q 478 586 497 543 q 392 629 458 629 q 278 554 307 629 q 250 361 250 479 l 250 0 l 97 0 l 97 972 l 250 989 l 250 832 m 14 979 l -26 1028 l 175 1211 l 181 1211 l 388 1028 l 346 979 l 179 1081 l 14 979 z "},"ḥ":{"ha":739,"x_min":97,"x_max":693,"o":"m 97 0 m 250 832 q 236 610 250 681 q 318 704 265 672 q 442 736 371 736 q 604 672 558 736 q 650 475 650 607 l 650 114 q 693 22 650 46 q 657 -10 682 1 q 604 -21 632 -21 q 524 10 550 -21 q 497 96 497 40 l 497 456 q 478 586 497 543 q 392 629 458 629 q 278 554 307 629 q 250 361 250 479 l 250 0 l 97 0 l 97 972 l 250 989 l 250 832 m 383 -75 q 458 -97 429 -75 q 486 -161 486 -119 q 456 -227 486 -204 q 379 -250 426 -250 q 306 -228 333 -250 q 278 -164 278 -206 q 308 -98 278 -121 q 383 -75 338 -75 z "},"i":{"ha":339,"x_min":64,"x_max":285,"o":"m 169 1000 q 244 978 215 1000 q 272 914 272 956 q 242 848 272 871 q 165 825 213 825 q 92 847 119 825 q 64 911 64 869 q 94 977 64 954 q 169 1000 124 1000 m 242 114 q 285 22 242 46 q 249 -10 274 1 q 194 -21 224 -21 q 115 10 142 -21 q 89 96 89 40 l 89 708 l 242 708 l 242 114 z "},"ı":{"ha":339,"x_min":89,"x_max":285,"o":"m 242 114 q 285 22 242 46 q 249 -10 274 1 q 194 -21 224 -21 q 115 10 142 -21 q 89 96 89 40 l 89 708 l 242 708 l 242 114 z "},"í":{"ha":339,"x_min":51,"x_max":356,"o":"m 51 0 m 242 114 q 285 22 242 46 q 249 -10 274 1 q 194 -21 224 -21 q 115 10 142 -21 q 89 96 89 40 l 89 708 l 242 708 l 242 114 m 290 1054 q 337 1025 318 1047 q 356 975 356 1003 q 322 911 356 938 q 238 863 289 885 l 86 794 l 51 843 l 290 1054 z "},"ĭ":{"ha":339,"x_min":-43,"x_max":375,"o":"m 0 0 m 242 114 q 285 22 242 46 q 249 -10 274 1 q 194 -21 224 -21 q 115 10 142 -21 q 89 96 89 40 l 89 708 l 242 708 l 242 114 m 375 1014 q 317 873 375 924 q 165 822 260 822 q 15 873 72 822 q -43 1014 -43 924 l 83 1014 q 101 926 83 958 q 165 894 119 894 q 229 926 211 894 q 247 1014 247 958 l 375 1014 z "},"î":{"ha":339,"x_min":-40,"x_max":374,"o":"m 0 0 m 242 114 q 285 22 242 46 q 249 -10 274 1 q 194 -21 224 -21 q 115 10 142 -21 q 89 96 89 40 l 89 708 l 242 708 l 242 114 m 0 799 l -40 847 l 161 1031 l 167 1031 l 374 847 l 332 799 l 165 900 l 0 799 z "},"ï":{"ha":339,"x_min":-76,"x_max":408,"o":"m 0 0 m 242 114 q 285 22 242 46 q 249 -10 274 1 q 194 -21 224 -21 q 115 10 142 -21 q 89 96 89 40 l 89 708 l 242 708 l 242 114 m 306 1000 q 380 978 351 1000 q 408 914 408 956 q 378 848 408 871 q 301 825 349 825 q 228 847 256 825 q 200 911 200 869 q 230 977 200 954 q 306 1000 260 1000 m 29 1000 q 103 978 75 1000 q 132 914 132 956 q 102 848 132 871 q 25 825 72 825 q -49 847 -21 825 q -76 911 -76 869 q -47 977 -76 954 q 29 1000 -17 1000 z "},"ị":{"ha":339,"x_min":64,"x_max":297,"o":"m 64 0 m 169 1000 q 244 978 215 1000 q 272 914 272 956 q 242 848 272 871 q 165 825 213 825 q 92 847 119 825 q 64 911 64 869 q 94 977 64 954 q 169 1000 124 1000 m 242 114 q 285 22 242 46 q 249 -10 274 1 q 194 -21 224 -21 q 115 10 142 -21 q 89 96 89 40 l 89 708 l 242 708 l 242 114 m 194 -75 q 269 -97 240 -75 q 297 -161 297 -119 q 267 -227 297 -204 q 190 -250 238 -250 q 117 -228 144 -250 q 89 -164 89 -206 q 119 -98 89 -121 q 194 -75 149 -75 z "},"ì":{"ha":339,"x_min":-24,"x_max":285,"o":"m 0 0 m 242 114 q 285 22 242 46 q 249 -10 274 1 q 194 -21 224 -21 q 115 10 142 -21 q 89 96 89 40 l 89 708 l 242 708 l 242 114 m 93 863 q 10 911 43 885 q -24 975 -24 938 q -5 1025 -24 1003 q 42 1054 14 1047 l 281 843 l 246 794 l 93 863 z "},"ĳ":{"ha":682,"x_min":64,"x_max":617,"o":"m 64 0 m 169 1000 q 244 978 215 1000 q 272 914 272 956 q 242 848 272 871 q 165 825 213 825 q 92 847 119 825 q 64 911 64 869 q 94 977 64 954 q 169 1000 124 1000 m 242 114 q 285 22 242 46 q 249 -10 274 1 q 194 -21 224 -21 q 115 10 142 -21 q 89 96 89 40 l 89 708 l 242 708 l 242 114 m 514 1000 q 588 978 560 1000 q 617 914 617 956 q 587 848 617 871 q 510 825 557 825 q 436 847 464 825 q 408 911 408 869 q 438 977 408 954 q 514 1000 468 1000 m 590 49 q 396 -278 590 -278 q 328 -262 357 -278 q 299 -217 299 -247 q 406 -154 376 -217 q 436 10 436 -92 l 436 708 l 590 708 l 590 49 z "},"ī":{"ha":339,"x_min":-25,"x_max":357,"o":"m 0 0 m 242 114 q 285 22 242 46 q 249 -10 274 1 q 194 -21 224 -21 q 115 10 142 -21 q 89 96 89 40 l 89 708 l 242 708 l 242 114 m 346 964 q 357 911 357 936 q 337 866 357 882 q 276 850 317 850 l -15 850 q -25 900 -25 872 q -6 947 -25 931 q 46 964 13 964 l 346 964 z "},"į":{"ha":339,"x_min":60,"x_max":328,"o":"m 161 825 q 88 847 115 825 q 60 911 60 869 q 90 977 60 954 q 165 1000 119 1000 q 240 978 211 1000 q 268 914 268 956 q 238 848 268 871 q 161 825 208 825 m 313 -232 q 328 -267 328 -244 q 294 -324 328 -306 q 214 -342 261 -342 q 106 -304 144 -342 q 67 -199 67 -267 q 91 -101 67 -147 q 158 -17 115 -54 q 89 96 89 4 l 89 708 l 242 708 l 242 114 q 285 22 242 46 q 279 14 282 17 l 281 14 l 278 11 q 257 -6 269 3 q 193 -87 217 -42 q 169 -181 169 -133 q 187 -242 169 -222 q 247 -261 204 -261 q 313 -232 288 -261 z "},"ĩ":{"ha":339,"x_min":-46,"x_max":375,"o":"m 0 0 m 242 114 q 285 22 242 46 q 249 -10 274 1 q 194 -21 224 -21 q 115 10 142 -21 q 89 96 89 40 l 89 708 l 242 708 l 242 114 m 339 968 q 365 938 356 957 q 375 897 375 918 q 351 847 375 864 q 290 829 328 829 q 174 846 260 829 q 65 863 93 863 q -8 842 14 863 q -36 872 -26 853 q -46 913 -46 892 q -22 963 -46 946 q 40 981 3 981 q 157 964 74 981 q 264 947 238 947 q 339 968 315 947 z "},"j":{"ha":343,"x_min":-40,"x_max":278,"o":"m 175 1000 q 249 978 221 1000 q 278 914 278 956 q 248 848 278 871 q 171 825 218 825 q 97 847 125 825 q 69 911 69 869 q 99 977 69 954 q 175 1000 129 1000 m 251 49 q 57 -278 251 -278 q -11 -262 18 -278 q -40 -217 -40 -247 q 67 -154 38 -217 q 97 10 97 -92 l 97 708 l 251 708 l 251 49 z "},"ȷ":{"ha":343,"x_min":-40,"x_max":251,"o":"m 251 49 q 215 -183 251 -89 q 79 -278 178 -278 q 8 -262 40 -278 q -40 -214 -25 -246 q 97 10 97 -214 l 97 708 l 251 708 l 251 49 z "},"ĵ":{"ha":343,"x_min":-40,"x_max":381,"o":"m 0 0 m 251 49 q 215 -183 251 -89 q 79 -278 178 -278 q 8 -262 40 -278 q -40 -214 -25 -246 q 97 10 97 -214 l 97 708 l 251 708 l 251 49 m 7 799 l -33 847 l 168 1031 l 174 1031 l 381 847 l 339 799 l 172 900 l 7 799 z "},"k":{"ha":663,"x_min":97,"x_max":668,"o":"m 97 0 l 97 972 l 250 989 l 250 0 l 97 0 m 501 708 l 663 708 l 422 414 l 668 0 l 490 0 l 269 389 l 501 708 z "},"ķ":{"ha":663,"x_min":97,"x_max":668,"o":"m 97 0 m 97 0 l 97 972 l 250 989 l 250 0 l 97 0 m 501 708 l 663 708 l 422 414 l 668 0 l 490 0 l 269 389 l 501 708 m 371 -69 q 444 -97 419 -69 q 468 -172 468 -124 q 449 -247 468 -210 q 398 -306 431 -283 q 328 -329 365 -329 q 281 -321 306 -329 q 326 -176 326 -254 q 320 -128 326 -149 q 300 -86 314 -108 q 371 -69 331 -69 z "},"ĸ":{"ha":663,"x_min":97,"x_max":668,"o":"m 97 0 l 97 708 l 250 725 l 250 0 l 97 0 m 501 708 l 663 708 l 422 414 l 668 0 l 490 0 l 269 389 l 501 708 z "},"l":{"ha":350,"x_min":94,"x_max":290,"o":"m 247 989 l 247 114 q 290 22 247 46 q 253 -10 279 1 q 200 -21 228 -21 q 121 10 147 -21 q 94 96 94 40 l 94 972 l 247 989 z "},"ĺ":{"ha":350,"x_min":63,"x_max":397,"o":"m 357 1163 q 386 1131 375 1150 q 397 1092 397 1113 q 356 1024 397 1042 q 243 1000 314 1006 l 78 988 l 63 1046 l 357 1163 m 247 961 l 247 114 q 290 22 247 46 q 253 -10 279 1 q 200 -21 228 -21 q 121 10 147 -21 q 94 96 94 40 l 94 944 l 247 961 z "},"ľ":{"ha":350,"x_min":94,"x_max":467,"o":"m 94 0 m 247 989 l 247 114 q 290 22 247 46 q 253 -10 279 1 q 200 -21 228 -21 q 121 10 147 -21 q 94 96 94 40 l 94 972 l 247 989 m 308 983 q 372 1000 336 1000 q 467 892 467 1000 q 449 821 467 856 q 401 764 431 786 q 336 742 371 742 q 290 750 311 742 q 335 889 335 817 q 308 983 335 939 z "},"ļ":{"ha":350,"x_min":94,"x_max":297,"o":"m 94 0 m 247 989 l 247 114 q 290 22 247 46 q 253 -10 279 1 q 200 -21 228 -21 q 121 10 147 -21 q 94 96 94 40 l 94 972 l 247 989 m 200 -69 q 273 -97 249 -69 q 297 -172 297 -124 q 278 -247 297 -210 q 227 -306 260 -283 q 157 -329 194 -329 q 110 -321 135 -329 q 156 -176 156 -254 q 149 -128 156 -149 q 129 -86 143 -108 q 200 -69 160 -69 z "},"ŀ":{"ha":374,"x_min":94,"x_max":438,"o":"m 247 989 l 247 114 q 290 22 247 46 q 253 -10 279 1 q 200 -21 228 -21 q 121 10 147 -21 q 94 96 94 40 l 94 972 l 247 989 m 357 539 q 414 517 390 539 q 438 460 438 496 q 413 400 438 422 q 353 378 388 378 q 296 399 319 378 q 272 457 272 421 q 297 517 272 494 q 357 539 322 539 z "},"ǉ":{"ha":350,"x_min":-44,"x_max":290,"o":"m 167 1006 q 93 1028 121 1006 q 65 1092 65 1050 q 95 1158 65 1135 q 171 1181 125 1181 q 245 1158 217 1181 q 274 1094 274 1136 q 244 1028 274 1051 q 167 1006 214 1006 m 247 114 q 290 22 247 46 q 253 -10 279 1 q 200 -21 228 -21 l 196 -21 q 53 -97 144 -97 q -15 -82 14 -97 q -44 -36 -44 -67 q 63 26 33 -36 q 93 190 93 89 l 93 889 l 94 889 l 94 972 l 247 989 l 247 114 z "},"ł":{"ha":447,"x_min":-15,"x_max":474,"o":"m 438 628 q 474 560 474 594 q 433 503 474 519 l 289 446 l 289 114 q 332 22 289 46 q 295 -10 321 1 q 242 -21 269 -21 q 163 10 189 -21 q 136 96 136 40 l 136 385 l 21 339 q -15 407 -15 372 q 25 464 -15 447 l 136 508 l 136 972 l 289 989 l 289 568 l 438 628 z "},"m":{"ha":1124,"x_min":92,"x_max":1078,"o":"m 92 708 l 219 725 l 226 600 q 308 701 253 667 q 436 736 363 736 q 564 703 518 736 q 629 607 610 671 q 826 736 683 736 q 989 672 943 736 q 1035 475 1035 607 l 1035 114 q 1078 22 1035 46 q 1042 -10 1067 1 q 989 -21 1017 -21 q 908 10 935 -21 q 882 96 882 40 l 882 456 q 863 586 882 543 q 776 629 843 629 q 671 554 697 629 q 644 361 644 479 l 644 0 l 492 0 l 492 456 q 472 586 492 543 q 386 629 453 629 q 273 554 301 629 q 244 361 244 479 l 244 0 l 92 0 l 92 708 z "},"n":{"ha":733,"x_min":92,"x_max":688,"o":"m 92 708 l 219 725 l 226 600 q 308 701 253 667 q 436 736 363 736 q 599 672 553 736 q 644 475 644 607 l 644 114 q 688 22 644 46 q 651 -10 676 1 q 599 -21 626 -21 q 518 10 544 -21 q 492 96 492 40 l 492 456 q 472 586 492 543 q 386 629 453 629 q 273 554 301 629 q 244 361 244 479 l 244 0 l 92 0 l 92 708 z "},"ń":{"ha":733,"x_min":92,"x_max":688,"o":"m 92 0 m 92 708 l 219 725 l 226 600 q 308 701 253 667 q 436 736 363 736 q 599 672 553 736 q 644 475 644 607 l 644 114 q 688 22 644 46 q 651 -10 676 1 q 599 -21 626 -21 q 518 10 544 -21 q 492 96 492 40 l 492 456 q 472 586 492 543 q 386 629 453 629 q 273 554 301 629 q 244 361 244 479 l 244 0 l 92 0 l 92 708 m 519 1054 q 566 1025 547 1047 q 585 975 585 1003 q 551 911 585 938 q 467 863 518 885 l 315 794 l 281 843 l 519 1054 z "},"ŉ":{"ha":733,"x_min":-78,"x_max":688,"o":"m 0 0 m 92 708 l 219 725 l 226 600 q 308 701 253 667 q 436 736 363 736 q 599 672 553 736 q 644 475 644 607 l 644 114 q 688 22 644 46 q 651 -10 676 1 q 599 -21 626 -21 q 518 10 544 -21 q 492 96 492 40 l 492 456 q 472 586 492 543 q 386 629 453 629 q 273 554 301 629 q 244 361 244 479 l 244 0 l 92 0 l 92 708 m 14 990 q 108 867 108 990 q 90 785 108 825 q 40 719 71 744 q -29 694 8 694 q -78 704 -57 694 q -24 864 -24 783 q -50 974 -24 922 q 14 990 -22 990 z "},"ň":{"ha":733,"x_min":92,"x_max":688,"o":"m 92 0 m 92 708 l 219 725 l 226 600 q 308 701 253 667 q 436 736 363 736 q 599 672 553 736 q 644 475 644 607 l 644 114 q 688 22 644 46 q 651 -10 676 1 q 599 -21 626 -21 q 518 10 544 -21 q 492 96 492 40 l 492 456 q 472 586 492 543 q 386 629 453 629 q 273 554 301 629 q 244 361 244 479 l 244 0 l 92 0 l 92 708 m 560 1031 l 601 982 l 400 799 l 394 799 l 188 982 l 228 1031 l 394 929 l 560 1031 z "},"ņ":{"ha":733,"x_min":92,"x_max":688,"o":"m 92 0 m 92 708 l 219 725 l 226 600 q 308 701 253 667 q 436 736 363 736 q 599 672 553 736 q 644 475 644 607 l 644 114 q 688 22 644 46 q 651 -10 676 1 q 599 -21 626 -21 q 518 10 544 -21 q 492 96 492 40 l 492 456 q 472 586 492 543 q 386 629 453 629 q 273 554 301 629 q 244 361 244 479 l 244 0 l 92 0 l 92 708 m 394 -69 q 467 -97 443 -69 q 492 -172 492 -124 q 473 -247 492 -210 q 422 -306 454 -283 q 351 -329 389 -329 q 304 -321 329 -329 q 350 -176 350 -254 q 344 -128 350 -149 q 324 -86 338 -108 q 394 -69 354 -69 z "},"ṅ":{"ha":733,"x_min":92,"x_max":688,"o":"m 92 0 m 92 708 l 219 725 l 226 600 q 308 701 253 667 q 436 736 363 736 q 599 672 553 736 q 644 475 644 607 l 644 114 q 688 22 644 46 q 651 -10 676 1 q 599 -21 626 -21 q 518 10 544 -21 q 492 96 492 40 l 492 456 q 472 586 492 543 q 386 629 453 629 q 273 554 301 629 q 244 361 244 479 l 244 0 l 92 0 l 92 708 m 394 1000 q 469 978 440 1000 q 497 914 497 956 q 467 848 497 871 q 390 825 438 825 q 317 847 344 825 q 289 911 289 869 q 319 977 289 954 q 394 1000 349 1000 z "},"ŋ":{"ha":706,"x_min":92,"x_max":644,"o":"m 492 456 q 472 586 492 543 q 386 629 453 629 q 273 554 301 629 q 244 361 244 479 l 244 0 l 92 0 l 92 708 l 219 725 l 226 600 q 308 701 253 667 q 436 736 363 736 q 599 672 553 736 q 644 475 644 607 l 644 49 q 451 -278 644 -278 q 383 -262 413 -278 q 354 -217 354 -247 q 462 -154 432 -217 q 492 10 492 -92 l 492 456 z "},"ǌ":{"ha":733,"x_min":92,"x_max":688,"o":"m 390 825 q 317 847 344 825 q 289 911 289 869 q 319 977 289 954 q 394 1000 349 1000 q 469 978 440 1000 q 497 914 497 956 q 467 848 497 871 q 390 825 438 825 m 644 114 q 688 22 644 46 q 651 -10 676 1 q 599 -21 626 -21 q 518 10 544 -21 q 492 96 492 40 l 492 456 q 488 533 492 501 q 471 588 483 565 l 471 49 q 276 -278 471 -278 q 208 -262 238 -278 q 179 -217 179 -247 q 287 -154 257 -217 q 317 10 317 -92 l 317 608 q 259 515 274 579 q 244 361 244 450 l 244 0 l 92 0 l 92 708 l 219 725 l 226 600 q 317 707 256 674 l 317 708 l 319 708 q 436 736 371 736 q 599 672 553 736 q 644 475 644 607 l 644 114 z "},"ñ":{"ha":733,"x_min":92,"x_max":688,"o":"m 92 0 m 92 708 l 219 725 l 226 600 q 308 701 253 667 q 436 736 363 736 q 599 672 553 736 q 644 475 644 607 l 644 114 q 688 22 644 46 q 651 -10 676 1 q 599 -21 626 -21 q 518 10 544 -21 q 492 96 492 40 l 492 456 q 472 586 492 543 q 386 629 453 629 q 273 554 301 629 q 244 361 244 479 l 244 0 l 92 0 l 92 708 m 568 968 q 594 938 585 957 q 604 897 604 918 q 581 847 604 864 q 519 829 557 829 q 403 846 489 829 q 294 863 322 863 q 221 842 243 863 q 193 872 203 853 q 183 913 183 892 q 208 963 183 946 q 269 981 232 981 q 386 964 303 981 q 493 947 467 947 q 568 968 544 947 z "},"o":{"ha":699,"x_min":44,"x_max":654,"o":"m 349 736 q 579 635 504 736 q 654 364 654 535 q 582 76 654 182 q 349 -31 510 -31 q 117 71 190 -31 q 44 350 44 172 q 119 629 44 522 q 349 736 194 736 m 349 53 q 461 138 435 53 q 488 357 488 222 q 459 567 488 481 q 349 653 431 653 q 211 357 211 653 q 237 138 211 222 q 349 53 263 53 z "},"ó":{"ha":699,"x_min":44,"x_max":654,"o":"m 44 0 m 349 736 q 579 635 504 736 q 654 364 654 535 q 582 76 654 182 q 349 -31 510 -31 q 117 71 190 -31 q 44 350 44 172 q 119 629 44 522 q 349 736 194 736 m 349 53 q 461 138 435 53 q 488 357 488 222 q 459 567 488 481 q 349 653 431 653 q 211 357 211 653 q 237 138 211 222 q 349 53 263 53 m 474 1054 q 520 1025 501 1047 q 539 975 539 1003 q 506 911 539 938 q 421 863 472 885 l 269 794 l 235 843 l 474 1054 z "},"ŏ":{"ha":699,"x_min":44,"x_max":654,"o":"m 44 0 m 349 736 q 579 635 504 736 q 654 364 654 535 q 582 76 654 182 q 349 -31 510 -31 q 117 71 190 -31 q 44 350 44 172 q 119 629 44 522 q 349 736 194 736 m 349 53 q 461 138 435 53 q 488 357 488 222 q 459 567 488 481 q 349 653 431 653 q 211 357 211 653 q 237 138 211 222 q 349 53 263 53 m 558 1014 q 501 873 558 924 q 349 822 443 822 q 198 873 256 822 q 140 1014 140 924 l 267 1014 q 285 926 267 958 q 349 894 303 894 q 413 926 394 894 q 431 1014 431 958 l 558 1014 z "},"ô":{"ha":699,"x_min":44,"x_max":654,"o":"m 44 0 m 349 736 q 579 635 504 736 q 654 364 654 535 q 582 76 654 182 q 349 -31 510 -31 q 117 71 190 -31 q 44 350 44 172 q 119 629 44 522 q 349 736 194 736 m 349 53 q 461 138 435 53 q 488 357 488 222 q 459 567 488 481 q 349 653 431 653 q 211 357 211 653 q 237 138 211 222 q 349 53 263 53 m 183 799 l 143 847 l 344 1031 l 350 1031 l 557 847 l 515 799 l 349 900 l 183 799 z "},"ö":{"ha":699,"x_min":44,"x_max":654,"o":"m 44 0 m 349 736 q 579 635 504 736 q 654 364 654 535 q 582 76 654 182 q 349 -31 510 -31 q 117 71 190 -31 q 44 350 44 172 q 119 629 44 522 q 349 736 194 736 m 349 53 q 461 138 435 53 q 488 357 488 222 q 459 567 488 481 q 349 653 431 653 q 211 357 211 653 q 237 138 211 222 q 349 53 263 53 m 489 1000 q 563 978 535 1000 q 592 914 592 956 q 562 848 592 871 q 485 825 532 825 q 411 847 439 825 q 383 911 383 869 q 413 977 383 954 q 489 1000 443 1000 m 213 1000 q 287 978 258 1000 q 315 914 315 956 q 285 848 315 871 q 208 825 256 825 q 135 847 163 825 q 107 911 107 869 q 137 977 107 954 q 213 1000 167 1000 z "},"ọ":{"ha":699,"x_min":44,"x_max":654,"o":"m 44 0 m 349 736 q 579 635 504 736 q 654 364 654 535 q 582 76 654 182 q 349 -31 510 -31 q 117 71 190 -31 q 44 350 44 172 q 119 629 44 522 q 349 736 194 736 m 349 53 q 461 138 435 53 q 488 357 488 222 q 459 567 488 481 q 349 653 431 653 q 211 357 211 653 q 237 138 211 222 q 349 53 263 53 m 344 -75 q 419 -97 390 -75 q 447 -161 447 -119 q 417 -227 447 -204 q 340 -250 388 -250 q 267 -228 294 -250 q 239 -164 239 -206 q 269 -98 239 -121 q 344 -75 299 -75 z "},"ò":{"ha":699,"x_min":44,"x_max":654,"o":"m 44 0 m 349 736 q 579 635 504 736 q 654 364 654 535 q 582 76 654 182 q 349 -31 510 -31 q 117 71 190 -31 q 44 350 44 172 q 119 629 44 522 q 349 736 194 736 m 349 53 q 461 138 435 53 q 488 357 488 222 q 459 567 488 481 q 349 653 431 653 q 211 357 211 653 q 237 138 211 222 q 349 53 263 53 m 276 863 q 193 911 226 885 q 160 975 160 938 q 178 1025 160 1003 q 225 1054 197 1047 l 464 843 l 429 794 l 276 863 z "},"ő":{"ha":699,"x_min":44,"x_max":657,"o":"m 44 0 m 349 736 q 579 635 504 736 q 654 364 654 535 q 582 76 654 182 q 349 -31 510 -31 q 117 71 190 -31 q 44 350 44 172 q 119 629 44 522 q 349 736 194 736 m 349 53 q 461 138 435 53 q 488 357 488 222 q 459 567 488 481 q 349 653 431 653 q 211 357 211 653 q 237 138 211 222 q 349 53 263 53 m 332 1074 q 398 1054 371 1074 q 425 1000 425 1035 q 404 941 425 971 q 349 876 383 911 l 239 769 l 186 804 l 332 1074 m 564 1074 q 630 1054 603 1074 q 657 1000 657 1035 q 635 941 657 971 q 579 876 614 911 l 471 769 l 418 804 l 564 1074 z "},"ō":{"ha":699,"x_min":44,"x_max":654,"o":"m 44 0 m 349 736 q 579 635 504 736 q 654 364 654 535 q 582 76 654 182 q 349 -31 510 -31 q 117 71 190 -31 q 44 350 44 172 q 119 629 44 522 q 349 736 194 736 m 349 53 q 461 138 435 53 q 488 357 488 222 q 459 567 488 481 q 349 653 431 653 q 211 357 211 653 q 237 138 211 222 q 349 53 263 53 m 529 964 q 540 911 540 936 q 520 866 540 882 q 460 850 500 850 l 168 850 q 158 900 158 872 q 177 947 158 931 q 229 964 196 964 l 529 964 z "},"ǫ":{"ha":699,"x_min":44,"x_max":654,"o":"m 654 364 q 616 137 654 231 q 494 1 578 43 l 496 0 q 415 -89 446 -37 q 385 -194 385 -140 q 402 -256 385 -236 q 463 -275 419 -275 q 528 -246 503 -275 q 543 -281 543 -258 q 510 -337 543 -319 q 429 -356 476 -356 q 321 -318 360 -356 q 282 -212 282 -281 q 374 -29 282 -111 q 349 -31 365 -31 q 117 71 190 -31 q 44 350 44 172 q 119 629 44 522 q 349 736 194 736 q 579 635 504 736 q 654 364 654 535 m 211 357 q 237 138 211 222 q 349 53 263 53 q 461 138 435 53 q 488 357 488 222 q 459 567 488 481 q 349 653 431 653 q 211 357 211 653 z "},"ø":{"ha":699,"x_min":33,"x_max":688,"o":"m 688 757 q 667 708 688 738 l 597 610 q 654 364 654 517 q 582 76 654 182 q 349 -31 510 -31 q 174 17 242 -31 l 110 -74 q 60 -54 88 -69 q 33 -15 33 -39 q 54 33 33 4 l 100 97 q 44 350 44 190 q 119 629 44 522 q 349 736 194 736 q 522 689 454 736 l 613 815 q 660 796 633 811 q 688 757 688 781 m 211 357 q 214 257 211 292 l 450 588 q 349 653 415 653 q 211 357 211 653 m 488 357 q 483 451 488 404 l 246 118 q 349 53 281 53 q 461 138 435 53 q 488 357 488 222 z "},"ǿ":{"ha":699,"x_min":33,"x_max":688,"o":"m 33 0 m 688 757 q 667 708 688 738 l 597 610 q 654 364 654 517 q 582 76 654 182 q 349 -31 510 -31 q 174 17 242 -31 l 110 -74 q 60 -54 88 -69 q 33 -15 33 -39 q 54 33 33 4 l 100 97 q 44 350 44 190 q 119 629 44 522 q 349 736 194 736 q 522 689 454 736 l 613 815 q 660 796 633 811 q 688 757 688 781 m 211 357 q 214 257 211 292 l 450 588 q 349 653 415 653 q 211 357 211 653 m 488 357 q 483 451 488 404 l 246 118 q 349 53 281 53 q 461 138 435 53 q 488 357 488 222 m 490 1054 q 537 1025 518 1047 q 556 975 556 1003 q 522 911 556 938 q 438 863 489 885 l 286 794 l 251 843 l 490 1054 z "},"õ":{"ha":699,"x_min":44,"x_max":654,"o":"m 44 0 m 349 736 q 579 635 504 736 q 654 364 654 535 q 582 76 654 182 q 349 -31 510 -31 q 117 71 190 -31 q 44 350 44 172 q 119 629 44 522 q 349 736 194 736 m 349 53 q 461 138 435 53 q 488 357 488 222 q 459 567 488 481 q 349 653 431 653 q 211 357 211 653 q 237 138 211 222 q 349 53 263 53 m 522 968 q 549 938 539 957 q 558 897 558 918 q 535 847 558 864 q 474 829 511 829 q 357 846 443 829 q 249 863 276 863 q 175 842 197 863 q 147 872 157 853 q 138 913 138 892 q 162 963 138 946 q 224 981 186 981 q 340 964 257 981 q 447 947 421 947 q 522 968 499 947 z "},"œ":{"ha":1079,"x_min":44,"x_max":1038,"o":"m 982 196 q 1014 136 1014 181 q 981 48 1014 86 q 894 -10 947 10 q 788 -31 842 -31 q 569 60 646 -31 q 349 -31 493 -31 q 117 71 190 -31 q 44 350 44 172 q 119 629 44 522 q 349 736 194 736 q 578 638 497 736 q 810 736 663 736 q 975 683 913 736 q 1038 532 1038 629 q 953 363 1038 411 q 725 314 869 314 q 649 317 685 314 q 685 142 653 207 q 801 76 718 76 q 909 108 863 76 q 982 196 956 139 m 788 657 q 682 578 713 657 q 649 388 651 500 q 710 383 682 383 q 886 524 886 383 q 861 619 886 581 q 788 657 836 657 m 488 357 q 459 567 488 481 q 349 653 431 653 q 211 357 211 653 q 237 138 211 222 q 349 53 263 53 q 459 132 432 53 q 488 336 486 211 l 488 357 z "},"p":{"ha":726,"x_min":97,"x_max":682,"o":"m 440 736 q 626 631 571 736 q 682 364 682 526 q 606 78 682 186 q 371 -31 529 -31 q 250 -12 304 -31 l 250 -251 l 97 -268 l 97 708 l 225 725 l 232 600 q 440 736 290 736 m 386 629 q 282 572 314 629 q 250 426 250 514 l 250 96 q 378 53 314 53 q 489 139 463 53 q 515 357 515 225 q 492 555 515 481 q 386 629 468 629 z "},"þ":{"ha":726,"x_min":97,"x_max":682,"o":"m 250 832 q 236 610 250 681 q 440 736 294 736 q 626 631 571 736 q 682 364 682 526 q 606 78 682 186 q 371 -31 529 -31 q 250 -12 304 -31 l 250 -251 l 97 -268 l 97 972 l 250 989 l 250 832 m 386 629 q 282 572 314 629 q 250 426 250 514 l 250 96 q 378 53 314 53 q 489 139 463 53 q 515 357 515 225 q 492 555 515 481 q 386 629 468 629 z "},"q":{"ha":728,"x_min":44,"x_max":631,"o":"m 478 -126 q 493 64 478 -15 q 422 -6 471 18 q 315 -31 372 -31 q 109 78 174 -31 q 44 356 44 186 q 120 633 44 531 q 354 736 196 736 q 494 710 424 736 l 631 725 l 631 -250 l 478 -267 l 478 -126 m 478 608 q 349 653 413 653 q 238 572 264 653 q 211 363 211 492 q 242 151 211 240 q 356 63 272 63 q 447 109 417 63 q 478 225 478 156 l 478 608 z "},"r":{"ha":549,"x_min":92,"x_max":558,"o":"m 339 629 q 262 549 279 629 q 244 358 244 469 l 244 0 l 92 0 l 92 708 l 219 725 l 226 600 q 294 699 246 663 q 407 736 343 736 q 517 696 476 736 q 558 586 558 656 q 450 474 558 474 q 394 489 414 474 q 404 551 404 525 q 339 629 404 629 z "},"ŕ":{"ha":549,"x_min":61,"x_max":558,"o":"m 61 0 m 339 629 q 262 549 279 629 q 244 358 244 469 l 244 0 l 92 0 l 92 708 l 219 725 l 226 600 q 294 699 246 663 q 407 736 343 736 q 517 696 476 736 q 558 586 558 656 q 450 474 558 474 q 394 489 414 474 q 404 551 404 525 q 339 629 404 629 m 300 1054 q 347 1025 328 1047 q 365 975 365 1003 q 332 911 365 938 q 247 863 299 885 l 96 794 l 61 843 l 300 1054 z "},"ř":{"ha":549,"x_min":-32,"x_max":558,"o":"m 0 0 m 339 629 q 262 549 279 629 q 244 358 244 469 l 244 0 l 92 0 l 92 708 l 219 725 l 226 600 q 294 699 246 663 q 407 736 343 736 q 517 696 476 736 q 558 586 558 656 q 450 474 558 474 q 394 489 414 474 q 404 551 404 525 q 339 629 404 629 m 340 1031 l 382 982 l 181 799 l 175 799 l -32 982 l 8 1031 l 175 929 l 340 1031 z "},"ŗ":{"ha":549,"x_min":78,"x_max":558,"o":"m 78 0 m 339 629 q 262 549 279 629 q 244 358 244 469 l 244 0 l 92 0 l 92 708 l 219 725 l 226 600 q 294 699 246 663 q 407 736 343 736 q 517 696 476 736 q 558 586 558 656 q 450 474 558 474 q 394 489 414 474 q 404 551 404 525 q 339 629 404 629 m 168 -69 q 241 -97 217 -69 q 265 -172 265 -124 q 247 -247 265 -210 q 195 -306 228 -283 q 125 -329 163 -329 q 78 -321 103 -329 q 124 -176 124 -254 q 117 -128 124 -149 q 97 -86 111 -108 q 168 -69 128 -69 z "},"ṛ":{"ha":549,"x_min":63,"x_max":558,"o":"m 63 0 m 339 629 q 262 549 279 629 q 244 358 244 469 l 244 0 l 92 0 l 92 708 l 219 725 l 226 600 q 294 699 246 663 q 407 736 343 736 q 517 696 476 736 q 558 586 558 656 q 450 474 558 474 q 394 489 414 474 q 404 551 404 525 q 339 629 404 629 m 168 -75 q 242 -97 214 -75 q 271 -161 271 -119 q 241 -227 271 -204 q 164 -250 211 -250 q 90 -228 118 -250 q 63 -164 63 -206 q 92 -98 63 -121 q 168 -75 122 -75 z "},"s":{"ha":617,"x_min":56,"x_max":563,"o":"m 317 663 q 250 641 275 663 q 225 579 225 619 q 262 491 225 525 q 375 415 299 457 q 473 356 436 382 q 536 288 510 329 q 563 189 563 247 q 487 26 563 83 q 294 -31 411 -31 q 124 4 193 -31 q 56 119 56 39 q 85 192 56 167 q 164 217 114 217 q 219 201 200 217 q 208 139 208 168 q 236 69 208 94 q 311 43 264 43 q 390 70 363 43 q 417 150 417 97 q 380 238 417 204 q 267 314 343 272 q 169 375 206 349 q 106 442 132 401 q 79 542 79 483 q 154 685 79 635 q 336 736 229 736 q 498 701 435 736 q 561 585 561 665 q 531 513 561 538 q 451 488 501 488 q 396 503 415 488 q 407 565 407 536 q 384 637 407 611 q 317 663 361 663 z "},"ś":{"ha":617,"x_min":56,"x_max":563,"o":"m 56 0 m 317 663 q 250 641 275 663 q 225 579 225 619 q 262 491 225 525 q 375 415 299 457 q 473 356 436 382 q 536 288 510 329 q 563 189 563 247 q 487 26 563 83 q 294 -31 411 -31 q 124 4 193 -31 q 56 119 56 39 q 85 192 56 167 q 164 217 114 217 q 219 201 200 217 q 208 139 208 168 q 236 69 208 94 q 311 43 264 43 q 390 70 363 43 q 417 150 417 97 q 380 238 417 204 q 267 314 343 272 q 169 375 206 349 q 106 442 132 401 q 79 542 79 483 q 154 685 79 635 q 336 736 229 736 q 498 701 435 736 q 561 585 561 665 q 531 513 561 538 q 451 488 501 488 q 396 503 415 488 q 407 565 407 536 q 384 637 407 611 q 317 663 361 663 m 442 1054 q 488 1025 469 1047 q 507 975 507 1003 q 474 911 507 938 q 389 863 440 885 l 238 794 l 203 843 l 442 1054 z "},"š":{"ha":617,"x_min":56,"x_max":563,"o":"m 56 0 m 317 663 q 250 641 275 663 q 225 579 225 619 q 262 491 225 525 q 375 415 299 457 q 473 356 436 382 q 536 288 510 329 q 563 189 563 247 q 487 26 563 83 q 294 -31 411 -31 q 124 4 193 -31 q 56 119 56 39 q 85 192 56 167 q 164 217 114 217 q 219 201 200 217 q 208 139 208 168 q 236 69 208 94 q 311 43 264 43 q 390 70 363 43 q 417 150 417 97 q 380 238 417 204 q 267 314 343 272 q 169 375 206 349 q 106 442 132 401 q 79 542 79 483 q 154 685 79 635 q 336 736 229 736 q 498 701 435 736 q 561 585 561 665 q 531 513 561 538 q 451 488 501 488 q 396 503 415 488 q 407 565 407 536 q 384 637 407 611 q 317 663 361 663 m 482 1031 l 524 982 l 322 799 l 317 799 l 110 982 l 150 1031 l 317 929 l 482 1031 z "},"ş":{"ha":617,"x_min":56,"x_max":563,"o":"m 563 189 q 488 28 563 85 q 300 -31 414 -29 l 278 -90 q 317 -89 290 -89 q 429 -120 388 -89 q 471 -214 471 -151 q 417 -313 471 -275 q 289 -351 363 -351 q 197 -333 238 -351 q 157 -274 157 -314 q 171 -239 157 -251 q 268 -278 206 -278 q 333 -263 307 -278 q 358 -218 358 -249 q 328 -168 358 -182 q 246 -154 297 -154 q 188 -158 215 -154 l 236 -28 q 106 17 156 -18 q 56 119 56 51 q 85 192 56 167 q 164 217 114 217 q 219 201 200 217 q 208 139 208 168 q 236 69 208 94 q 311 43 264 43 q 390 70 363 43 q 417 150 417 97 q 380 238 417 204 q 267 314 343 272 q 169 375 206 349 q 106 442 132 401 q 79 542 79 483 q 154 685 79 635 q 336 736 229 736 q 498 701 435 736 q 561 585 561 665 q 531 513 561 538 q 451 488 501 488 q 396 503 415 488 q 407 565 407 536 q 384 637 407 611 q 317 663 361 663 q 250 641 275 663 q 225 579 225 619 q 262 491 225 525 q 375 415 299 457 q 473 356 436 382 q 536 288 510 329 q 563 189 563 247 z "},"ŝ":{"ha":617,"x_min":56,"x_max":563,"o":"m 56 0 m 317 663 q 250 641 275 663 q 225 579 225 619 q 262 491 225 525 q 375 415 299 457 q 473 356 436 382 q 536 288 510 329 q 563 189 563 247 q 487 26 563 83 q 294 -31 411 -31 q 124 4 193 -31 q 56 119 56 39 q 85 192 56 167 q 164 217 114 217 q 219 201 200 217 q 208 139 208 168 q 236 69 208 94 q 311 43 264 43 q 390 70 363 43 q 417 150 417 97 q 380 238 417 204 q 267 314 343 272 q 169 375 206 349 q 106 442 132 401 q 79 542 79 483 q 154 685 79 635 q 336 736 229 736 q 498 701 435 736 q 561 585 561 665 q 531 513 561 538 q 451 488 501 488 q 396 503 415 488 q 407 565 407 536 q 384 637 407 611 q 317 663 361 663 m 151 799 l 111 847 l 313 1031 l 318 1031 l 525 847 l 483 799 l 317 900 l 151 799 z "},"ș":{"ha":617,"x_min":56,"x_max":563,"o":"m 56 0 m 317 663 q 250 641 275 663 q 225 579 225 619 q 262 491 225 525 q 375 415 299 457 q 473 356 436 382 q 536 288 510 329 q 563 189 563 247 q 487 26 563 83 q 294 -31 411 -31 q 124 4 193 -31 q 56 119 56 39 q 85 192 56 167 q 164 217 114 217 q 219 201 200 217 q 208 139 208 168 q 236 69 208 94 q 311 43 264 43 q 390 70 363 43 q 417 150 417 97 q 380 238 417 204 q 267 314 343 272 q 169 375 206 349 q 106 442 132 401 q 79 542 79 483 q 154 685 79 635 q 336 736 229 736 q 498 701 435 736 q 561 585 561 665 q 531 513 561 538 q 451 488 501 488 q 396 503 415 488 q 407 565 407 536 q 384 637 407 611 q 317 663 361 663 m 311 -69 q 384 -97 360 -69 q 408 -172 408 -124 q 390 -247 408 -210 q 338 -306 371 -283 q 268 -329 306 -329 q 221 -321 246 -329 q 267 -176 267 -254 q 260 -128 267 -149 q 240 -86 254 -108 q 311 -69 271 -69 z "},"ṣ":{"ha":617,"x_min":56,"x_max":563,"o":"m 56 0 m 317 663 q 250 641 275 663 q 225 579 225 619 q 262 491 225 525 q 375 415 299 457 q 473 356 436 382 q 536 288 510 329 q 563 189 563 247 q 487 26 563 83 q 294 -31 411 -31 q 124 4 193 -31 q 56 119 56 39 q 85 192 56 167 q 164 217 114 217 q 219 201 200 217 q 208 139 208 168 q 236 69 208 94 q 311 43 264 43 q 390 70 363 43 q 417 150 417 97 q 380 238 417 204 q 267 314 343 272 q 169 375 206 349 q 106 442 132 401 q 79 542 79 483 q 154 685 79 635 q 336 736 229 736 q 498 701 435 736 q 561 585 561 665 q 531 513 561 538 q 451 488 501 488 q 396 503 415 488 q 407 565 407 536 q 384 637 407 611 q 317 663 361 663 m 311 -75 q 385 -97 357 -75 q 414 -161 414 -119 q 384 -227 414 -204 q 307 -250 354 -250 q 233 -228 261 -250 q 206 -164 206 -206 q 235 -98 206 -121 q 311 -75 265 -75 z "},"ß":{"ha":833,"x_min":-40,"x_max":819,"o":"m 97 763 q 174 945 97 890 q 392 1000 250 1000 q 583 965 503 1000 q 664 846 664 929 q 639 773 664 806 q 565 697 614 740 q 503 635 524 661 q 482 579 482 608 q 519 491 482 525 q 632 415 556 457 q 730 356 693 382 q 793 288 767 329 q 819 189 819 247 q 744 26 819 83 q 551 -31 668 -31 q 381 4 450 -31 q 313 119 313 39 q 342 192 313 167 q 421 217 371 217 q 452 213 436 217 q 478 201 468 208 q 467 139 467 168 q 494 68 467 93 q 568 43 522 43 q 647 70 619 43 q 674 150 674 97 q 637 238 674 204 q 524 314 600 272 q 426 375 463 349 q 363 442 389 401 q 336 542 336 483 q 361 615 336 582 q 435 690 386 647 q 497 753 476 726 q 518 808 518 779 q 482 904 518 869 q 383 939 446 939 q 278 895 307 939 q 250 763 250 851 l 250 132 q 57 -194 250 -194 q -11 -179 18 -194 q -40 -133 -40 -164 q 67 -71 38 -133 q 97 93 97 -8 l 97 763 z "},"ſ":{"ha":382,"x_min":94,"x_max":558,"o":"m 94 -17 l 94 783 q 160 947 94 893 q 344 1000 226 1000 q 494 973 431 1000 q 558 882 558 946 q 529 810 558 835 q 450 785 500 785 q 394 800 414 785 q 404 863 404 836 q 336 939 404 939 q 263 898 282 939 q 244 783 244 857 l 244 0 l 94 -17 z "},"t":{"ha":396,"x_min":6,"x_max":390,"o":"m 7 646 l 6 688 q 124 754 68 713 q 219 846 181 796 l 263 846 l 263 708 l 390 708 l 390 646 l 260 646 l 260 140 q 275 78 260 99 q 324 51 290 57 q 287 -1 317 19 q 218 -21 257 -21 q 106 107 106 -21 l 106 646 l 7 646 z "},"ŧ":{"ha":396,"x_min":6,"x_max":393,"o":"m 260 358 l 260 140 q 275 78 260 99 q 324 51 290 57 q 287 -1 317 19 q 218 -21 257 -21 q 106 107 106 -21 l 106 358 l 39 358 q 28 406 28 383 q 44 444 28 431 q 94 458 61 458 l 106 458 l 106 646 l 7 646 l 6 688 q 124 754 68 713 q 219 846 181 796 l 263 846 l 263 708 l 390 708 l 390 646 l 260 646 l 260 458 l 381 458 q 393 410 393 431 q 317 358 393 358 l 260 358 z "},"ť":{"ha":396,"x_min":6,"x_max":472,"o":"m 6 0 m 7 646 l 6 688 q 124 754 68 713 q 219 846 181 796 l 263 846 l 263 708 l 390 708 l 390 646 l 260 646 l 260 140 q 275 78 260 99 q 324 51 290 57 q 287 -1 317 19 q 218 -21 257 -21 q 106 107 106 -21 l 106 646 l 7 646 m 314 983 q 378 1000 342 1000 q 472 892 472 1000 q 454 821 472 856 q 406 764 436 786 q 342 742 376 742 q 296 750 317 742 q 340 889 340 817 q 314 983 340 939 z "},"ţ":{"ha":396,"x_min":6,"x_max":390,"o":"m 260 646 l 260 140 q 275 78 260 99 q 324 51 290 57 q 287 -1 317 19 q 218 -21 257 -21 l 213 -21 l 186 -90 q 225 -89 199 -89 q 338 -120 296 -89 q 379 -214 379 -151 q 325 -313 379 -275 q 197 -351 271 -351 q 106 -333 146 -351 q 65 -274 65 -314 q 79 -239 65 -251 q 176 -278 114 -278 q 241 -263 215 -278 q 267 -218 267 -249 q 236 -168 267 -182 q 154 -154 206 -154 q 96 -158 122 -154 l 153 -6 q 106 107 106 25 l 106 646 l 7 646 l 6 688 q 124 754 68 713 q 219 846 181 796 l 263 846 l 263 708 l 390 708 l 390 646 l 260 646 z "},"ț":{"ha":396,"x_min":6,"x_max":390,"o":"m 6 0 m 7 646 l 6 688 q 124 754 68 713 q 219 846 181 796 l 263 846 l 263 708 l 390 708 l 390 646 l 260 646 l 260 140 q 275 78 260 99 q 324 51 290 57 q 287 -1 317 19 q 218 -21 257 -21 q 106 107 106 -21 l 106 646 l 7 646 m 219 -69 q 292 -97 268 -69 q 317 -172 317 -124 q 298 -247 317 -210 q 247 -306 279 -283 q 176 -329 214 -329 q 129 -321 154 -329 q 175 -176 175 -254 q 169 -128 175 -149 q 149 -86 163 -108 q 219 -69 179 -69 z "},"ṭ":{"ha":396,"x_min":6,"x_max":390,"o":"m 6 0 m 7 646 l 6 688 q 124 754 68 713 q 219 846 181 796 l 263 846 l 263 708 l 390 708 l 390 646 l 260 646 l 260 140 q 275 78 260 99 q 324 51 290 57 q 287 -1 317 19 q 218 -21 257 -21 q 106 107 106 -21 l 106 646 l 7 646 m 219 -75 q 294 -97 265 -75 q 322 -161 322 -119 q 292 -227 322 -204 q 215 -250 263 -250 q 142 -228 169 -250 q 114 -164 114 -206 q 144 -98 114 -121 q 219 -75 174 -75 z "},"u":{"ha":739,"x_min":89,"x_max":685,"o":"m 642 114 q 685 22 642 46 q 652 -10 674 1 q 603 -21 631 -21 q 536 2 563 -21 q 504 64 510 25 q 433 -6 482 18 q 326 -31 383 -31 q 174 13 226 -31 q 106 133 122 57 q 89 328 89 208 l 89 708 l 242 708 l 242 335 q 248 195 242 250 q 282 101 254 140 q 367 63 310 63 q 458 109 428 63 q 489 225 489 156 l 489 708 l 642 708 l 642 114 z "},"ú":{"ha":739,"x_min":89,"x_max":685,"o":"m 89 0 m 642 114 q 685 22 642 46 q 652 -10 674 1 q 603 -21 631 -21 q 536 2 563 -21 q 504 64 510 25 q 433 -6 482 18 q 326 -31 383 -31 q 174 13 226 -31 q 106 133 122 57 q 89 328 89 208 l 89 708 l 242 708 l 242 335 q 248 195 242 250 q 282 101 254 140 q 367 63 310 63 q 458 109 428 63 q 489 225 489 156 l 489 708 l 642 708 l 642 114 m 492 1054 q 538 1025 519 1047 q 557 975 557 1003 q 524 911 557 938 q 439 863 490 885 l 288 794 l 253 843 l 492 1054 z "},"ŭ":{"ha":739,"x_min":89,"x_max":685,"o":"m 89 0 m 642 114 q 685 22 642 46 q 652 -10 674 1 q 603 -21 631 -21 q 536 2 563 -21 q 504 64 510 25 q 433 -6 482 18 q 326 -31 383 -31 q 174 13 226 -31 q 106 133 122 57 q 89 328 89 208 l 89 708 l 242 708 l 242 335 q 248 195 242 250 q 282 101 254 140 q 367 63 310 63 q 458 109 428 63 q 489 225 489 156 l 489 708 l 642 708 l 642 114 m 576 1014 q 519 873 576 924 q 367 822 461 822 q 216 873 274 822 q 158 1014 158 924 l 285 1014 q 303 926 285 958 q 367 894 321 894 q 431 926 413 894 q 449 1014 449 958 l 576 1014 z "},"û":{"ha":739,"x_min":89,"x_max":685,"o":"m 89 0 m 642 114 q 685 22 642 46 q 652 -10 674 1 q 603 -21 631 -21 q 536 2 563 -21 q 504 64 510 25 q 433 -6 482 18 q 326 -31 383 -31 q 174 13 226 -31 q 106 133 122 57 q 89 328 89 208 l 89 708 l 242 708 l 242 335 q 248 195 242 250 q 282 101 254 140 q 367 63 310 63 q 458 109 428 63 q 489 225 489 156 l 489 708 l 642 708 l 642 114 m 201 799 l 161 847 l 363 1031 l 368 1031 l 575 847 l 533 799 l 367 900 l 201 799 z "},"ü":{"ha":739,"x_min":89,"x_max":685,"o":"m 89 0 m 642 114 q 685 22 642 46 q 652 -10 674 1 q 603 -21 631 -21 q 536 2 563 -21 q 504 64 510 25 q 433 -6 482 18 q 326 -31 383 -31 q 174 13 226 -31 q 106 133 122 57 q 89 328 89 208 l 89 708 l 242 708 l 242 335 q 248 195 242 250 q 282 101 254 140 q 367 63 310 63 q 458 109 428 63 q 489 225 489 156 l 489 708 l 642 708 l 642 114 m 507 1000 q 581 978 553 1000 q 610 914 610 956 q 580 848 610 871 q 503 825 550 825 q 429 847 457 825 q 401 911 401 869 q 431 977 401 954 q 507 1000 461 1000 m 231 1000 q 305 978 276 1000 q 333 914 333 956 q 303 848 333 871 q 226 825 274 825 q 153 847 181 825 q 125 911 125 869 q 155 977 125 954 q 231 1000 185 1000 z "},"ụ":{"ha":739,"x_min":89,"x_max":685,"o":"m 89 0 m 642 114 q 685 22 642 46 q 652 -10 674 1 q 603 -21 631 -21 q 536 2 563 -21 q 504 64 510 25 q 433 -6 482 18 q 326 -31 383 -31 q 174 13 226 -31 q 106 133 122 57 q 89 328 89 208 l 89 708 l 242 708 l 242 335 q 248 195 242 250 q 282 101 254 140 q 367 63 310 63 q 458 109 428 63 q 489 225 489 156 l 489 708 l 642 708 l 642 114 m 381 -75 q 455 -97 426 -75 q 483 -161 483 -119 q 453 -227 483 -204 q 376 -250 424 -250 q 303 -228 331 -250 q 275 -164 275 -206 q 305 -98 275 -121 q 381 -75 335 -75 z "},"ù":{"ha":739,"x_min":89,"x_max":685,"o":"m 89 0 m 642 114 q 685 22 642 46 q 652 -10 674 1 q 603 -21 631 -21 q 536 2 563 -21 q 504 64 510 25 q 433 -6 482 18 q 326 -31 383 -31 q 174 13 226 -31 q 106 133 122 57 q 89 328 89 208 l 89 708 l 242 708 l 242 335 q 248 195 242 250 q 282 101 254 140 q 367 63 310 63 q 458 109 428 63 q 489 225 489 156 l 489 708 l 642 708 l 642 114 m 294 863 q 211 911 244 885 q 178 975 178 938 q 197 1025 178 1003 q 243 1054 215 1047 l 482 843 l 447 794 l 294 863 z "},"ű":{"ha":739,"x_min":89,"x_max":685,"o":"m 89 0 m 642 114 q 685 22 642 46 q 652 -10 674 1 q 603 -21 631 -21 q 536 2 563 -21 q 504 64 510 25 q 433 -6 482 18 q 326 -31 383 -31 q 174 13 226 -31 q 106 133 122 57 q 89 328 89 208 l 89 708 l 242 708 l 242 335 q 248 195 242 250 q 282 101 254 140 q 367 63 310 63 q 458 109 428 63 q 489 225 489 156 l 489 708 l 642 708 l 642 114 m 350 1074 q 416 1054 389 1074 q 443 1000 443 1035 q 422 941 443 971 q 367 876 401 911 l 257 769 l 204 804 l 350 1074 m 582 1074 q 648 1054 621 1074 q 675 1000 675 1035 q 653 941 675 971 q 597 876 632 911 l 489 769 l 436 804 l 582 1074 z "},"ū":{"ha":739,"x_min":89,"x_max":685,"o":"m 89 0 m 642 114 q 685 22 642 46 q 652 -10 674 1 q 603 -21 631 -21 q 536 2 563 -21 q 504 64 510 25 q 433 -6 482 18 q 326 -31 383 -31 q 174 13 226 -31 q 106 133 122 57 q 89 328 89 208 l 89 708 l 242 708 l 242 335 q 248 195 242 250 q 282 101 254 140 q 367 63 310 63 q 458 109 428 63 q 489 225 489 156 l 489 708 l 642 708 l 642 114 m 547 964 q 558 911 558 936 q 538 866 558 882 q 478 850 518 850 l 186 850 q 176 900 176 872 q 195 947 176 931 q 247 964 214 964 l 547 964 z "},"ų":{"ha":739,"x_min":89,"x_max":728,"o":"m 713 -232 q 728 -267 728 -244 q 694 -324 728 -306 q 614 -342 661 -342 q 506 -304 544 -342 q 467 -199 467 -267 q 492 -99 467 -146 q 561 -14 518 -51 q 523 16 538 -4 q 504 64 508 36 q 433 -6 482 18 q 326 -31 383 -31 q 174 13 226 -31 q 106 133 122 57 q 89 328 89 208 l 89 708 l 242 708 l 242 335 q 248 195 242 250 q 282 101 254 140 q 367 63 310 63 q 458 109 428 63 q 489 225 489 156 l 489 708 l 642 708 l 642 114 q 685 22 642 46 l 681 14 l 681 14 l 679 13 q 653 -10 671 0 q 592 -90 614 -46 q 569 -181 569 -135 q 587 -242 569 -222 q 647 -261 604 -261 q 713 -232 688 -261 z "},"ů":{"ha":739,"x_min":89,"x_max":685,"o":"m 89 0 m 642 114 q 685 22 642 46 q 652 -10 674 1 q 603 -21 631 -21 q 536 2 563 -21 q 504 64 510 25 q 433 -6 482 18 q 326 -31 383 -31 q 174 13 226 -31 q 106 133 122 57 q 89 328 89 208 l 89 708 l 242 708 l 242 335 q 248 195 242 250 q 282 101 254 140 q 367 63 310 63 q 458 109 428 63 q 489 225 489 156 l 489 708 l 642 708 l 642 114 m 367 782 q 260 819 303 782 q 217 917 217 856 q 259 1013 217 978 q 367 1047 301 1047 q 474 1013 432 1047 q 517 917 517 978 q 474 819 517 856 q 367 782 431 782 m 367 829 q 419 853 401 829 q 436 917 436 878 q 419 977 436 954 q 367 1000 401 1000 q 315 977 332 1000 q 297 917 297 954 q 315 853 297 878 q 367 829 332 829 z "},"ũ":{"ha":739,"x_min":89,"x_max":685,"o":"m 89 0 m 642 114 q 685 22 642 46 q 652 -10 674 1 q 603 -21 631 -21 q 536 2 563 -21 q 504 64 510 25 q 433 -6 482 18 q 326 -31 383 -31 q 174 13 226 -31 q 106 133 122 57 q 89 328 89 208 l 89 708 l 242 708 l 242 335 q 248 195 242 250 q 282 101 254 140 q 367 63 310 63 q 458 109 428 63 q 489 225 489 156 l 489 708 l 642 708 l 642 114 m 540 968 q 567 938 557 957 q 576 897 576 918 q 553 847 576 864 q 492 829 529 829 q 375 846 461 829 q 267 863 294 863 q 193 842 215 863 q 165 872 175 853 q 156 913 156 892 q 180 963 156 946 q 242 981 204 981 q 358 964 275 981 q 465 947 439 947 q 540 968 517 947 z "},"v":{"ha":586,"x_min":0,"x_max":588,"o":"m 588 708 l 381 0 l 192 0 l 0 708 l 158 708 l 300 93 l 442 708 l 588 708 z "},"w":{"ha":960,"x_min":0,"x_max":961,"o":"m 961 708 l 769 0 l 581 0 l 471 499 l 365 0 l 176 0 l 0 708 l 158 708 l 285 93 l 411 708 l 563 708 l 689 93 l 815 708 l 961 708 z "},"ẃ":{"ha":960,"x_min":0,"x_max":961,"o":"m 0 0 m 961 708 l 769 0 l 581 0 l 471 499 l 365 0 l 176 0 l 0 708 l 158 708 l 285 93 l 411 708 l 563 708 l 689 93 l 815 708 l 961 708 m 613 1054 q 659 1025 640 1047 q 678 975 678 1003 q 644 911 678 938 q 560 863 611 885 l 408 794 l 374 843 l 613 1054 z "},"ŵ":{"ha":960,"x_min":0,"x_max":961,"o":"m 0 0 m 961 708 l 769 0 l 581 0 l 471 499 l 365 0 l 176 0 l 0 708 l 158 708 l 285 93 l 411 708 l 563 708 l 689 93 l 815 708 l 961 708 m 322 799 l 282 847 l 483 1031 l 489 1031 l 696 847 l 654 799 l 488 900 l 322 799 z "},"ẅ":{"ha":960,"x_min":0,"x_max":961,"o":"m 0 0 m 961 708 l 769 0 l 581 0 l 471 499 l 365 0 l 176 0 l 0 708 l 158 708 l 285 93 l 411 708 l 563 708 l 689 93 l 815 708 l 961 708 m 628 1000 q 702 978 674 1000 q 731 914 731 956 q 701 848 731 871 q 624 825 671 825 q 550 847 578 825 q 522 911 522 869 q 552 977 522 954 q 628 1000 582 1000 m 351 1000 q 426 978 397 1000 q 454 914 454 956 q 424 848 454 871 q 347 825 394 825 q 274 847 301 825 q 246 911 246 869 q 276 977 246 954 q 351 1000 306 1000 z "},"ẁ":{"ha":960,"x_min":0,"x_max":961,"o":"m 0 0 m 961 708 l 769 0 l 581 0 l 471 499 l 365 0 l 176 0 l 0 708 l 158 708 l 285 93 l 411 708 l 563 708 l 689 93 l 815 708 l 961 708 m 415 863 q 332 911 365 885 q 299 975 299 938 q 317 1025 299 1003 q 364 1054 336 1047 l 603 843 l 568 794 l 415 863 z "},"x":{"ha":619,"x_min":7,"x_max":614,"o":"m 297 249 l 167 0 l 7 0 l 239 351 l 24 708 l 201 708 l 329 478 l 446 708 l 607 708 l 389 374 l 614 0 l 436 0 l 297 249 z "},"y":{"ha":588,"x_min":11,"x_max":588,"o":"m 588 708 l 272 -268 l 119 -250 l 257 67 l 188 67 l 11 708 l 169 708 l 301 160 l 443 708 l 588 708 z "},"ý":{"ha":588,"x_min":11,"x_max":588,"o":"m 11 0 m 588 708 l 272 -268 l 119 -250 l 257 67 l 188 67 l 11 708 l 169 708 l 301 160 l 443 708 l 588 708 m 428 1054 q 474 1025 456 1047 q 493 975 493 1003 q 460 911 493 938 q 375 863 426 885 l 224 794 l 189 843 l 428 1054 z "},"ŷ":{"ha":588,"x_min":11,"x_max":588,"o":"m 11 0 m 588 708 l 272 -268 l 119 -250 l 257 67 l 188 67 l 11 708 l 169 708 l 301 160 l 443 708 l 588 708 m 138 799 l 97 847 l 299 1031 l 304 1031 l 511 847 l 469 799 l 303 900 l 138 799 z "},"ÿ":{"ha":588,"x_min":11,"x_max":588,"o":"m 11 0 m 588 708 l 272 -268 l 119 -250 l 257 67 l 188 67 l 11 708 l 169 708 l 301 160 l 443 708 l 588 708 m 443 1000 q 517 978 489 1000 q 546 914 546 956 q 516 848 546 871 q 439 825 486 825 q 365 847 393 825 q 338 911 338 869 q 367 977 338 954 q 443 1000 397 1000 m 167 1000 q 241 978 213 1000 q 269 914 269 956 q 240 848 269 871 q 163 825 210 825 q 89 847 117 825 q 61 911 61 869 q 91 977 61 954 q 167 1000 121 1000 z "},"ỳ":{"ha":588,"x_min":11,"x_max":588,"o":"m 11 0 m 588 708 l 272 -268 l 119 -250 l 257 67 l 188 67 l 11 708 l 169 708 l 301 160 l 443 708 l 588 708 m 231 863 q 147 911 181 885 q 114 975 114 938 q 133 1025 114 1003 q 179 1054 151 1047 l 418 843 l 383 794 l 231 863 z "},"ỹ":{"ha":588,"x_min":11,"x_max":588,"o":"m 11 0 m 588 708 l 272 -268 l 119 -250 l 257 67 l 188 67 l 11 708 l 169 708 l 301 160 l 443 708 l 588 708 m 476 968 q 503 938 493 957 q 513 897 513 918 q 489 847 513 864 q 428 829 465 829 q 311 846 397 829 q 203 863 231 863 q 129 842 151 863 q 101 872 111 853 q 92 913 92 892 q 116 963 92 946 q 178 981 140 981 q 294 964 211 981 q 401 947 375 947 q 476 968 453 947 z "},"z":{"ha":528,"x_min":14,"x_max":514,"o":"m 494 708 l 504 626 l 179 93 l 514 104 l 504 0 l 24 0 l 14 85 l 335 614 l 26 596 l 38 708 l 494 708 z "},"ź":{"ha":528,"x_min":14,"x_max":514,"o":"m 14 0 m 494 708 l 504 626 l 179 93 l 514 104 l 504 0 l 24 0 l 14 85 l 335 614 l 26 596 l 38 708 l 494 708 m 385 1054 q 431 1025 413 1047 q 450 975 450 1003 q 417 911 450 938 q 332 863 383 885 l 181 794 l 146 843 l 385 1054 z "},"ž":{"ha":528,"x_min":14,"x_max":514,"o":"m 14 0 m 494 708 l 504 626 l 179 93 l 514 104 l 504 0 l 24 0 l 14 85 l 335 614 l 26 596 l 38 708 l 494 708 m 425 1031 l 467 982 l 265 799 l 260 799 l 53 982 l 93 1031 l 260 929 l 425 1031 z "},"ż":{"ha":528,"x_min":14,"x_max":514,"o":"m 14 0 m 494 708 l 504 626 l 179 93 l 514 104 l 504 0 l 24 0 l 14 85 l 335 614 l 26 596 l 38 708 l 494 708 m 260 1000 q 334 978 306 1000 q 363 914 363 956 q 333 848 363 871 q 256 825 303 825 q 182 847 210 825 q 154 911 154 869 q 184 977 154 954 q 260 1000 214 1000 z "},"ẓ":{"ha":528,"x_min":14,"x_max":514,"o":"m 14 0 m 494 708 l 504 626 l 179 93 l 514 104 l 504 0 l 24 0 l 14 85 l 335 614 l 26 596 l 38 708 l 494 708 m 249 -75 q 323 -97 294 -75 q 351 -161 351 -119 q 322 -227 351 -204 q 244 -250 292 -250 q 171 -228 199 -250 q 143 -164 143 -206 q 173 -98 143 -121 q 249 -75 203 -75 z "},"ﬁ":{"ha":757,"x_min":7,"x_max":703,"o":"m 508 858 q 477 920 508 901 q 399 939 446 939 q 290 901 324 939 q 257 783 257 863 l 257 708 l 660 708 l 660 114 q 703 22 660 46 q 667 -10 692 1 q 614 -21 642 -21 q 534 10 561 -21 q 507 96 507 40 l 507 646 l 258 646 l 258 0 l 106 -17 l 106 646 l 7 646 l 7 708 l 106 708 l 110 783 q 194 949 115 897 q 406 1000 274 1000 q 595 970 513 1000 q 678 865 678 940 q 644 801 678 825 q 567 778 611 778 q 496 797 524 778 q 508 858 508 831 z "},"ﬂ":{"ha":763,"x_min":7,"x_max":703,"o":"m 660 114 q 703 22 660 46 q 667 -10 692 1 q 614 -21 642 -21 q 534 10 561 -21 q 507 96 507 40 l 507 808 q 484 908 507 876 q 399 939 461 939 q 285 898 314 939 q 257 783 257 857 l 257 708 l 408 708 l 408 646 l 258 646 l 258 0 l 106 -17 l 106 646 l 7 646 l 7 708 l 106 708 l 110 783 q 404 1000 124 1000 q 568 979 501 1000 l 660 989 l 660 114 z "},"ª":{"ha":604,"x_min":67,"x_max":518,"o":"m 294 936 q 434 894 393 936 q 475 750 475 851 l 475 494 q 506 429 475 446 q 439 393 488 393 q 391 410 410 393 q 369 456 372 426 q 231 389 332 389 q 113 430 160 389 q 67 538 67 471 q 346 699 67 699 l 346 775 q 334 848 346 824 q 283 872 322 872 q 218 807 218 872 q 226 760 218 783 q 176 749 211 749 q 115 767 139 749 q 90 821 90 786 q 151 906 90 875 q 294 936 211 936 m 346 635 q 201 542 201 635 q 219 488 201 508 q 269 467 238 467 q 327 495 308 467 q 346 567 346 524 l 346 635 m 508 322 q 518 281 518 300 q 504 240 518 254 q 464 225 490 225 l 92 225 q 82 267 82 247 q 96 308 82 293 q 136 322 110 322 l 508 322 z "},"º":{"ha":604,"x_min":71,"x_max":524,"o":"m 299 936 q 524 671 524 936 q 471 463 524 536 q 299 389 418 389 q 71 663 71 389 q 126 864 71 792 q 299 936 181 936 m 299 458 q 373 515 357 458 q 389 665 389 571 q 372 812 389 754 q 299 869 354 869 q 224 812 242 869 q 206 665 206 754 q 222 514 206 569 q 299 458 238 458 m 92 225 q 82 267 82 247 q 96 308 82 293 q 136 322 110 322 l 508 322 q 518 281 518 300 q 504 240 518 254 q 464 225 490 225 l 92 225 z "},"Δ":{"ha":832,"x_min":0,"x_max":832,"o":"m 496 917 l 832 0 l 0 0 l 324 917 l 496 917 m 396 779 l 181 101 l 621 101 l 410 736 l 396 779 z "},"Ω":{"ha":826,"x_min":47,"x_max":760,"o":"m 404 944 q 676 816 593 944 q 760 468 760 688 q 531 111 760 185 l 717 111 l 717 0 l 456 0 l 435 115 q 549 234 514 139 q 585 461 585 329 q 549 737 585 626 q 404 847 513 847 q 258 737 294 847 q 222 461 222 626 q 258 234 222 329 q 374 115 293 139 l 353 0 l 90 0 l 90 111 l 276 111 q 47 468 47 185 q 131 816 47 688 q 404 944 214 944 z "},"μ":{"ha":747,"x_min":97,"x_max":693,"o":"m 650 114 q 693 22 650 46 q 660 -10 682 1 q 611 -21 639 -21 q 544 2 571 -21 q 513 64 518 25 q 441 -6 490 18 q 335 -31 392 -31 q 250 -19 288 -31 l 250 -250 l 97 -267 l 97 708 l 250 725 l 250 335 q 256 195 250 250 q 290 101 263 140 q 375 63 318 63 q 467 109 436 63 q 497 225 497 156 l 497 708 l 650 708 l 650 114 z "},"π":{"ha":697,"x_min":19,"x_max":678,"o":"m 582 590 l 582 114 q 625 22 582 46 q 588 -10 614 1 q 535 -21 563 -21 q 456 10 482 -21 q 429 96 429 40 l 429 590 l 268 590 l 268 0 l 115 0 l 115 590 l 32 590 q 19 639 19 618 q 37 690 19 671 q 86 708 54 708 l 665 708 q 678 660 678 681 q 660 608 678 626 q 610 590 643 590 l 582 590 z "},"¹":{"ha":465,"x_min":51,"x_max":406,"o":"m 406 471 l 406 396 l 74 396 l 74 471 l 182 471 l 182 815 q 147 793 168 801 q 108 785 125 785 q 51 851 51 785 q 162 892 100 865 q 264 944 224 919 l 304 932 l 304 471 l 406 471 z "},"²":{"ha":500,"x_min":69,"x_max":431,"o":"m 244 935 q 374 897 328 935 q 419 779 419 858 q 403 703 419 736 q 353 631 388 669 q 236 513 318 593 q 217 499 225 506 q 203 486 210 492 l 431 486 l 425 396 l 75 396 l 69 468 l 208 615 q 269 695 247 658 q 292 774 292 732 q 222 847 292 847 q 151 824 181 847 q 108 758 121 800 q 76 814 76 768 q 126 904 76 874 q 244 935 175 935 z "},"³":{"ha":504,"x_min":69,"x_max":435,"o":"m 238 933 q 361 903 315 933 q 407 807 407 874 q 383 728 407 763 q 318 675 360 693 q 403 632 372 664 q 435 549 435 600 q 373 423 435 465 q 217 381 311 381 q 112 406 154 381 q 69 485 69 432 q 92 538 69 528 q 217 467 126 467 q 282 488 257 467 q 307 549 307 510 q 210 631 307 631 q 168 628 183 631 l 168 693 q 253 717 221 693 q 286 788 286 740 q 267 832 286 817 q 217 847 249 847 q 153 827 179 847 q 115 769 128 807 q 85 829 85 781 q 130 907 85 881 q 238 933 175 933 z "},"⁄":{"ha":410,"x_min":25,"x_max":385,"o":"m 281 997 q 315 1000 297 1000 q 385 947 385 1000 q 376 897 385 931 l 129 -124 q 94 -126 113 -126 q 25 -74 25 -126 q 33 -24 25 -57 l 281 997 z "},"½":{"ha":1104,"x_min":51,"x_max":1061,"o":"m 665 1000 q 735 947 735 1000 q 726 897 735 931 l 479 -124 q 444 -126 463 -126 q 375 -74 375 -126 q 383 -24 375 -57 l 631 997 q 665 1000 647 1000 m 304 932 l 304 471 l 406 471 l 406 396 l 74 396 l 74 471 l 182 471 l 182 815 q 147 793 168 801 q 108 785 125 785 q 51 851 51 785 q 162 892 100 865 q 264 944 224 919 l 304 932 m 875 539 q 1004 501 958 539 q 1050 383 1050 463 q 1034 307 1050 340 q 983 235 1018 274 q 865 117 947 197 l 833 90 l 1061 90 l 1056 0 l 706 0 l 700 72 l 839 219 q 900 299 878 263 q 922 378 922 336 q 853 451 922 451 q 781 428 811 451 q 739 363 751 404 q 707 418 707 372 q 756 508 707 478 q 875 539 806 539 z "},"⅓":{"ha":1104,"x_min":51,"x_max":1054,"o":"m 665 1000 q 735 947 735 1000 q 726 897 735 931 l 479 -124 q 444 -126 463 -126 q 375 -74 375 -126 q 383 -24 375 -57 l 631 997 q 665 1000 647 1000 m 304 932 l 304 471 l 406 471 l 406 396 l 74 396 l 74 471 l 182 471 l 182 815 q 147 793 168 801 q 108 785 125 785 q 51 851 51 785 q 162 892 100 865 q 264 944 224 919 l 304 932 m 857 543 q 981 513 935 543 q 1026 417 1026 483 q 1003 338 1026 372 q 938 285 979 303 q 1023 242 992 274 q 1054 158 1054 210 q 992 33 1054 75 q 836 -10 931 -10 q 731 16 774 -10 q 689 94 689 42 q 711 147 689 138 q 836 76 746 76 q 902 98 876 76 q 928 158 928 119 q 901 220 928 200 q 829 240 875 240 q 788 238 803 240 l 788 303 q 873 326 840 303 q 906 397 906 350 q 887 442 906 426 q 836 457 868 457 q 773 437 799 457 q 735 379 747 417 q 704 439 704 390 q 749 517 704 490 q 857 543 794 543 z "},"⅔":{"ha":1104,"x_min":57,"x_max":1042,"o":"m 654 1000 q 722 947 722 1000 q 714 897 722 931 l 467 -124 q 432 -126 450 -126 q 363 -74 363 -126 q 371 -24 363 -57 l 618 997 q 654 1000 635 1000 m 232 935 q 363 897 317 935 q 408 779 408 858 q 392 703 408 736 q 341 632 375 669 q 224 513 307 594 l 192 486 l 418 486 l 413 396 l 63 396 l 57 468 l 103 515 l 196 615 q 257 694 235 657 q 279 774 279 732 q 210 847 279 847 q 138 824 168 847 q 96 758 108 800 q 64 814 64 768 q 113 904 64 874 q 232 935 163 935 m 844 543 q 968 513 922 543 q 1014 417 1014 483 q 990 338 1014 372 q 925 285 967 303 q 1010 242 979 274 q 1042 158 1042 210 q 981 33 1042 75 q 825 -10 919 -10 q 719 16 761 -10 q 676 94 676 42 q 699 147 676 138 q 824 76 733 76 q 890 98 864 76 q 915 158 915 119 q 889 220 915 200 q 817 240 863 240 q 775 238 790 240 l 775 303 q 860 326 828 303 q 893 397 893 350 q 874 442 893 426 q 824 457 856 457 q 760 437 786 457 q 722 379 735 417 q 692 439 692 390 q 737 517 692 490 q 844 543 782 543 z "},"¼":{"ha":1104,"x_min":25,"x_max":1078,"o":"m 639 1000 q 708 947 708 1000 q 700 897 708 931 l 453 -124 q 418 -126 436 -126 q 349 -74 349 -126 q 357 -24 349 -57 l 604 997 q 639 1000 621 1000 m 279 932 l 279 471 l 381 471 l 381 396 l 47 396 l 47 471 l 156 471 l 156 815 q 120 793 142 801 q 82 785 99 785 q 25 851 25 785 q 135 892 74 865 q 238 944 197 919 l 279 932 m 1004 192 l 1078 192 l 1072 117 l 1004 117 l 1004 0 l 882 0 l 882 117 l 679 117 q 656 126 664 117 q 649 153 649 136 q 664 196 649 168 l 868 539 l 1004 539 l 1004 192 m 882 424 l 750 192 l 882 192 l 882 424 z "},"¾":{"ha":1104,"x_min":43,"x_max":1078,"o":"m 639 1000 q 708 947 708 1000 q 700 897 708 931 l 453 -124 q 418 -126 436 -126 q 349 -74 349 -126 q 357 -24 349 -57 l 604 997 q 639 1000 621 1000 m 211 933 q 335 903 289 933 q 381 807 381 874 q 357 728 381 763 q 292 675 333 693 q 377 632 346 664 q 408 549 408 600 q 347 423 408 465 q 190 381 285 381 q 85 406 128 381 q 43 485 43 432 q 65 538 43 528 q 190 467 100 467 q 256 488 231 467 q 282 549 282 510 q 256 610 282 590 q 183 631 229 631 q 142 628 157 631 l 142 693 q 227 717 194 693 q 260 788 260 740 q 241 832 260 817 q 190 847 222 847 q 127 827 153 847 q 89 769 101 807 q 58 829 58 781 q 103 907 58 881 q 211 933 149 933 m 1004 192 l 1078 192 l 1072 117 l 1004 117 l 1004 0 l 882 0 l 882 117 l 679 117 q 656 126 664 117 q 649 153 649 136 q 664 196 649 168 l 868 539 l 1004 539 l 1004 192 m 882 424 l 750 192 l 882 192 l 882 424 z "},"⅛":{"ha":1104,"x_min":38,"x_max":1076,"o":"m 651 1000 q 721 947 721 1000 q 713 897 721 931 l 465 -124 q 431 -126 449 -126 q 361 -74 361 -126 q 369 -24 361 -57 l 617 997 q 651 1000 633 1000 m 292 932 l 292 471 l 393 471 l 393 396 l 60 396 l 60 471 l 168 471 l 168 815 q 133 793 154 801 q 94 785 111 785 q 38 851 38 785 q 148 892 86 865 q 250 944 210 919 l 292 932 m 886 543 q 1003 511 957 543 q 1049 418 1049 479 q 1023 347 1049 379 q 956 293 997 315 q 1044 221 1013 256 q 1076 136 1076 186 q 1023 29 1076 68 q 886 -10 969 -10 q 756 30 807 -10 q 704 140 704 69 q 733 213 704 179 q 807 271 761 247 q 739 334 764 301 q 714 411 714 367 q 764 508 714 472 q 886 543 814 543 m 893 474 q 852 458 868 474 q 836 418 836 443 q 854 369 836 392 q 907 324 872 347 q 938 366 926 342 q 949 418 949 390 q 933 458 949 442 q 893 474 917 474 m 854 242 q 810 132 810 197 q 829 76 810 96 q 881 57 849 57 q 935 75 915 57 q 954 128 954 93 q 928 185 954 160 q 854 242 903 211 z "},"*":{"ha":593,"x_min":26,"x_max":563,"o":"m 521 840 q 558 790 547 822 q 563 768 563 778 q 458 679 563 713 q 394 664 425 669 l 521 531 q 483 479 511 500 q 447 467 465 467 q 349 542 403 467 q 297 631 325 571 l 197 446 q 138 465 164 446 q 110 515 110 485 q 154 613 110 556 q 203 669 175 642 l 31 701 q 26 735 26 718 q 31 764 26 750 q 100 810 46 810 q 176 794 128 810 q 253 761 217 781 l 228 949 q 288 968 256 968 q 346 932 331 968 q 361 839 361 896 q 354 761 361 806 l 521 840 z "},"\\":{"ha":456,"x_min":50,"x_max":406,"o":"m 135 1108 q 186 1103 169 1108 l 401 -172 q 406 -215 406 -201 q 321 -278 406 -278 q 269 -272 286 -278 l 54 1003 q 50 1046 50 1032 q 135 1108 50 1108 z "},"·":{"ha":335,"x_min":63,"x_max":269,"o":"m 168 449 q 242 426 214 449 q 269 363 269 404 q 240 297 269 319 q 164 274 210 274 q 90 296 118 274 q 63 360 63 318 q 92 426 63 403 q 168 449 122 449 z "},"•":{"ha":351,"x_min":15,"x_max":279,"o":"m 151 469 q 244 441 208 469 q 279 360 279 413 q 242 276 279 306 q 146 247 204 247 q 51 276 86 247 q 15 357 15 304 q 53 440 15 411 q 151 469 92 469 z "},":":{"ha":349,"x_min":71,"x_max":278,"o":"m 71 0 m 176 735 q 250 713 222 735 q 278 649 278 690 q 248 583 278 606 q 172 560 218 560 q 99 582 126 560 q 71 646 71 604 q 101 712 71 689 q 176 735 131 735 m 176 147 q 250 125 222 147 q 278 61 278 103 q 248 -5 278 18 q 172 -28 218 -28 q 99 -6 126 -28 q 71 58 71 17 q 101 124 71 101 q 176 147 131 147 z "},",":{"ha":326,"x_min":58,"x_max":268,"o":"m 158 136 q 240 105 213 136 q 268 17 268 74 q 247 -71 268 -28 q 190 -141 226 -114 q 111 -168 154 -168 q 58 -158 82 -168 q 110 11 110 -82 q 103 66 110 42 q 81 118 96 90 q 158 136 113 136 z "},"…":{"ha":932,"x_min":63,"x_max":885,"o":"m 63 0 m 481 147 q 554 125 526 147 q 582 61 582 103 q 552 -5 582 18 q 476 -28 522 -28 q 403 -6 431 -28 q 375 58 375 17 q 405 124 375 101 q 481 147 435 147 m 783 147 q 857 125 829 147 q 885 61 885 103 q 855 -5 885 18 q 779 -28 825 -28 q 706 -6 733 -28 q 678 58 678 17 q 708 124 678 101 q 783 147 738 147 m 168 147 q 242 125 214 147 q 269 61 269 103 q 240 -5 269 18 q 164 -28 210 -28 q 90 -6 118 -28 q 63 58 63 17 q 92 124 63 101 q 168 147 122 147 z "},"!":{"ha":340,"x_min":63,"x_max":269,"o":"m 174 944 q 240 922 219 944 q 261 851 261 899 q 253 693 261 796 l 219 290 q 174 278 203 278 q 122 299 135 278 q 107 367 110 319 l 90 915 q 128 937 106 929 q 174 944 151 944 m 168 147 q 242 125 214 147 q 269 61 269 103 q 240 -5 269 18 q 164 -28 210 -28 q 90 -6 118 -28 q 63 58 63 17 q 92 124 63 101 q 168 147 122 147 z "},"¡":{"ha":340,"x_min":67,"x_max":274,"o":"m 172 736 q 246 714 218 736 q 274 650 274 692 q 244 584 274 607 q 168 561 214 561 q 94 583 122 561 q 67 647 67 606 q 97 713 67 690 q 172 736 126 736 m 167 431 q 218 410 206 431 q 233 342 231 389 l 250 -207 q 212 -228 235 -221 q 167 -236 189 -236 q 100 -213 121 -236 q 79 -143 79 -190 q 88 15 79 -87 l 121 418 q 167 431 138 431 z "},"#":{"ha":751,"x_min":-3,"x_max":753,"o":"m 532 921 q 585 907 563 921 l 585 682 l 740 682 q 753 633 753 654 q 735 583 753 601 q 686 564 718 564 l 585 564 l 585 365 l 740 365 q 753 317 753 338 q 735 266 753 285 q 686 247 718 247 l 585 247 l 585 72 q 565 18 585 36 q 508 0 544 0 q 454 14 476 0 l 454 247 l 297 247 l 297 72 q 276 18 297 36 q 219 0 256 0 q 167 14 189 0 l 167 247 l 10 247 q -3 296 -3 275 q 15 347 -3 328 q 65 365 33 365 l 167 365 l 167 564 l 10 564 q -3 613 -3 592 q 15 663 -3 644 q 65 682 33 682 l 167 682 l 167 849 q 187 903 167 885 q 243 921 207 921 q 297 907 275 921 l 297 682 l 454 682 l 454 849 q 475 903 454 885 q 532 921 496 921 m 454 564 l 297 564 l 297 365 l 454 365 l 454 564 z "},".":{"ha":335,"x_min":63,"x_max":269,"o":"m 168 147 q 242 125 214 147 q 269 61 269 103 q 240 -5 269 18 q 164 -28 210 -28 q 90 -6 118 -28 q 63 58 63 17 q 92 124 63 101 q 168 147 122 147 z "},"?":{"ha":575,"x_min":3,"x_max":550,"o":"m 278 944 q 475 899 400 944 q 550 750 550 853 q 528 649 550 696 q 477 567 507 603 q 397 483 447 532 q 306 383 335 422 q 276 294 276 343 q 255 285 271 289 q 225 282 239 282 q 176 299 192 282 q 160 349 160 315 q 182 417 160 383 q 254 508 204 450 q 350 633 317 579 q 383 750 383 688 q 356 831 383 800 q 274 861 329 861 q 196 838 225 861 q 167 765 167 814 q 179 697 167 740 q 118 682 158 682 q 34 708 65 682 q 3 786 3 735 q 86 909 3 874 q 278 944 169 944 m 225 147 q 299 125 271 147 q 326 61 326 103 q 297 -5 326 18 q 221 -28 267 -28 q 147 -6 175 -28 q 119 58 119 17 q 149 124 119 101 q 225 147 179 147 z "},"¿":{"ha":575,"x_min":3,"x_max":550,"o":"m 329 736 q 403 714 375 736 q 431 650 431 692 q 401 584 431 607 q 325 561 371 561 q 251 583 279 561 q 224 647 224 606 q 253 713 224 690 q 329 736 283 736 m 329 428 q 393 361 393 428 q 371 293 393 326 q 299 201 349 260 q 203 76 236 131 q 169 -40 169 22 q 197 -121 169 -90 q 279 -151 224 -151 q 358 -128 328 -151 q 388 -56 388 -104 q 375 13 388 -31 q 435 28 396 28 q 519 1 489 28 q 550 -76 550 -25 q 467 -199 550 -164 q 275 -235 383 -235 q 78 -189 154 -235 q 3 -40 3 -143 q 24 60 3 14 q 76 142 46 107 q 157 226 107 176 q 249 327 219 288 q 278 415 278 367 q 299 424 283 421 q 329 428 315 428 z "},"\"":{"ha":533,"x_min":64,"x_max":471,"o":"m 83 682 q 64 978 83 869 q 124 986 94 986 q 209 958 185 986 q 233 865 233 929 q 215 764 233 819 q 178 682 197 708 l 83 682 m 319 682 q 300 978 319 869 q 360 986 331 986 q 446 958 421 986 q 471 865 471 929 q 453 765 471 819 q 414 682 435 710 l 319 682 z "},"'":{"ha":297,"x_min":64,"x_max":233,"o":"m 83 682 q 64 978 83 869 q 124 986 94 986 q 209 958 185 986 q 233 865 233 929 q 215 764 233 819 q 178 682 197 708 l 83 682 z "},";":{"ha":357,"x_min":75,"x_max":286,"o":"m 75 0 m 185 735 q 258 713 231 735 q 286 649 286 690 q 256 583 286 606 q 181 560 226 560 q 107 582 135 560 q 79 646 79 604 q 109 712 79 689 q 185 735 139 735 m 175 136 q 257 105 229 136 q 285 17 285 74 q 264 -71 285 -28 q 207 -141 243 -114 q 128 -168 171 -168 q 75 -158 99 -168 q 126 11 126 -82 q 119 66 126 42 q 97 118 113 90 q 175 136 129 136 z "},"/":{"ha":456,"x_min":50,"x_max":406,"o":"m 321 1108 q 406 1046 406 1108 q 401 1003 406 1032 l 186 -272 q 135 -278 169 -278 q 50 -215 50 -278 q 54 -172 50 -201 l 269 1103 q 321 1108 286 1108 z "},"_":{"ha":706,"x_min":10,"x_max":696,"o":"m 22 -186 q 10 -131 10 -167 q 31 -79 10 -94 q 92 -64 51 -64 l 685 -64 q 696 -119 696 -85 q 615 -186 696 -186 l 22 -186 z "},"{":{"ha":456,"x_min":43,"x_max":428,"o":"m 315 1111 q 428 1101 368 1111 l 428 1039 l 394 1039 q 325 1003 342 1039 q 308 886 308 967 l 308 600 q 282 483 308 525 q 196 432 256 440 q 269 404 246 428 q 297 349 292 381 q 303 264 303 317 l 303 -26 q 319 -153 303 -101 q 386 -204 335 -204 l 419 -204 l 415 -268 q 307 -278 349 -278 q 201 -253 236 -278 q 155 -185 165 -228 q 144 -75 144 -143 l 144 229 q 126 348 144 307 q 43 389 107 389 l 46 467 q 146 626 146 467 l 146 929 q 160 1036 146 997 q 211 1093 175 1075 q 315 1111 247 1111 z "},"}":{"ha":528,"x_min":28,"x_max":413,"o":"m 147 600 q 174 483 147 525 q 258 432 200 440 q 185 404 208 428 q 158 349 163 381 q 153 264 153 318 l 153 -26 q 137 -153 153 -101 q 69 -204 121 -204 l 36 -204 l 40 -268 q 149 -278 107 -278 q 255 -253 219 -278 q 300 -186 290 -228 q 310 -75 310 -144 l 310 229 q 328 348 310 307 q 413 389 347 389 l 410 467 q 333 508 358 467 q 308 626 308 550 l 308 929 q 294 1036 308 997 q 244 1093 281 1075 q 140 1111 208 1111 q 28 1101 88 1111 l 28 1039 l 61 1039 q 131 1003 114 1039 q 147 886 147 967 l 147 600 z "},"[":{"ha":418,"x_min":111,"x_max":474,"o":"m 465 1097 q 474 1056 474 1081 q 413 1006 474 1006 l 274 1006 l 274 -172 l 413 -172 q 474 -222 474 -172 q 465 -264 474 -247 l 111 -264 l 111 1097 l 465 1097 z "},"]":{"ha":418,"x_min":-56,"x_max":308,"o":"m -47 -264 q -56 -222 -56 -247 q 6 -172 -56 -172 l 144 -172 l 144 1006 l 6 1006 q -56 1056 -56 1006 q -47 1097 -56 1081 l 308 1097 l 308 -264 l -47 -264 z "},"(":{"ha":521,"x_min":151,"x_max":596,"o":"m 531 1111 q 596 1082 578 1111 q 393 811 463 985 q 324 417 324 638 q 393 22 324 196 q 596 -249 463 -151 q 531 -278 578 -278 q 347 -180 435 -278 q 205 78 258 -82 q 151 417 151 239 q 205 755 151 594 q 347 1013 258 915 q 531 1111 435 1111 z "},")":{"ha":519,"x_min":-75,"x_max":369,"o":"m 0 1111 q 187 1015 101 1111 q 321 758 272 918 q 369 417 369 597 q 321 76 369 236 q 187 -180 272 -83 q 0 -276 101 -276 q -75 -247 -50 -276 q 128 24 58 -150 q 199 417 199 197 q 129 810 199 636 q -75 1082 60 985 q 0 1111 -50 1111 z "},"—":{"ha":1206,"x_min":10,"x_max":1196,"o":"m 22 274 q 10 329 10 293 q 90 394 10 394 l 1183 394 q 1196 339 1196 372 q 1174 289 1196 304 q 1113 274 1153 274 l 22 274 z "},"–":{"ha":614,"x_min":10,"x_max":604,"o":"m 22 274 q 10 329 10 293 q 90 394 10 394 l 592 394 q 604 339 604 372 q 522 274 604 274 l 22 274 z "},"-":{"ha":571,"x_min":67,"x_max":504,"o":"m 82 267 q 67 322 67 288 q 146 390 67 386 l 489 401 q 500 374 496 390 q 504 346 504 358 q 483 297 504 313 q 424 278 463 281 l 82 267 z "},"­":{"ha":571,"x_min":67,"x_max":504,"o":"m 82 267 q 67 322 67 288 q 146 390 67 386 l 489 401 q 500 374 496 390 q 504 346 504 358 q 483 297 504 313 q 424 278 463 281 l 82 267 z "},"«":{"ha":685,"x_min":53,"x_max":632,"o":"m 219 707 l 350 707 l 238 440 l 350 175 l 218 175 l 53 440 l 219 707 m 497 707 l 632 707 l 513 440 l 625 175 l 493 175 l 328 440 l 497 707 z "},"»":{"ha":685,"x_min":53,"x_max":633,"o":"m 188 707 l 357 440 l 192 175 l 60 175 l 172 440 l 53 707 l 188 707 m 467 707 l 633 440 l 468 175 l 335 175 l 447 440 l 335 707 l 467 707 z "},"‹":{"ha":403,"x_min":53,"x_max":350,"o":"m 219 707 l 350 707 l 238 440 l 350 175 l 218 175 l 53 440 l 219 707 z "},"›":{"ha":403,"x_min":53,"x_max":350,"o":"m 350 440 l 185 175 l 53 175 l 165 440 l 53 707 l 183 707 l 350 440 z "},"„":{"ha":586,"x_min":54,"x_max":528,"o":"m 154 136 q 236 105 208 136 q 264 17 264 74 q 243 -71 264 -28 q 186 -141 222 -114 q 107 -168 150 -168 q 54 -158 78 -168 q 106 11 106 -82 q 99 66 106 42 q 76 118 92 90 q 154 136 108 136 m 417 136 q 500 105 472 136 q 528 17 528 74 q 507 -71 528 -28 q 449 -141 486 -114 q 369 -168 413 -168 q 317 -158 340 -168 q 368 11 368 -82 q 361 66 368 42 q 339 118 354 90 q 417 136 371 136 z "},"“":{"ha":586,"x_min":58,"x_max":532,"o":"m 168 682 q 86 713 114 682 q 58 801 58 744 q 79 889 58 846 q 136 959 100 932 q 215 986 172 986 q 268 976 244 986 q 217 807 217 900 q 224 752 217 776 q 246 700 231 728 q 168 682 214 682 m 432 682 q 349 713 376 682 q 321 801 321 744 q 342 889 321 846 q 400 959 364 932 q 479 986 436 986 q 532 976 508 986 q 481 807 481 900 q 488 752 481 776 q 510 700 494 728 q 432 682 478 682 z "},"”":{"ha":586,"x_min":54,"x_max":528,"o":"m 154 986 q 236 955 208 986 q 264 867 264 924 q 243 779 264 822 q 186 709 222 736 q 107 682 150 682 q 54 692 78 682 q 106 861 106 768 q 99 916 106 892 q 76 968 92 940 q 154 986 108 986 m 417 986 q 500 955 472 986 q 528 867 528 924 q 507 779 528 822 q 449 709 486 736 q 369 682 413 682 q 317 692 340 682 q 368 861 368 768 q 361 916 368 892 q 339 968 354 940 q 417 986 371 986 z "},"‘":{"ha":324,"x_min":60,"x_max":269,"o":"m 169 682 q 88 713 115 682 q 60 801 60 744 q 81 889 60 846 q 138 959 101 932 q 217 986 174 986 q 269 976 246 986 q 218 807 218 900 q 225 752 218 776 q 247 700 232 728 q 169 682 215 682 z "},"’":{"ha":322,"x_min":54,"x_max":264,"o":"m 154 986 q 236 955 208 986 q 264 867 264 924 q 243 779 264 822 q 186 709 222 736 q 107 682 150 682 q 54 692 78 682 q 106 861 106 768 q 99 916 106 892 q 76 968 92 940 q 154 986 108 986 z "},"‚":{"ha":322,"x_min":54,"x_max":264,"o":"m 154 136 q 236 105 208 136 q 264 17 264 74 q 243 -71 264 -28 q 186 -141 222 -114 q 107 -168 150 -168 q 54 -158 78 -168 q 106 11 106 -82 q 99 66 106 42 q 76 118 92 90 q 154 136 108 136 z "}," ":{"ha":1108,"x_min":0,"x_max":0,"o":""}," ":{"ha":558,"x_min":0,"x_max":0,"o":""}," ":{"ha":285,"x_min":0,"x_max":0,"o":""}," ":{"ha":243,"x_min":0,"x_max":0,"o":""}," ":{"ha":376,"x_min":0,"x_max":0,"o":""},"¢":{"ha":751,"x_min":103,"x_max":682,"o":"m 622 292 q 656 266 646 281 q 667 226 667 251 q 636 141 667 178 q 561 84 606 104 q 474 60 517 64 l 474 11 q 408 -68 474 -68 q 354 -56 374 -68 l 354 68 q 172 180 240 93 q 103 426 103 267 q 171 689 103 594 q 353 813 239 783 l 353 874 q 367 933 353 913 q 417 954 382 954 q 472 942 447 954 l 472 826 q 617 790 551 825 q 682 668 682 754 q 653 596 682 621 q 572 571 624 571 q 517 586 536 571 q 528 649 528 619 q 443 744 528 744 q 264 442 264 744 q 303 242 264 318 q 458 167 343 167 q 563 199 519 167 q 622 292 607 232 z "},"¤":{"ha":751,"x_min":32,"x_max":717,"o":"m 606 461 q 576 336 606 386 l 694 222 l 601 136 l 490 257 q 374 233 439 233 q 258 257 308 233 l 149 136 l 56 222 l 172 338 q 144 461 144 390 q 174 585 144 529 l 32 706 l 106 793 l 249 663 q 375 696 304 696 q 501 663 446 696 l 643 793 l 717 706 l 576 585 q 606 461 606 533 m 374 326 q 470 365 436 326 q 504 464 504 404 q 469 565 504 525 q 375 604 433 604 q 281 565 317 604 q 246 464 246 525 q 279 365 246 404 q 374 326 313 326 z "},"$":{"ha":751,"x_min":83,"x_max":669,"o":"m 669 229 q 598 50 669 110 q 426 -25 526 -10 l 426 -83 q 361 -162 426 -162 q 307 -150 326 -162 l 307 -28 q 150 29 217 -17 q 83 172 83 75 q 113 253 83 222 q 190 285 142 285 q 263 263 239 285 q 251 193 251 232 q 378 61 251 61 q 478 95 439 61 q 517 188 517 129 q 494 265 517 231 q 437 326 471 300 q 343 388 403 351 q 226 467 271 432 q 149 555 181 501 q 117 682 117 608 q 181 842 117 788 q 333 913 244 897 l 333 968 q 348 1028 333 1007 q 397 1049 363 1049 q 453 1036 429 1049 l 453 914 q 599 860 539 904 q 660 724 660 815 q 631 642 660 674 q 551 611 601 611 q 479 633 503 611 q 490 703 490 664 q 382 825 490 825 q 299 799 329 825 q 269 724 269 774 q 294 636 269 674 q 356 571 319 599 q 454 504 392 543 q 567 428 524 463 q 640 345 610 394 q 669 229 669 296 z "},"€":{"ha":751,"x_min":-3,"x_max":732,"o":"m 672 249 q 714 219 701 239 q 726 167 726 199 q 688 60 726 104 q 589 -8 650 15 q 460 -31 528 -31 q 108 297 158 -31 l 6 297 q -3 338 -3 314 q 56 385 -3 385 l 101 385 q 100 429 100 400 q 101 483 100 465 l 6 483 q -3 524 -3 500 q 56 571 -3 571 l 113 571 q 224 819 139 721 q 469 917 308 917 q 659 876 586 917 q 732 747 732 836 q 703 666 732 697 q 624 635 674 635 q 551 657 575 635 q 563 726 563 688 q 536 798 563 776 q 457 819 510 819 q 278 571 299 819 l 574 571 q 582 531 582 554 q 524 483 582 483 l 274 483 l 274 438 q 275 385 274 403 l 574 385 q 582 344 582 368 q 524 297 582 297 l 283 297 q 475 97 318 97 q 599 133 553 97 q 672 249 644 168 z "},"ƒ":{"ha":751,"x_min":-54,"x_max":724,"o":"m 510 1000 q 660 973 597 1000 q 724 882 724 946 q 694 810 724 835 q 615 785 665 785 q 560 800 579 785 q 571 863 571 833 q 553 919 571 899 q 501 939 536 939 q 428 898 447 939 q 410 783 410 857 l 410 571 l 635 571 q 643 531 643 554 q 585 483 643 483 l 410 483 l 410 -33 q 343 -196 410 -142 q 160 -250 276 -250 q 10 -223 74 -250 q -54 -132 -54 -196 q -25 -60 -54 -85 q 54 -35 4 -35 q 110 -50 90 -35 q 99 -112 99 -83 q 116 -169 99 -149 q 168 -189 133 -189 q 241 -148 222 -189 q 260 -33 260 -107 l 260 483 l 111 483 q 103 524 103 500 q 161 571 103 571 l 260 571 l 260 783 q 326 947 260 893 q 510 1000 392 1000 z "},"₲":{"ha":751,"x_min":51,"x_max":704,"o":"m 538 393 l 688 413 l 688 26 q 583 -10 646 4 q 458 -29 521 -25 l 458 -83 q 394 -162 458 -162 q 340 -150 360 -162 l 340 -25 q 119 122 186 0 q 51 440 51 243 q 126 767 51 640 q 367 913 201 893 l 367 968 q 381 1028 367 1007 q 431 1049 396 1049 q 485 1036 463 1049 l 485 914 q 644 856 585 904 q 704 714 704 807 q 675 633 704 664 q 597 601 646 601 q 525 624 549 601 q 536 693 536 654 q 505 786 536 753 q 415 819 474 819 q 265 713 304 819 q 226 447 226 606 q 266 181 226 285 q 422 78 306 78 q 543 96 488 78 l 538 393 z "},"£":{"ha":751,"x_min":72,"x_max":679,"o":"m 572 639 q 500 661 524 639 q 511 731 511 692 q 490 824 511 793 q 415 856 469 856 q 342 815 361 856 q 324 700 324 774 l 324 557 l 549 557 q 557 517 557 540 q 499 469 557 469 l 324 469 l 324 292 q 246 118 324 169 l 642 118 l 632 0 l 90 0 l 81 88 q 153 144 133 107 q 174 244 174 181 l 174 469 l 81 469 q 72 510 72 486 q 131 557 72 557 l 174 557 l 174 700 q 240 863 174 810 q 424 917 306 917 q 611 883 543 917 q 679 751 679 849 q 650 670 679 701 q 572 639 621 639 z "},"¥":{"ha":751,"x_min":26,"x_max":724,"o":"m 456 346 l 456 247 l 631 247 q 639 207 639 231 q 581 160 639 160 l 456 160 l 456 0 l 293 0 l 293 160 l 115 160 q 107 200 107 176 q 165 247 107 247 l 293 247 l 293 346 l 115 346 q 107 386 107 363 q 165 433 107 433 l 278 433 l 26 917 l 204 917 l 385 540 l 556 917 l 724 917 l 461 433 l 631 433 q 639 393 639 417 q 581 346 639 346 l 456 346 z "},"∙":{"ha":335,"x_min":63,"x_max":269,"o":"m 63 274 m 168 449 q 242 426 214 449 q 269 363 269 404 q 240 297 269 319 q 164 274 210 274 q 90 296 118 274 q 63 360 63 318 q 92 426 63 403 q 168 449 122 449 z "},"∕":{"ha":149,"x_min":-97,"x_max":263,"o":"m 193 1000 q 263 947 263 1000 q 254 897 263 931 l 7 -124 q -28 -126 -10 -126 q -97 -74 -97 -126 q -89 -24 -97 -57 l 158 997 q 193 1000 175 1000 z "},"+":{"ha":751,"x_min":88,"x_max":663,"o":"m 650 393 q 663 344 663 365 q 644 294 663 313 q 594 275 626 275 l 433 275 l 433 81 q 413 26 433 44 q 357 8 393 8 q 303 22 325 8 l 303 275 l 100 275 q 88 324 88 303 q 106 374 88 356 q 156 393 124 393 l 303 393 l 303 576 q 324 631 303 613 q 381 649 344 649 q 433 635 411 649 l 433 393 l 650 393 z "},"−":{"ha":751,"x_min":88,"x_max":663,"o":"m 100 276 q 88 325 88 304 q 106 376 88 357 q 156 394 124 394 l 650 394 q 663 346 663 367 q 644 295 663 314 q 594 276 626 276 l 100 276 z "},"×":{"ha":751,"x_min":75,"x_max":675,"o":"m 633 175 q 675 97 675 133 q 651 47 675 64 q 592 31 628 31 l 381 253 l 224 68 q 151 26 188 26 q 96 46 117 26 q 75 100 75 65 l 292 344 l 157 478 q 115 556 115 519 q 139 606 115 589 q 199 622 163 622 l 374 436 l 499 578 q 534 608 517 597 q 572 619 551 619 q 626 600 606 619 q 649 546 647 581 l 463 344 l 633 175 z "},"÷":{"ha":751,"x_min":88,"x_max":663,"o":"m 468 549 q 443 494 468 514 q 376 475 418 475 q 312 494 336 475 q 288 546 288 513 q 314 601 288 581 q 381 622 340 622 q 444 603 421 622 q 468 549 468 583 m 100 275 q 88 324 88 303 q 106 374 88 356 q 156 393 124 393 l 650 393 q 663 344 663 365 q 644 294 663 313 q 594 275 626 275 l 100 275 m 468 119 q 443 65 468 85 q 376 46 418 46 q 312 65 336 46 q 288 117 288 83 q 314 172 288 151 q 381 193 340 193 q 444 174 421 193 q 468 119 468 154 z "},"=":{"ha":751,"x_min":88,"x_max":663,"o":"m 100 367 q 88 415 88 394 q 106 466 88 447 q 156 485 124 485 l 650 485 q 663 436 663 457 q 644 385 663 404 q 594 367 626 367 l 100 367 m 100 143 q 88 192 88 171 q 106 242 88 224 q 156 261 124 261 l 650 261 q 663 213 663 233 q 644 162 663 181 q 594 143 626 143 l 100 143 z "},"≠":{"ha":751,"x_min":88,"x_max":663,"o":"m 650 261 q 663 213 663 233 q 644 162 663 181 q 594 143 626 143 l 358 143 l 249 -96 q 158 -35 158 -87 q 175 18 158 -18 l 232 143 l 100 143 q 88 192 88 171 q 106 242 88 224 q 156 261 124 261 l 286 261 l 335 367 l 100 367 q 88 415 88 394 q 106 466 88 447 q 156 485 124 485 l 389 485 l 503 735 q 593 674 593 726 q 576 621 593 657 l 514 485 l 650 485 q 663 436 663 457 q 644 385 663 404 q 594 367 626 367 l 460 367 l 413 261 l 650 261 z "},">":{"ha":751,"x_min":146,"x_max":632,"o":"m 632 346 l 301 94 q 257 67 272 75 q 222 58 242 58 q 167 78 188 58 q 146 132 146 97 l 428 346 l 188 525 q 158 561 169 540 q 146 603 146 582 q 169 653 146 636 q 229 669 193 669 l 632 346 z "},"<":{"ha":751,"x_min":119,"x_max":606,"o":"m 564 203 q 594 167 582 188 q 606 125 606 146 q 582 75 606 92 q 522 58 558 58 l 119 382 l 450 633 q 492 660 475 651 q 529 669 510 669 q 585 650 564 669 q 606 596 606 631 l 324 382 l 564 203 z "},"≥":{"ha":751,"x_min":133,"x_max":619,"o":"m 581 399 l 322 192 q 263 168 292 168 q 219 185 235 168 q 203 228 203 203 q 208 257 203 244 l 404 399 l 246 515 q 203 579 203 547 q 222 626 203 611 q 274 642 240 642 l 581 399 m 610 110 q 619 65 619 83 q 556 0 619 0 l 143 0 q 133 44 133 26 q 197 110 133 110 l 610 110 z "},"≤":{"ha":751,"x_min":132,"x_max":618,"o":"m 489 642 q 533 624 518 642 q 547 581 547 607 q 543 553 547 568 l 347 411 l 506 296 q 549 231 549 261 q 530 183 549 199 q 478 168 511 168 l 171 411 l 429 618 q 489 642 460 642 m 608 110 q 618 65 618 83 q 554 0 618 0 l 142 0 q 132 44 132 26 q 196 110 132 110 l 608 110 z "},"±":{"ha":751,"x_min":122,"x_max":628,"o":"m 615 457 q 628 408 628 429 q 610 357 628 375 q 560 339 593 339 l 440 339 l 440 236 q 420 182 440 200 q 364 164 400 164 q 310 178 332 164 l 310 339 l 135 339 q 122 388 122 367 q 140 439 122 421 q 190 457 157 457 l 310 457 l 310 575 q 330 629 310 611 q 386 647 350 647 q 440 633 418 647 l 440 457 l 615 457 m 589 129 q 599 85 599 103 q 536 19 599 19 l 156 19 q 146 64 146 46 q 208 129 146 129 l 589 129 z "},"≈":{"ha":751,"x_min":92,"x_max":658,"o":"m 207 524 q 389 496 261 524 q 469 481 429 488 q 532 474 510 474 q 589 483 563 474 q 624 507 615 493 q 658 432 658 475 q 627 381 658 400 q 543 361 596 361 q 361 389 489 361 q 281 404 321 397 q 218 411 240 411 q 161 401 188 411 q 125 378 135 392 q 92 453 92 411 q 123 504 92 485 q 207 524 154 524 m 207 290 q 389 263 261 290 q 469 247 429 254 q 532 240 510 240 q 589 250 563 240 q 624 274 615 260 q 658 199 658 242 q 627 147 658 167 q 543 128 596 128 q 361 156 489 128 q 281 171 321 164 q 218 178 242 178 q 161 168 188 178 q 125 144 135 158 q 92 219 92 178 q 123 271 92 251 q 207 290 154 290 z "},"~":{"ha":751,"x_min":111,"x_max":639,"o":"m 515 349 q 457 356 493 349 q 385 371 421 363 q 222 399 274 399 q 142 379 172 399 q 111 325 111 360 q 120 288 111 307 q 144 253 129 268 q 179 276 153 267 q 235 286 206 286 q 292 279 257 286 q 364 264 328 272 q 528 236 478 236 q 608 256 578 236 q 639 310 639 275 q 630 347 639 328 q 606 382 621 367 q 571 358 597 368 q 515 349 544 349 z "},"¬":{"ha":751,"x_min":49,"x_max":646,"o":"m 646 15 q 590 0 613 0 q 532 19 553 0 q 511 75 511 39 l 511 276 l 61 276 q 49 325 49 304 q 67 376 49 357 q 117 394 85 394 l 646 394 l 646 15 z "},"∞":{"ha":751,"x_min":-4,"x_max":756,"o":"m 556 161 q 457 200 503 161 q 361 310 411 239 q 286 201 331 240 q 185 161 242 161 q 47 226 97 161 q -4 390 -4 292 q 49 568 -4 497 q 196 639 103 639 q 294 599 249 639 q 388 490 339 560 q 567 639 458 639 q 705 574 654 639 q 756 410 756 508 q 702 232 756 303 q 556 161 649 161 m 588 290 q 640 317 622 290 q 657 388 657 343 q 622 483 657 446 q 532 521 586 521 q 478 499 501 521 q 435 435 454 476 q 516 327 481 364 q 588 290 551 290 m 219 279 q 274 301 251 279 q 317 365 297 324 q 234 474 268 439 q 164 510 200 510 q 112 483 129 510 q 94 413 94 457 q 130 317 94 354 q 219 279 165 279 z "},"∫":{"ha":751,"x_min":-53,"x_max":728,"o":"m 514 1000 q 665 973 601 1000 q 728 882 728 946 q 699 810 728 835 q 619 785 669 785 q 564 800 583 785 q 575 863 575 833 q 558 919 575 899 q 506 939 540 939 q 433 898 451 939 q 414 783 414 857 l 414 -33 q 347 -196 414 -142 q 161 -250 279 -250 q 11 -223 75 -250 q -53 -132 -53 -196 q -24 -60 -53 -85 q 56 -35 6 -35 q 111 -50 92 -35 q 101 -112 101 -86 q 169 -189 101 -189 q 242 -148 224 -189 q 261 -33 261 -107 l 261 783 q 328 946 261 892 q 514 1000 396 1000 z "},"Ω":{"ha":826,"x_min":47,"x_max":760,"o":"m 47 0 m 404 944 q 676 816 593 944 q 760 468 760 688 q 531 111 760 185 l 717 111 l 717 0 l 456 0 l 435 115 q 549 234 514 139 q 585 461 585 329 q 549 737 585 626 q 404 847 513 847 q 258 737 294 847 q 222 461 222 626 q 258 234 222 329 q 374 115 293 139 l 353 0 l 90 0 l 90 111 l 276 111 q 47 468 47 185 q 131 816 47 688 q 404 944 214 944 z "},"∆":{"ha":751,"x_min":-42,"x_max":792,"o":"m 454 917 l 792 0 l -42 0 l 282 917 l 454 917 m 354 779 l 140 101 l 581 101 l 354 779 z "},"∏":{"ha":751,"x_min":76,"x_max":674,"o":"m 674 917 l 674 -110 l 511 -110 l 511 814 l 239 814 l 239 -110 l 76 -110 l 76 917 l 674 917 z "},"∑":{"ha":751,"x_min":24,"x_max":749,"o":"m 657 944 q 701 926 685 944 q 717 881 717 908 q 704 838 717 860 l 238 838 l 524 449 l 244 11 l 736 11 q 749 -37 749 -17 q 731 -90 749 -71 q 682 -108 714 -108 l 24 -108 l 363 417 l 58 842 q 33 901 33 875 q 46 944 33 922 l 657 944 z "},"√":{"ha":751,"x_min":46,"x_max":1010,"o":"m 997 1128 q 1010 1079 1010 1100 q 992 1028 1010 1047 q 943 1010 975 1010 l 738 1010 l 483 0 l 297 0 l 46 692 q 133 733 88 733 q 178 721 161 733 q 206 679 196 708 l 397 138 l 640 1128 l 997 1128 z "},"µ":{"ha":747,"x_min":97,"x_max":693,"o":"m 97 0 m 650 114 q 693 22 650 46 q 660 -10 682 1 q 611 -21 639 -21 q 544 2 571 -21 q 513 64 518 25 q 441 -6 490 18 q 335 -31 392 -31 q 250 -19 288 -31 l 250 -250 l 97 -267 l 97 708 l 250 725 l 250 335 q 256 195 250 250 q 290 101 263 140 q 375 63 318 63 q 467 109 436 63 q 497 225 497 156 l 497 708 l 650 708 l 650 114 z "},"∂":{"ha":751,"x_min":64,"x_max":689,"o":"m 347 1000 q 546 917 469 1000 q 656 708 622 835 q 689 438 689 581 q 617 102 689 232 q 376 -28 544 -28 q 208 16 279 -28 q 101 138 138 60 q 64 315 64 215 q 144 583 64 482 q 378 685 225 685 q 494 667 440 685 q 443 838 483 775 q 315 900 403 900 q 275 894 296 900 q 240 879 254 889 q 226 924 226 894 q 260 980 226 960 q 347 1000 293 1000 m 376 56 q 514 418 514 56 q 512 506 514 476 q 507 560 510 535 q 378 601 447 601 q 265 519 292 601 q 239 325 239 436 q 270 137 239 218 q 376 56 301 56 z "},"%":{"ha":1282,"x_min":61,"x_max":1221,"o":"m 897 954 q 936 940 917 954 q 969 904 956 925 l 443 15 q 411 -26 426 -12 q 372 -40 396 -40 q 333 -26 353 -40 q 300 10 314 -11 l 828 899 q 858 940 843 926 q 897 954 874 954 m 289 936 q 514 671 514 936 q 461 463 514 536 q 289 389 408 389 q 61 663 61 389 q 116 864 61 792 q 289 936 171 936 m 289 869 q 214 812 232 869 q 196 665 196 754 q 213 514 196 569 q 289 458 229 458 q 363 515 347 458 q 379 665 379 571 q 362 812 379 754 q 289 869 344 869 m 996 521 q 1221 256 1221 521 q 1168 47 1221 121 q 996 -26 1115 -26 q 768 247 768 -26 q 823 449 768 376 q 996 521 878 521 m 996 454 q 921 397 939 454 q 903 250 903 339 q 919 99 903 154 q 996 43 935 43 q 1070 99 1054 43 q 1086 250 1086 156 q 1069 397 1086 339 q 996 454 1051 454 z "},"‰":{"ha":1819,"x_min":61,"x_max":1758,"o":"m 897 954 q 936 940 917 954 q 969 904 956 925 l 443 15 q 411 -26 426 -12 q 372 -40 396 -40 q 333 -26 353 -40 q 300 10 314 -11 l 828 899 q 858 940 843 926 q 897 954 874 954 m 289 936 q 514 671 514 936 q 461 463 514 536 q 289 389 408 389 q 61 663 61 389 q 116 864 61 792 q 289 936 171 936 m 289 869 q 214 812 232 869 q 196 665 196 754 q 213 514 196 569 q 289 458 229 458 q 363 515 347 458 q 379 665 379 571 q 362 812 379 754 q 289 869 344 869 m 996 521 q 1221 256 1221 521 q 1168 47 1221 121 q 996 -26 1115 -26 q 768 247 768 -26 q 823 449 768 376 q 996 521 878 521 m 1532 521 q 1758 256 1758 521 q 1706 47 1758 121 q 1532 -26 1653 -26 q 1304 247 1304 -26 q 1359 449 1304 376 q 1532 521 1414 521 m 996 454 q 921 397 939 454 q 903 250 903 339 q 919 99 903 154 q 996 43 935 43 q 1070 99 1054 43 q 1086 250 1086 156 q 1069 397 1086 339 q 996 454 1051 454 m 1532 454 q 1458 397 1476 454 q 1440 250 1440 339 q 1456 99 1440 154 q 1532 43 1472 43 q 1606 99 1590 43 q 1622 250 1622 156 q 1605 397 1622 339 q 1532 454 1588 454 z "},"◊":{"ha":751,"x_min":1,"x_max":750,"o":"m 457 917 l 750 474 l 467 0 l 294 0 l 1 446 l 285 917 l 457 917 m 357 793 l 167 469 l 394 124 l 585 449 l 357 793 z "},"@":{"ha":1153,"x_min":61,"x_max":1092,"o":"m 576 835 q 842 785 726 835 q 1025 638 958 736 q 1092 397 1092 539 q 1060 238 1092 308 q 966 126 1028 167 q 818 85 904 85 q 730 101 771 85 q 668 151 689 117 q 529 85 631 85 q 411 126 458 85 q 364 233 364 167 q 644 394 364 394 l 644 471 q 633 544 644 519 q 582 568 621 568 q 517 503 517 568 q 525 456 517 479 q 475 444 510 444 q 413 463 438 444 q 388 517 388 482 q 448 601 388 571 q 593 632 508 632 q 732 590 692 632 q 772 446 772 547 l 772 210 q 785 165 772 179 q 832 150 799 150 q 933 207 904 150 q 963 363 963 264 q 864 651 963 551 q 576 750 765 750 q 370 699 457 750 q 238 557 283 649 q 192 344 192 465 q 292 56 192 157 q 581 -44 393 -44 q 713 -33 654 -44 q 808 14 771 -21 q 832 -33 832 -1 q 758 -111 832 -86 q 582 -136 683 -136 q 311 -79 429 -136 q 127 86 193 -22 q 61 344 61 194 q 124 599 61 488 q 303 772 186 710 q 576 835 419 835 m 644 331 q 500 238 500 331 q 518 183 500 204 q 568 163 536 163 q 626 191 607 163 q 644 263 644 219 l 644 331 z "},"&":{"ha":946,"x_min":56,"x_max":946,"o":"m 926 118 q 946 65 946 99 q 912 -5 946 18 q 822 -28 878 -28 q 730 -10 781 -28 q 626 39 679 7 q 401 -31 524 -31 q 151 42 247 -31 q 56 256 56 115 q 217 488 56 417 q 153 708 153 611 q 232 884 153 824 q 440 944 311 944 q 694 769 694 944 q 665 688 694 719 q 588 657 636 657 q 515 679 539 657 q 526 749 526 710 q 428 847 526 847 q 340 814 371 847 q 310 714 310 781 q 356 544 310 638 q 475 361 401 451 q 631 203 549 271 q 650 342 650 261 q 590 497 650 433 q 632 513 607 507 q 678 519 657 519 q 781 476 750 519 q 813 357 813 433 q 791 244 813 301 q 729 135 769 186 q 849 103 800 103 q 926 118 896 103 m 226 281 q 283 127 226 183 q 438 71 340 71 q 544 94 499 71 q 396 235 469 154 q 267 400 322 315 q 238 352 249 383 q 226 281 226 321 z "},"¶":{"ha":936,"x_min":67,"x_max":990,"o":"m 203 -136 q 317 -175 247 -175 q 416 -127 389 -175 q 443 10 443 -79 l 443 368 q 338 353 390 353 q 137 431 207 353 q 67 643 67 508 q 162 865 67 799 q 433 931 257 931 q 588 917 519 931 l 588 49 q 532 -191 588 -104 q 344 -278 476 -278 q 228 -250 275 -278 q 182 -178 182 -222 q 188 -153 182 -164 q 203 -136 193 -142 m 990 917 q 967 835 990 861 q 890 810 944 810 q 832 817 856 810 l 832 0 l 696 -21 l 696 917 l 990 917 z "},"§":{"ha":688,"x_min":67,"x_max":622,"o":"m 464 126 q 539 44 513 88 q 565 -57 565 1 q 492 -198 565 -147 q 308 -249 418 -249 q 150 -212 217 -249 q 83 -99 83 -175 q 111 -26 83 -50 q 185 -3 139 -3 q 243 -18 222 -3 q 236 -72 236 -49 q 262 -150 236 -122 q 335 -178 288 -178 q 398 -156 375 -178 q 421 -96 421 -135 q 381 1 421 -40 q 260 97 342 42 q 158 174 196 143 q 94 251 121 206 q 67 351 67 296 q 106 470 67 419 q 222 568 146 521 q 149 652 175 607 q 122 757 122 697 q 158 857 122 814 q 251 922 193 900 q 378 944 310 944 q 537 907 468 944 q 606 793 606 869 q 577 722 606 746 q 503 699 549 699 q 446 714 467 699 q 451 769 451 738 q 429 846 451 818 q 358 874 407 874 q 292 852 317 874 q 267 790 267 831 q 306 697 267 738 q 426 600 346 656 q 529 522 490 554 q 595 444 568 489 q 622 344 622 400 q 581 224 622 276 q 464 126 539 172 m 210 396 q 235 308 210 346 q 292 246 261 269 q 399 172 324 222 q 458 230 439 201 q 478 300 478 258 q 437 407 478 364 q 313 504 396 450 l 288 521 q 229 465 249 493 q 210 396 210 436 z "},"©":{"ha":1110,"x_min":61,"x_max":1050,"o":"m 556 854 q 809 792 696 854 q 986 617 922 729 q 1050 365 1050 506 q 987 116 1050 224 q 812 -51 924 8 q 556 -110 700 -110 q 299 -51 411 -110 q 124 116 188 8 q 61 365 61 224 q 125 617 61 506 q 302 792 189 729 q 556 854 415 854 m 556 768 q 360 717 442 768 q 235 574 278 665 q 192 365 192 483 q 286 81 192 185 q 556 -24 381 -24 q 825 81 731 -24 q 919 365 919 185 q 876 574 919 483 q 751 717 833 665 q 556 768 669 768 m 578 650 q 693 621 647 650 q 739 531 739 592 q 714 478 739 497 q 651 460 689 460 q 603 471 621 460 q 611 515 611 492 q 601 566 611 549 q 563 583 590 583 q 494 520 513 583 q 475 376 475 457 q 497 240 475 292 q 581 189 518 189 q 653 210 622 189 q 696 269 685 231 q 720 252 713 263 q 728 225 728 242 q 679 138 728 169 q 565 106 631 106 q 394 174 451 106 q 338 365 338 243 q 398 572 338 494 q 578 650 458 650 z "},"®":{"ha":1110,"x_min":61,"x_max":1050,"o":"m 556 944 q 809 882 696 944 q 986 708 922 819 q 1050 456 1050 596 q 987 206 1050 314 q 812 40 924 99 q 556 -19 700 -19 q 299 40 411 -19 q 124 206 188 99 q 61 456 61 314 q 125 708 61 596 q 302 882 189 819 q 556 944 415 944 m 556 858 q 360 807 442 858 q 235 665 278 756 q 192 456 192 574 q 286 171 192 275 q 556 67 381 67 q 825 171 731 67 q 919 456 919 275 q 876 665 919 574 q 751 807 833 756 q 556 858 669 858 m 556 738 q 707 705 653 738 q 761 590 761 672 q 734 499 761 536 q 656 447 707 461 l 781 211 l 644 211 l 531 458 q 526 474 526 465 q 604 499 579 474 q 629 582 629 525 q 540 675 629 675 q 501 672 529 675 l 501 211 l 375 211 l 375 732 q 556 738 469 738 z "},"™":{"ha":1000,"x_min":10,"x_max":935,"o":"m 369 917 l 364 842 l 247 842 l 247 413 l 129 413 l 129 842 l 10 842 l 10 917 l 369 917 m 886 917 l 935 413 l 821 413 l 788 811 l 693 413 l 592 413 l 500 813 l 467 413 l 375 413 l 424 917 l 578 917 l 657 561 l 735 917 l 886 917 z "},"°":{"ha":504,"x_min":19,"x_max":485,"o":"m 251 514 q 133 542 186 514 q 50 619 81 569 q 19 735 19 669 q 84 892 19 835 q 251 950 149 950 q 420 892 356 950 q 485 735 485 835 q 419 575 485 636 q 251 514 353 514 m 251 592 q 331 632 306 592 q 356 735 356 672 q 330 833 356 794 q 251 872 304 872 q 174 833 200 872 q 149 735 149 794 q 174 632 149 672 q 251 592 199 592 z "},"|":{"ha":353,"x_min":104,"x_max":249,"o":"m 249 1111 l 104 1111 l 104 -278 l 249 -278 l 249 1111 z "},"¦":{"ha":354,"x_min":104,"x_max":250,"o":"m 250 539 l 250 917 l 104 917 l 104 539 l 250 539 m 250 0 l 250 378 l 104 378 l 104 0 l 250 0 z "},"ℓ":{"ha":525,"x_min":6,"x_max":490,"o":"m 454 164 q 488 104 488 149 q 436 15 488 50 q 300 -21 385 -21 q 94 208 94 -21 l 94 319 q 6 314 56 314 l 6 400 q 94 406 57 400 l 94 665 q 149 869 94 793 q 313 944 204 944 q 490 722 490 944 q 423 481 490 579 q 247 339 356 382 l 247 210 q 265 119 247 153 q 333 85 283 85 q 405 106 372 85 q 454 164 438 128 m 317 865 q 263 826 279 865 q 247 732 247 786 l 247 436 q 350 548 314 476 q 386 721 386 619 q 369 827 386 789 q 317 865 351 865 z "},"†":{"ha":547,"x_min":39,"x_max":556,"o":"m 401 -160 q 358 -185 385 -176 q 303 -194 331 -194 q 199 -79 199 -194 q 204 35 199 -46 l 206 67 l 235 556 q 64 515 136 556 q 39 613 39 560 q 64 710 39 667 q 145 680 100 690 q 235 669 190 669 q 185 899 235 778 q 238 919 207 911 q 297 926 269 926 q 356 919 325 926 q 410 899 388 911 q 360 669 360 778 q 449 680 404 669 q 531 710 494 690 q 556 613 556 667 q 531 515 556 560 q 360 556 458 556 l 401 -160 z "},"‡":{"ha":613,"x_min":43,"x_max":560,"o":"m 385 196 q 535 236 471 200 q 560 138 560 193 q 535 42 560 83 q 392 79 469 75 l 406 -160 q 362 -185 389 -176 q 307 -194 335 -194 q 203 -79 203 -194 q 211 79 203 -46 q 68 42 133 75 q 43 138 43 83 q 68 236 43 193 q 218 196 129 200 l 239 556 q 68 515 140 556 q 43 613 43 560 q 68 710 43 667 q 149 680 104 690 q 239 669 194 669 q 189 899 239 778 q 242 919 211 911 q 301 926 274 926 q 360 919 329 926 q 414 899 392 911 q 364 669 364 778 q 453 680 408 669 q 535 710 499 690 q 560 613 560 667 q 535 515 560 560 q 364 556 463 556 l 385 196 z "},"℮":{"ha":1110,"x_min":61,"x_max":1050,"o":"m 556 944 q 809 882 696 944 q 986 708 922 819 q 1050 456 1050 596 l 1050 444 l 260 444 l 260 218 q 386 118 308 153 q 561 83 464 83 q 756 123 672 83 q 893 236 840 163 l 978 174 q 804 31 911 81 q 561 -19 697 -19 q 301 39 415 -19 q 124 206 188 97 q 61 456 61 314 q 125 708 61 596 q 302 882 189 819 q 556 944 415 944 m 556 842 q 386 804 463 842 q 260 700 310 767 l 260 547 l 854 547 l 854 696 q 727 803 804 765 q 556 842 650 842 z "},"^":{"ha":664,"x_min":10,"x_max":654,"o":"m 417 917 q 510 649 453 756 q 654 478 568 543 q 568 410 632 410 q 437 491 500 410 q 326 746 374 572 q 207 489 263 568 q 94 410 151 410 q 10 478 32 410 q 168 647 100 529 q 275 917 236 764 l 417 917 z "},"̈":{"ha":0,"x_min":-236,"x_max":249,"o":"m 0 825 m 146 1000 q 220 978 192 1000 q 249 914 249 956 q 219 848 249 871 q 142 825 189 825 q 68 847 96 825 q 40 911 40 869 q 70 977 40 954 q 146 1000 100 1000 m -131 1000 q -56 978 -85 1000 q -28 914 -28 956 q -58 848 -28 871 q -135 825 -87 825 q -208 847 -181 825 q -236 911 -236 869 q -206 977 -236 954 q -131 1000 -176 1000 z "},"̇":{"ha":0,"x_min":-103,"x_max":106,"o":"m 0 825 m 3 1000 q 77 978 49 1000 q 106 914 106 956 q 76 848 106 871 q -1 825 46 825 q -75 847 -47 825 q -103 911 -103 869 q -73 977 -103 954 q 3 1000 -43 1000 z "},"̀":{"ha":0,"x_min":-182,"x_max":122,"o":"m 0 794 m -65 863 q -149 911 -115 885 q -182 975 -182 938 q -163 1025 -182 1003 q -117 1054 -144 1047 l 122 843 l 88 794 l -65 863 z "},"́":{"ha":0,"x_min":-83,"x_max":221,"o":"m 0 794 m 156 1054 q 202 1025 183 1047 q 221 975 221 1003 q 188 911 221 938 q 103 863 154 885 l -49 794 l -83 843 l 156 1054 z "},"̋":{"ha":0,"x_min":-194,"x_max":276,"o":"m 0 769 m -49 1074 q 17 1054 -10 1074 q 44 1000 44 1035 q 24 941 44 971 q -32 876 3 911 l -142 769 l -194 804 l -49 1074 m 183 1074 q 249 1054 222 1074 q 276 1000 276 1035 q 255 941 276 971 q 199 876 233 911 l 90 769 l 38 804 l 183 1074 z "},"̂":{"ha":0,"x_min":-206,"x_max":208,"o":"m 0 799 m -165 799 l -206 847 l -4 1031 l 1 1031 l 208 847 l 167 799 l 0 900 l -165 799 z "},"̌":{"ha":0,"x_min":-208,"x_max":206,"o":"m 0 799 m 164 1031 l 206 982 l 4 799 l -1 799 l -208 982 l -168 1031 l -1 929 l 164 1031 z "},"̆":{"ha":0,"x_min":-208,"x_max":210,"o":"m 0 822 m 210 1014 q 152 873 210 924 q 0 822 94 822 q -151 873 -93 822 q -208 1014 -208 924 l -82 1014 q -64 926 -82 958 q 0 894 -46 894 q 64 926 46 894 q 82 1014 82 958 l 210 1014 z "},"̊":{"ha":0,"x_min":-153,"x_max":147,"o":"m 0 782 m -3 782 q -110 819 -67 782 q -153 917 -153 856 q -110 1013 -153 978 q -3 1047 -68 1047 q 105 1013 63 1047 q 147 917 147 978 q 104 819 147 856 q -3 782 61 782 m -3 829 q 49 853 32 829 q 67 917 67 878 q 49 977 67 954 q -3 1000 32 1000 q -55 977 -37 1000 q -72 917 -72 954 q -55 853 -72 878 q -3 829 -37 829 z "},"̃":{"ha":0,"x_min":-214,"x_max":207,"o":"m 0 829 m 171 968 q 197 938 188 957 q 207 897 207 918 q 183 847 207 864 q 122 829 160 829 q 6 846 92 829 q -103 863 -75 863 q -176 842 -154 863 q -204 872 -194 853 q -214 913 -214 892 q -190 963 -214 946 q -128 981 -165 981 q -11 964 -94 981 q 96 947 69 947 q 171 968 147 947 z "},"̄":{"ha":0,"x_min":-181,"x_max":201,"o":"m 0 850 m 190 964 q 201 911 201 936 q 181 866 201 882 q 121 850 161 850 l -171 850 q -181 900 -181 872 q -162 947 -181 931 q -110 964 -143 964 l 190 964 z "},"̣":{"ha":0,"x_min":-111,"x_max":97,"o":"m -6 -75 q 69 -97 40 -75 q 97 -161 97 -119 q 67 -227 97 -204 q -10 -250 38 -250 q -83 -228 -56 -250 q -111 -164 -111 -206 q -81 -98 -111 -121 q -6 -75 -51 -75 z "},"̦":{"ha":0,"x_min":-201,"x_max":-14,"o":"m -111 -69 q -38 -97 -62 -69 q -14 -172 -14 -124 q -33 -247 -14 -210 q -84 -306 -51 -283 q -154 -329 -117 -329 q -201 -321 -176 -329 q -156 -176 -156 -254 q -162 -128 -156 -149 q -182 -86 -168 -108 q -111 -69 -151 -69 z "},"̧":{"ha":0,"x_min":-125,"x_max":189,"o":"m 0 0 m 35 -89 q 147 -120 106 -89 q 189 -214 189 -151 q 135 -313 189 -275 q 7 -351 81 -351 q -85 -333 -44 -351 q -125 -274 -125 -314 q -111 -239 -125 -251 q -14 -278 -76 -278 q 51 -263 25 -278 q 76 -218 76 -249 q 46 -168 76 -182 q -36 -154 15 -154 q -94 -158 -68 -154 l -29 15 l 36 15 l -4 -90 q 35 -89 8 -89 z "},"ʼ":{"ha":279,"x_min":21,"x_max":207,"o":"m 113 990 q 207 867 207 990 q 188 785 207 825 q 138 719 169 744 q 69 694 107 694 q 21 704 42 694 q 75 864 75 783 q 49 974 75 922 q 113 990 76 990 z "},"ˉ":{"ha":410,"x_min":14,"x_max":396,"o":"m 14 850 m 385 964 q 396 911 396 936 q 376 866 396 882 q 315 850 356 850 l 24 850 q 14 900 14 872 q 33 947 14 931 q 85 964 51 964 l 385 964 z "},"´":{"ha":332,"x_min":14,"x_max":318,"o":"m 253 1054 q 299 1025 281 1047 q 318 975 318 1003 q 285 911 318 938 q 200 863 251 885 l 49 794 l 14 843 l 253 1054 z "},"˘":{"ha":444,"x_min":14,"x_max":432,"o":"m 432 1014 q 374 873 432 924 q 222 822 317 822 q 72 873 129 822 q 14 1014 14 924 l 140 1014 q 158 926 140 958 q 222 894 176 894 q 286 926 268 894 q 304 1014 304 958 l 432 1014 z "},"ˇ":{"ha":442,"x_min":14,"x_max":428,"o":"m 386 1031 l 428 982 l 226 799 l 221 799 l 14 982 l 54 1031 l 221 929 l 386 1031 z "},"¸":{"ha":342,"x_min":14,"x_max":328,"o":"m 174 -89 q 286 -120 244 -89 q 328 -214 328 -151 q 274 -313 328 -275 q 146 -351 219 -351 q 54 -333 94 -351 q 14 -274 14 -314 q 28 -239 14 -251 q 125 -278 63 -278 q 190 -263 164 -278 q 215 -218 215 -249 q 185 -168 215 -182 q 103 -154 154 -154 q 44 -158 71 -154 l 110 15 l 175 15 l 135 -90 q 174 -89 147 -89 z "},"ˆ":{"ha":442,"x_min":14,"x_max":428,"o":"m 54 799 l 14 847 l 215 1031 l 221 1031 l 428 847 l 386 799 l 219 900 l 54 799 z "},"¨":{"ha":513,"x_min":14,"x_max":499,"o":"m 14 825 m 396 1000 q 470 978 442 1000 q 499 914 499 956 q 469 848 499 871 q 392 825 439 825 q 318 847 346 825 q 290 911 290 869 q 320 977 290 954 q 396 1000 350 1000 m 119 1000 q 194 978 165 1000 q 222 914 222 956 q 192 848 222 871 q 115 825 163 825 q 42 847 69 825 q 14 911 14 869 q 44 977 14 954 q 119 1000 74 1000 z "},"˙":{"ha":235,"x_min":14,"x_max":222,"o":"m 119 1000 q 194 978 165 1000 q 222 914 222 956 q 192 848 222 871 q 115 825 163 825 q 42 847 69 825 q 14 911 14 869 q 44 977 14 954 q 119 1000 74 1000 z "},"`":{"ha":332,"x_min":14,"x_max":318,"o":"m 131 863 q 47 911 81 885 q 14 975 14 938 q 33 1025 14 1003 q 79 1054 51 1047 l 318 843 l 283 794 l 131 863 z "},"˝":{"ha":499,"x_min":14,"x_max":485,"o":"m 160 1074 q 226 1054 199 1074 q 253 1000 253 1035 q 232 941 253 971 q 176 876 211 911 l 67 769 l 14 804 l 160 1074 m 392 1074 q 458 1054 431 1074 q 485 1000 485 1035 q 463 941 485 971 q 407 876 442 911 l 299 769 l 246 804 l 392 1074 z "},"¯":{"ha":410,"x_min":14,"x_max":396,"o":"m 385 964 q 396 911 396 936 q 376 866 396 882 q 315 850 356 850 l 24 850 q 14 900 14 872 q 33 947 14 931 q 85 964 51 964 l 385 964 z "},"˛":{"ha":311,"x_min":14,"x_max":275,"o":"m 228 4 q 147 -85 178 -33 q 117 -190 117 -136 q 134 -251 117 -232 q 194 -271 151 -271 q 260 -242 235 -271 q 275 -276 275 -254 q 242 -333 275 -315 q 161 -351 208 -351 q 53 -314 92 -351 q 14 -208 14 -276 q 65 -69 14 -133 q 192 31 115 -6 l 228 4 z "},"˚":{"ha":328,"x_min":14,"x_max":314,"o":"m 164 782 q 57 819 100 782 q 14 917 14 856 q 56 1013 14 978 q 164 1047 99 1047 q 272 1013 229 1047 q 314 917 314 978 q 271 819 314 856 q 164 782 228 782 m 164 829 q 216 853 199 829 q 233 917 233 878 q 216 977 233 954 q 164 1000 199 1000 q 112 977 129 1000 q 94 917 94 954 q 112 853 94 878 q 164 829 129 829 z "},"˜":{"ha":450,"x_min":14,"x_max":435,"o":"m 399 968 q 425 938 415 957 q 435 897 435 918 q 411 847 435 864 q 350 829 388 829 q 233 846 319 829 q 125 863 153 863 q 51 842 74 863 q 24 872 33 853 q 14 913 14 892 q 38 963 14 946 q 100 981 63 981 q 217 964 133 981 q 324 947 297 947 q 399 968 375 947 z "}}}
